<?xml version="1.0" encoding="UTF-8" standalone="no"?>
<svg
   width="1415.016"
   height="2064.0171"
   viewBox="0 0 1415.016 2064.0172"
   version="1.1"
   id="svg13"
   xmlns="http://www.w3.org/2000/svg"
   xmlns:svg="http://www.w3.org/2000/svg">
  <defs
     id="defs13" />
  <g
     id="g15"
     style="display:inline"
     transform="translate(-45.253906,-85.658827)">
    <path
       fill-rule="nonzero"
       fill="#000000"
       fill-opacity="1"
       d="m 875.37891,802.21875 c -19.88672,3.35937 -42.31641,9.19141 -66.14454,19.63281 -19.38281,8.48828 -39.46093,19.92969 -59.76562,35.33985 -34.78516,26.41015 -68.75391,63.34765 -100.26563,113.57812 -28.03515,44.69137 -52.97656,98.05077 -74.34765,159.80857 -20.34766,58.8008 -36.85938,123.4844 -49.6211,192.2735 -26.35546,142.0429 -35.07421,292.3203 -32.33593,428.2265 0.32031,15.8086 0.83593,31.1563 1.4375,46.2852 -13.19141,-73.0156 -24.11328,-149.2149 -34.57813,-230.3047 -13.16406,-101.9961 -24.5625,-201.1797 -36.4414,-282.9297 -6.92969,-47.6875 -13.6211,-87.5078 -20.58985,-122.918 -9.17578,-46.6523 -17.42969,-78.5 -24.22265,-103.4218 6.6289,24.3203 12.80859,57.8125 17.70703,104.1211 3.74218,35.4101 6.5039,75.8593 8.625,123.4726 3.64453,82.0117 4.9414,181.3985 8.0625,284.3438 3.20703,105.6015 8.28906,206.0625 19.26562,301.1132 -27.97265,-55.4531 -63,-110.4335 -102.72265,-164.2578 -50.03125,-67.7929 -103.65625,-128.5898 -149.17579,-177.6015 -60.29296,-64.9141 -103.898432,-107.75 -125.04687,-132.3633 15.976562,18.5937 62.60938,76.7305 109.84766,141.3633 38.52343,52.7031 83.28906,117.6836 123.26953,187.8281 40.83984,71.6484 72.90625,141.9805 93.5625,210.4141 1.55078,5.1484 2.99218,10.1914 4.3789,15.1875 -26.93359,-48.7227 -63.6289,-94.8516 -105.5625,-138.0664 -44.94531,-46.3243 -93.00781,-86.3282 -132.22656,-117.3985 -21.4414,-16.9844 -43.61328,-33.914 -58.51953,-45.4609 -21.535156,-16.6797 -35.464844,-27.9141 -44.714844,-36.8633 7.542969,7.2969 23.066406,23.2344 39.941406,40.6914 13.046876,13.4961 31.394528,32.5703 49.624998,52.2461 32.97656,35.582 72.57813,80.5117 107.57813,129.7617 35.89843,50.5156 63.44531,100.5586 80.14453,150.168 9.39844,27.918 14.6289,53.5273 16.91406,77.1328 2.99609,30.9297 0.73828,56.3984 -2.125,76.5742 l 46.62109,4.7383 46.62891,4.7422 c 0.17188,-1.2031 0.32031,-2.4336 0.47656,-3.6641 l 22.62891,1.1914 39.43359,2.0782 c 0.0508,0.1289 0.0977,0.2656 0.14844,0.3945 l 1.16406,-0.3242 6.125,0.3242 c 0.0469,-0.668 0.0742,-1.3789 0.11719,-2.0547 l 36.28906,-10.0703 c 0.98828,4.1367 1.97657,8.2578 2.95703,12.125 l 45.91797,-8.3242 1.26172,-0.2305 c 0.72266,2.9062 1.44531,5.8242 2.16797,8.5547 l 45.82422,-8.7149 45.81641,-8.7109 c -14.62891,-55.1211 -36.92188,-149.5781 -40.58985,-277.4687 -2.75781,-95.9922 5.44922,-203.25 31.8711,-309.0274 26.57421,-106.3789 68.98828,-200.8086 126.59375,-277.4414 32.6914,-43.4922 68.49218,-78.8906 105.86718,-107.3437 49.09766,-37.3594 97.79686,-60.2969 138.86716,-74.1993 -40.9883,13.8789 -90.78122,34.8907 -143.10544,69.9493 -39.8789,26.7226 -79.36719,60.3593 -116.86719,102.6523 -66.20703,74.668 -119.15234,168.4531 -156.875,276.6094 -28.61718,82.039 -46.24609,166.0351 -55.48437,245.8086 -1.04688,-10.9571 -2.04297,-22.1016 -2.97656,-33.4532 -10.91407,-132.8476 -12.20313,-280.0234 3.60937,-420.4961 7.64844,-67.914 19.04688,-131.9687 34.40235,-190.4179 16.12109,-61.3516 36.125,-114.7422 59.65625,-159.78128 26.42968,-50.58984 56.27343,-88.6914 88.13671,-116.42968 18.62891,-16.23047 37.53907,-28.5625 56.23438,-37.80078 23.01172,-11.37891 45.19141,-17.82032 65.12891,-21.19141 z M 1066.6719,1169 c -61.211,34.5508 -138.33596,87.1211 -206.51565,177.9258 -50.94922,67.8594 -90.07813,147.9492 -118.14063,240.5195 -27.75,91.5391 -42.17578,187.0977 -49.23437,277.1758 -9.05859,115.582 -5.98828,224.8164 -1.72656,285.0547 l 46.8789,-2.375 22.65235,-1.1485 c 0.16015,1.1641 0.3125,2.3907 0.47656,3.5235 l 46.60156,-4.918 41.60156,-4.3906 c 0.61329,3.1719 1.25782,6.2851 1.95313,9.3086 l 46.10156,-7.5703 46.09766,-7.5703 c -2.80078,-12.2227 -5.62891,-25.9805 -7.86328,-41.3711 L 973,2100.3555 c 8.45703,-31.5742 19.08984,-80.336 35.5312,-137.3711 16.6485,-57.7344 38.7071,-121.3399 70.5196,-182.7656 27.5078,-53.1094 60.0273,-100.1875 98.3906,-140.3907 51.3594,-53.8164 105.2578,-86.6875 148.2305,-104.8828 -43.1836,18.2813 -100.25,45.0781 -161.8203,94.2031 -45.9024,36.6289 -87.9532,80.6485 -126.2735,132.4219 -36.0781,48.75 -65.59373,100.043 -89.44919,148.9024 8.48828,-32.4961 20.17187,-66.1836 35.09375,-101.336 28.88674,-68.0508 66.89844,-134.4687 102.86714,-191.832 34.2813,-54.6758 69.8086,-105.9453 90.1602,-133.0195 -25.6211,34.0781 -55.5195,68.6054 -102.6992,126.5703 -43.4922,53.4218 -92.48439,116.0547 -133.31643,182.2773 -35.63281,57.7891 -62.92968,114.7969 -79.30859,171.6797 -9.85156,34.1992 -14.89062,65.6367 -16.55078,94.043 -2.86328,-32.8047 -4.69141,-71.5039 -3.64063,-116.0078 1.57422,-66.625 9.58204,-139.4961 26.83594,-212.4258 17.28906,-73.0899 42.16797,-138.9961 73.28125,-194.3516 41.76953,-74.3203 88.28904,-118.0742 125.82034,-141.9023 -37.6328,23.8906 -88.98831,62.3945 -142.07815,134.3476 -39.42969,53.4375 -74.34375,118.1172 -102.45313,191.8399 -24.71093,64.8047 -41.98046,130.9375 -52.69921,193.4609 -0.58985,-15.8398 -1.07422,-31.707 -1.3086,-47.4492 -1.32812,-87.7188 2.87891,-180.7695 19.85547,-270.8047 17.125,-90.8398 45.87891,-171.3203 88.24219,-240.8086 C 933.03906,1261.582 1005.2891,1203.6484 1066.6719,1169"
       id="path4"
       style="display:inline" />
    <path
       fill-rule="nonzero"
       fill="#000000"
       fill-opacity="1"
       d="m 1439.8711,693.48828 c -13.3398,0.76172 -24.4023,7.02344 -34.1406,12.99219 -25.3516,16.03906 -42.3321,37.17969 -61.5313,56.75 -27.7187,29.1914 -55.75,58.23047 -83.2695,87.50781 -17.6602,19.91016 -32.418,41.48047 -39.7383,64.52344 -2.4414,8.61719 -4.3125,17.78906 -0.6797,26.3789 -101.4336,127.25778 -190.7226,259.58988 -262.21483,396.73828 -77.15625,147.5078 -133.64062,300.3945 -168.88281,455.7188 -13.26172,58.1953 -23.58594,116.7304 -31.11719,175.4414 5.94922,1.207 11.83204,2.3867 17.78125,3.6132 18.47266,-145.6718 53.27735,-290.3984 106.73829,-431.7851 50.125,-133.0742 116.58593,-262.9219 196.96489,-388.3359 44.6171,-69.7305 93.4296,-138.1524 145.5898,-205.14068 6.5195,5.17969 17.6406,4.28907 25.6484,1.53125 17.8711,-6.11328 31.5899,-16.76171 44.0508,-27.43359 15,-13.31641 27.5,-27.92969 41.2188,-41.89844 27.1601,-28.60937 54.6406,-57.07812 81.6015,-85.78125 17.5899,-19.82812 32.2578,-41.29687 39.5977,-64.23828 2.6406,-9.5 4.9101,-19.8789 -0.6367,-29.08984 -2.9532,-4.74219 -9.5899,-7.83203 -16.9805,-7.49219"
       id="path5"
       style="display:inline" />
    <path
       fill-rule="nonzero"
       fill="#000000"
       fill-opacity="1"
       d="m 961.12891,85.929688 c -13.92579,2.511718 -24.4961,12.128906 -33.71485,21.218752 -23.91015,24.32031 -38.09375,54.55078 -54.90625,82.91015 -24.09765,42.20313 -48.55469,84.25 -72.42187,126.5625 -15.13282,28.64844 -26.90235,59.1875 -30.58203,90.87891 -1.06641,11.82031 -1.42579,24.30859 3.91015,35.42187 -84.60156,181.83985 -155.51953,369.11719 -206.82812,560.84763 -55.46485,206.25 -88.19141,417.3946 -98.10547,629.4297 -3.76953,79.4531 -4.38672,159.0274 -2.03516,238.5274 6.48438,0.9531 12.89453,1.8711 19.37891,2.8476 -6.07422,-197.2265 5.23437,-395.0117 36.79297,-590.414 29.5,-183.8907 76.78906,-365.28129 139.51953,-542.30083 34.8125,-98.41015 74.26172,-195.53125 117.49609,-291.12109 7.78125,6.22266 19.34375,3.78125 27.30469,-0.80859 17.76562,-10.19141 30.36328,-25.98828 41.62891,-41.66797 13.46875,-19.53125 24.08593,-40.5 36.09765,-60.75 23.61328,-41.3711 47.59375,-82.58203 70.97656,-124.05078 15.0625,-28.53125 26.76172,-58.94922 30.47657,-90.49219 1.11328,-13.01953 1.6875,-27.1875 -5.77344,-38.898438 -3.94531,-6.019531 -11.49219,-9.429687 -19.21484,-8.140624"
       id="path6"
       style="display:inline" />
  </g>
</svg>
