<?xml version="1.0" encoding="UTF-8" standalone="no"?>
<svg
   width="1507.8086"
   height="1964.8236"
   viewBox="0 0 1507.8086 1964.8237"
   version="1.1"
   id="svg13"
   xmlns="http://www.w3.org/2000/svg"
   xmlns:svg="http://www.w3.org/2000/svg">
  <defs
     id="defs13" />
  <g
     id="g14"
     style="display:inline"
     transform="translate(-3703.25,-142.59436)">
    <path
       fill-rule="nonzero"
       fill="#000000"
       fill-opacity="1"
       d="m 4572.3594,544.39062 c -90.5899,134.87891 -232.5977,355.32032 -327.9102,648.62108 -28.8594,-106.9336 -59.0781,-205.90233 -86.6094,-291.32029 -35.2812,-109.5 -64.4609,-192.33985 -81.5781,-244.36329 16.4688,50.03125 42.6602,138.01172 71.4297,248.23047 26,99.58201 54.2188,217.94141 79.168,344.31251 -0.1797,0.6367 -0.3789,1.2578 -0.5703,1.8945 -44.4297,151.6133 -69.8594,301.8008 -79.2383,449.3399 -8.8321,-89.4453 -21.1602,-185.6289 -40.0821,-280.0078 -23.7578,-118.4922 -55.8281,-224.3594 -98.9882,-316.4766 -58.0196,-123.82032 -124.2696,-197.35157 -179.0313,-246.13282 54.7305,48.76172 117.3399,127.43359 166.9102,252.99222 36.8789,93.4101 61.5898,199.7187 77.5,317.0312 15.6523,115.4883 21.5898,233.1211 24.5508,338.0274 1.9296,68.375 2.8906,130.2109 3.7382,183.5703 -7.1992,-26.0508 -15.7382,-54.0313 -25.8398,-83.711 -29.1484,-85.664 -67.6992,-175.125 -114.8398,-262.9882 -47.129,-87.8321 -96.7696,-162.8282 -144.2071,-224.5547 -47.25,-61.461 -86.6015,-102.461 -113.5117,-130.1953 26.6094,27.4218 63.6719,72.6875 105.1602,137.8593 41.8515,65.7266 84.1289,145.2891 122.5586,235.7696 38.6093,90.8984 68.2929,180.8632 90.2109,265.5898 21.8789,84.5781 32.9219,151.543 40.5,199.3867 l 33.6797,-7 9.2617,-1.9258 c 0.09,2.1094 0.1601,4.5547 0.25,6.5821 l 34.1797,-2.0821 19.1406,-1.1601 c 0.4805,3.8008 0.957,7.6406 1.4492,11.3281 l 33.8399,-5.8867 33.8398,-5.8906 c -0.2695,-1.9922 -0.5312,-4.2227 -0.8008,-6.2461 l 18.1992,-1.3985 34.1602,-2.6367 c -3.4375,-58.4492 -10.2695,-167.2734 -6.0195,-300.5976 1.6289,-51.1133 4.8711,-105.1094 10.3789,-160.2071 3.8906,35.3164 7.1914,69.9727 9.8398,103.9258 10.043,128.4961 9.3125,222.918 7.3828,291.6875 l 34.211,1.2578 34.207,1.2578 c 0.012,-0.4375 0.012,-0.9414 0.031,-1.3789 l 7.3515,0.6446 34.1289,3.0039 c 1.0586,-15.8438 1.8086,-32.1524 2.3399,-49.4375 l 21.3086,2.289 c -1.7891,58.4883 -1.4688,107.0703 -0.1797,142.5274 l 34.1992,-1.6328 34.2031,-1.6328 c -2.4101,-66.3047 -6.9023,-178.2969 -2.2109,-319.129 2.7383,-82.2539 8.539,-170.3554 18.7578,-258.7148 8.9531,39.5625 17.0625,82.8438 24.2109,129.0156 11.1094,71.6914 18.8203,143.2344 24.0313,208.5235 7.0273,88.0507 8.5703,151.3789 10.5781,192.6562 l 30.4023,-1.9414 c 0.6407,11.2305 1.3282,21.9688 2.0586,31.8906 l 34.1094,-3.3047 13.4414,-1.3007 c 0.1797,9.2812 0.3789,18.4961 0.6797,27.0664 l 34.1992,-1.5469 34.1992,-1.5508 c -0.02,-0.6484 -0.027,-1.3515 -0.059,-2.0039 L 4755,2100.5273 c -2.1094,-43.7031 -3.5195,-110.121 9.6289,-200.5546 4.4609,-30.6485 10.3828,-62.3164 17.7813,-94.4141 15.8281,41.625 28.0312,81.2148 35.871,119.7695 5.6407,27.7188 8.5391,52.5508 9.5391,75.1485 1.3086,29.5586 -0.7187,53.3125 -2.9492,71.9218 l 67.8203,10.6719 c 2.9102,-24.2226 3.3789,-54.793 -1.582,-90.5508 -3.7696,-27.2031 -10.4297,-55.7109 -20.3203,-85.7148 -17.4297,-52.8945 -42.9102,-104.5781 -72.7891,-156.2109 -0.3398,-0.586 -0.6914,-1.1719 -1.0313,-1.754 5.5704,-19.6601 11.6797,-39.3554 18.3907,-58.9648 11.6289,-34.0117 24.4297,-66.0273 38.0625,-95.6875 3.5586,13.8359 6.8984,27.9766 10,42.4336 18.2773,85.1484 26.8672,172.0937 30.7265,251.7031 3.75,77.4531 2.8907,146.7813 3.0118,189.5391 l 34.2304,-0.1289 23.4883,-0.082 c 0.2617,2.0782 0.5117,4.1836 0.793,6.1915 l 33.8086,-6.1094 33.8203,-6.1055 c -6.1719,-44.7344 -13.1094,-106.9883 -11.4727,-201.7422 1.211,-69.8945 6.8906,-144.7265 16.0821,-223.957 8.9687,-77.3945 20.5781,-152.6641 31.0195,-215.25 13.039,-78.1914 26.25,-148.9297 32.2109,-176.2344 -8.2187,37.6485 -22.289,86.0625 -45.332,172.5195 -16.3594,61.3829 -35.0781,134.504 -51.5391,211.711 -16.6914,78.3164 -29.75,154.6797 -37.25,226.793 -1.2304,11.8203 -2.2695,23.2539 -3.1601,34.3359 -0.711,-6.0234 -1.461,-12.0859 -2.25,-18.2305 -10.6211,-81.9687 -28.0196,-170.9883 -55.4688,-256.457 -7.6289,-23.7695 -15.8125,-46.5156 -24.5,-68.2656 9.25,-17.8086 18.7891,-34.543 28.5391,-50.0977 17.832,-28.4336 35.5508,-51.6562 52.5703,-70.2734 22.3516,-24.4375 42.4414,-39.7696 58.5195,-48.9766 -16.0703,9.1992 -37.0078,22.6992 -61.6484,44.832 -18.7813,16.8633 -38.9414,38.0586 -59.9492,64.6914 -9.1914,11.6485 -18.3438,24.0821 -27.3907,37.2579 -15.9101,-36.9688 -33.4218,-70.8399 -52.4414,-101.6407 -2.6914,-4.3632 -5.3906,-8.6054 -8.0781,-12.7578 6.25,-20.1875 12.918,-40.4219 20.168,-60.6758 41.539,-116.0703 95.3086,-219.4218 158.7422,-311.1914 78.8164,-114.05075 164.0273,-197.53122 230.3867,-252.42966 -66.8086,54.33203 -155,132.51953 -240.7305,242.46096 -68.8281,88.2695 -129.9179,189.0976 -179.6094,305.0625 -5.4882,12.8086 -10.7187,25.6797 -15.8085,38.582 -25.2696,-33.1758 -49.75,-58.0625 -71.3321,-77.4844 19.1524,-108.6328 44.9531,-208.0625 76.1836,-297.7422 38.1602,-109.53901 79.8399,-191.16011 113.0586,-245.50776 -33.4219,54.66797 -78.25,132.82812 -122.8594,240.61716 -44.9023,108.4805 -83.4218,232.2305 -112.2109,372.1367 -28.6211,139.0938 -44.0703,277.1172 -50.2695,405.4141 0,0.055 0,0.1055 0,0.1602 -8.9493,-44.0469 -19.3516,-89.5508 -31.1602,-134.5586 -16.1797,-61.6446 -33.6211,-117.1875 -51.832,-165.4336 1.4531,-10.8633 2.9531,-21.7227 4.5429,-32.5547 5.8086,-39.4219 12.4297,-77.2188 19.7969,-113.3086 8.211,-21.9531 16.9531,-42.4063 26.25,-61.1484 16.0938,-32.4141 32.9727,-58.0039 50.2422,-77.8633 21.1289,-24.293 41.6094,-38.5117 59.2578,-46.5938 -17.6992,7.8125 -39.039,20.2032 -62.4883,42.5313 -18.7695,17.8789 -37.8906,41.2187 -57.0195,71.4414 10.3203,-41.1211 21.7891,-79.4727 34.3984,-114.6602 17.0118,-47.4218 35.1797,-86.6523 53.8711,-118.8789 24.5313,-42.31248 48.5508,-70.13279 68.8711,-88.22264 -20.289,18.08203 -45.5117,44.3125 -72.7695,85.03124 -20.7812,31.0508 -41.7695,69.0313 -62.2617,115.6406 -27.9102,63.4805 -52.6094,137.8399 -73.7695,221.4063 -6.3594,14.9023 -12.5391,30.4453 -18.5391,46.5781 -4.75,-10.0976 -9.4024,-19.4726 -13.9297,-28.1172 -14.4609,-27.5586 -26.7617,-46.1328 -36.1406,-59.5625 9.3281,13.3594 20.3086,33.3399 31.9101,62.1289 4.5782,11.3672 9.1602,23.9102 13.7305,37.6485 -6.2812,17.4336 -12.3711,35.4922 -18.25,54.2226 -25.7031,81.8555 -45.3125,168.3867 -59.9023,246.1094 -0.8672,-82.3516 -1.1172,-173.3594 4.2617,-259.6172 5.9609,-95.4453 18.4101,-179.539 41.1211,-250.7969 12.8398,-40.3203 28.1875,-74.0312 45.5078,-102.2617 22.7305,-37.0586 47.3086,-62.0898 69.1406,-78.7578 -21.7695,16.6172 -47.4922,39.9883 -72.9492,75.4297 -19.4414,27.0508 -37.7109,59.6992 -54.1719,99.6094 -29.168,70.7343 -48.9609,155.2109 -62.6484,252.2304 -13.3321,94.4454 -20.0117,195.1368 -24.9727,282.6641 -0.3789,6.6992 -0.6484,11.3359 -1.0195,17.8789 -1.8203,-16.5664 -3.8281,-33.6211 -6.1172,-51.2617 -10.6602,-82.3203 -25.582,-168.3867 -44.2617,-257.375 0.3086,-1.6602 0.6094,-3.3281 0.9297,-4.9883 21.4922,-111.8008 52.8515,-210.5195 94.789,-291.1797 23.7735,-45.7383 49.6133,-83.1211 76.5899,-113.3711 35.4219,-39.73826 70.5429,-64.62888 100.2617,-80.09763 -29.6719,15.44922 -65.6602,38.48047 -103.5117,76.05863 -28.8594,28.6523 -57.4102,64.3711 -84.6875,109 -39.8008,65.1015 -73.211,143.25 -100.2696,232.0898 -6.5429,-28.6484 -13.4414,-57.5547 -20.7031,-86.7226 -2.8594,-11.4766 -5.7773,-22.7579 -8.6875,-34.0899 75.9492,-317.85546 215.8281,-568.77734 311.4688,-711.17578 z m 112.2187,603.43748 c 1.3125,-0.5664 2.6524,-1.1875 3.9102,-1.707 -1.2774,0.5273 -2.5899,1.1094 -3.9102,1.707 z m 18.8828,157.0352 c 21.5703,21.0312 45,49.2773 67.6993,86.2812 -27.0821,69.9336 -48.5899,141.0977 -65.2813,212.6094 -12.7578,-20.043 -23.6484,-37.6328 -32.6875,-53.0859 4.1367,-55.5977 10.0273,-112.1875 18.1289,-169.3008 3.6797,-25.9844 7.7383,-51.4883 12.1406,-76.5039 z m -460.2695,31.9375 c 8.0977,45.2461 15.4375,89.668 21.8672,133.1094 -23.8399,100.4062 -38.5469,202.7304 -47.0078,296.0117 -4.6211,50.9922 -7.3516,98.1445 -8.7696,140.5508 -3.9531,-56.4766 -6.3398,-118.6993 -5.5703,-185.7539 1.418,-124.6211 13.5977,-252.6836 39.4805,-383.918 z m 553.3086,100.293 c 0.6289,1.2851 1.2812,2.5117 1.9102,3.8125 17.8515,36.6289 33.1601,76.9296 46.0117,120.6171 -21.0313,33.4571 -41.3203,70.9297 -60.1836,112.0196 -4.7578,10.3711 -9.3399,20.8203 -13.7696,31.3164 -8.0781,-13.0235 -16.1796,-25.8203 -24.1406,-38.2383 10.9727,-74.3125 27.0117,-151.4648 50.1719,-229.5273 z m -124.1406,124.6328 c 7.1289,15.7695 15.6914,34.2226 27,58.0039 0.6211,1.3086 1.3398,2.8125 1.9687,4.1406 -9.9492,45.0703 -18.0469,90.2383 -24.4492,135.2812 -4.3984,31.004 -7.8672,61.2696 -10.6406,90.625 -0.5274,-22.2421 -0.9375,-45.0742 -1.0196,-68.9218 -0.2304,-70.2578 1.8321,-143.7266 7.1407,-219.1289 z m 68.4218,145.8007 c 5.0899,11.1094 10.1407,22.3399 15.0899,33.6133 -9.4922,24.8008 -18.0508,49.7422 -25.6602,74.5625 2.4805,-35.0664 5.9375,-71.2265 10.5703,-108.1758"
       id="path7"
       style="display:inline" />
    <path
       fill-rule="nonzero"
       fill="#000000"
       fill-opacity="1"
       d="m 4538,901.5 c 14.5391,2.71094 25.0508,9.30078 34.1602,15.46094 23.5898,16.41015 36.4804,35.41797 52.2812,53.57031 22.5273,26.92969 45.457,53.79685 67.75,80.76955 14,18.168 24.3086,37.1601 25.9883,56.0976 0.3008,7.0313 -0.1914,14.4024 -6.6094,20.4532 76.7695,114.3281 138.6914,230.6172 179.5586,347.789 44.2617,126.0703 64.1328,252.9883 59.8203,378.4024 -1.5586,47 -6.4609,93.7929 -14.5,140.2734 -6.918,-0.016 -13.7578,-0.047 -20.6875,-0.047 20.1875,-115.2968 22.0274,-232.4687 2.2969,-350.039 -18.3594,-110.625 -55.6992,-221.3633 -109.6797,-330.9063 -29.9492,-60.8945 -64.8789,-121.4453 -103.9297,-181.4258 -8.6601,2.961 -20.7187,0.5 -28.8203,-2.9101 -18.0703,-7.5586 -30.2891,-17.957 -41.0977,-28.168 -12.8828,-12.6719 -22.6523,-25.9297 -33.9414,-38.8906 -22.0781,-26.3984 -44.5586,-52.7305 -66.3906,-79.16798 -13.9375,-18.08985 -24.1875,-37 -25.9101,-55.85156 -0.2696,-7.75 0.1093,-16.1211 8.8203,-22.33985 4.5898,-3.1914 12.8125,-4.51172 20.8906,-3.07031"
       id="path8"
       style="display:inline" />
    <path
       fill-rule="nonzero"
       fill="#000000"
       fill-opacity="1"
       d="m 5085.5508,142.62891 c -13.3008,1.01171 -24.3321,9.33203 -34.0313,17.28125 -25.2695,21.32031 -42.1797,49.44921 -61.3203,75.46875 -27.6211,38.83203 -55.5586,77.46093 -82.9805,116.41015 -17.6093,26.48047 -32.3085,55.16016 -39.6093,85.80078 -2.4375,11.46875 -4.3008,23.67188 -0.6797,35.08985 -101.0781,169.28125 -190.0703,345.28906 -261.3203,527.69921 -76.8985,196.1992 -133.1875,399.5508 -168.3086,606.1445 -13.2227,77.4063 -23.5,155.2657 -31.0117,233.3555 5.9296,1.6055 11.789,3.168 17.7226,4.8008 18.4102,-193.7539 53.0899,-386.25 106.3672,-574.3086 49.9609,-177 116.1914,-349.69923 196.3008,-516.51954 44.4687,-92.75 93.1094,-183.75 145.1015,-272.86328 6.4883,6.90234 17.5704,5.72266 25.5586,2.04297 17.8086,-8.12109 31.4805,-22.29297 43.8985,-36.47266 14.9414,-17.73047 27.4023,-37.14843 41.082,-55.73828 27.0703,-38.05859 54.4609,-75.92187 81.3203,-114.08984 17.5313,-26.3711 32.1485,-54.94141 39.4688,-85.44141 2.6289,-12.64062 4.8906,-26.44922 -0.6407,-38.69922 -2.9375,-6.30078 -9.5585,-10.41797 -16.9179,-9.96093"
       id="path9"
       style="display:inline" />
    <path
       fill-rule="nonzero"
       fill="#000000"
       fill-opacity="1"
       d="m 4076.9609,375.87109 c 13.6993,2.57032 23.0586,10.96875 31.1289,18.87891 20.8204,21.12891 31.0586,46.87109 44.1914,71.14062 18.6094,36.08985 37.6172,72.05079 55.9883,108.21875 11.4024,24.44922 19.1602,50.3711 18.6094,76.96875 -0.5195,9.92188 -1.8281,20.3711 -8.6992,29.46094 60.832,154.83203 107.1484,313.72266 133.1015,475.67974 28.1993,174.2265 32.8204,351.7656 14.3399,529.2734 -6.8711,66.5156 -16.9414,133.0312 -29.9805,199.3789 -6.6719,0.5742 -13.25,1.125 -19.9101,1.7227 32.5976,-164.5938 47.7695,-330.2461 42.2109,-494.5899 -5.043,-154.6523 -28.332,-307.832 -67.7695,-457.88281 -21.8711,-83.41015 -48.5821,-165.91015 -79.3125,-247.25 -8.668,4.9375 -20,2.5 -27.3985,-1.60937 -16.539,-9.11328 -27.1093,-22.74219 -36.3515,-36.23047 -10.9492,-16.78125 -18.8399,-34.66016 -28.2188,-51.99219 -18.2422,-35.36719 -36.8711,-70.61719 -54.8593,-106.07031 -11.3516,-24.34766 -19.0625,-50.16016 -18.5704,-76.64063 0.6289,-10.91796 1.9493,-22.77734 11.0508,-32.30859 4.7774,-4.89844 12.8399,-7.48828 20.4492,-6.14844"
       id="path10"
       style="display:inline" />
  </g>
</svg>
