<?xml version="1.0" encoding="UTF-8" standalone="no"?>
<svg
   width="1041.026"
   height="2031.5844"
   viewBox="0 0 1041.026 2031.5844"
   version="1.1"
   id="svg13"
   xmlns="http://www.w3.org/2000/svg"
   xmlns:svg="http://www.w3.org/2000/svg">
  <defs
     id="defs13" />
  <g
     id="g13"
     style="display:inline"
     transform="translate(-1524.8594,-110.39231)">
    <path
       fill-rule="nonzero"
       fill="#000000"
       fill-opacity="1"
       d="m 1905.1602,349.35937 c -24.6993,44.14063 -51.4414,103.26172 -72.1016,184.03907 -15.75,61.58984 -27.0586,132.14062 -32.6484,214.04297 -9.9219,145.26953 -0.6094,306.45699 20.0781,482.85939 19.6015,167.1445 50.0703,349.9297 71.9219,491.3242 7.9179,51.1992 14.5195,96.0078 20.1679,136.3945 -0.5273,18.2657 -0.9765,36.3321 -1.2578,53.8907 -0.09,5.9023 -0.1289,11.5859 -0.1992,17.3828 -4.8906,-36.2617 -11.1094,-74.8242 -18.9922,-115.668 -19.457,-100.8867 -45.957,-201.2617 -77.7578,-305.3711 -35.0625,-114.7617 -77.8516,-237.2578 -110.1211,-333.2656 -35.1094,-104.418 -58.7891,-180.08986 -75.0117,-242.10939 25.1719,96.22269 27.1328,105.51169 65.5625,247.64059 27.1875,100.543 61.3203,225.2618 88.8476,343.6836 24.793,106.6602 44.0508,206.6875 57.1524,305.5977 11.0586,83.543 16.1289,154.4297 18.3594,214.8867 -25.9883,-100.6641 -68.6993,-241.5156 -123.6719,-373.2734 -76.668,-183.7578 -150.1992,-290.6719 -210.6289,-374.6875 25.4297,35.3437 57.9101,88.6054 90.9687,158.3828 33.4532,70.6015 63.3516,149.1211 90.3633,236.7851 53.3203,173.0625 86.2188,354.7852 107.3281,450.0743 l 31.3399,-13.4219 15.8594,-6.793 c 0.031,6.793 0.082,13.6641 0.082,20.1289 l 32.789,0.09 v 0 h 21.1211 c 0,0 0,0 0,0 h 11.668 c 0,-0.4063 0,-0.8477 0,-1.2618 l 15.4609,-1.6718 c 0.051,0.9609 0.1211,1.9726 0.1719,2.9336 l 32.7071,-3.2227 2.4531,-0.2383 c 0.078,1.1406 0.1484,2.3477 0.2383,3.4649 l 32.6015,-4.918 8.2071,-1.2383 26.0703,2.7344 32.6992,3.4219 c 3.0898,-57.0977 9.9336,-141.8204 35.5703,-244.5196 19.1523,-76.7265 46.9023,-155.3672 84.1328,-229.1328 37.2578,-73.7969 80.3477,-135.3984 126.168,-182.5859 61.3906,-63.2227 118.5625,-91.2344 159.6797,-101.6328 -41.0782,10.3867 -99.3985,30.9023 -166.8477,86.6328 -50.293,41.5625 -99.7812,98.0469 -144.75,169.3672 -44.8906,71.1797 -80.8398,150.1211 -107.1914,229.9336 -10.3398,31.3437 -18.7695,61.5586 -25.6602,90.2929 0.6993,-24.9687 2.0313,-51.8008 4.211,-80.5312 6.3711,-83.9805 19.3711,-173.4258 39.7578,-258.4453 20.4023,-85.0118 46.043,-156.5625 74.4531,-209.7696 16.1485,-30.2461 32.4492,-53.2109 48.3789,-70.039 19.5508,-20.6485 37.5313,-30.9688 52.3985,-35.4336 -14.8594,4.1523 -33.4375,12.1836 -54.9688,30.1484 -17.5898,14.6758 -36.332,35.3047 -55.7187,63.7266 -34.1524,50.0742 -66.8828,119.4375 -95.0235,204.5586 -28.0273,84.789 -48.6172,176.4531 -61.2968,264.0859 -2.793,19.2383 -5.0899,37.7852 -7.0508,55.7344 -5.6797,-35.711 -12.6094,-75.4844 -20.5508,-118.8242 -1.8203,-66.8555 -2.2383,-137.1797 0.012,-208.6328 2.9805,-94.9375 10.3594,-183.3321 22.6484,-264.4258 16.4102,-108.2891 39.1993,-187.0391 59.4493,-238.6719 -20.5782,52.4531 -47.4883,126.0703 -71.9805,234.1016 -18.1992,80.2968 -32.4805,168.3711 -42.7695,264.6211 -1.0196,9.5898 -1.9805,19.1718 -2.9102,28.746 -24.7578,-124.5507 -53.1484,-266.125 -74.4375,-399.5781 -27.4297,-171.9804 -43.2695,-329.93748 -39.3633,-473.05858 2.2032,-80.82031 10.5938,-151.28906 24.0938,-213.24218 17.7265,-81.33985 43.0078,-141.82813 67.7383,-186.03907 z m 352.1289,956.74613 c 1.0507,-0.293 2.1406,-0.6172 3.1523,-0.875 -1.0312,0.2617 -2.0898,0.5547 -3.1523,0.875"
       id="path11"
       style="display:inline" />
    <path
       fill-rule="nonzero"
       fill="#000000"
       fill-opacity="1"
       d="m 2548.2188,320.80859 c -11.5391,1.04297 -21.1172,9.61328 -29.5469,17.80078 -21.9414,21.98047 -36.6328,50.96875 -53.2617,77.78125 -23.9805,40.01954 -48.25,79.82813 -72.0704,119.96094 -15.289,27.28906 -28.0585,56.84766 -34.3984,88.42969 -2.1133,11.82031 -3.7305,24.39062 -0.582,36.16016 -87.8008,174.44921 -165.0899,355.82809 -226.961,543.82029 -66.789,202.1914 -115.6796,411.75 -146.1796,624.6563 -11.4805,79.7695 -20.418,160.0078 -26.9375,240.4804 5.1484,1.6563 10.25,3.2657 15.3906,4.9493 15.9883,-199.6719 46.1172,-398.0469 92.3867,-591.8516 43.3906,-182.4023 100.9102,-360.3867 170.4805,-532.29688 38.6328,-95.57813 80.8828,-189.3711 126.0195,-281.1875 5.6406,7.10937 15.2695,5.8789 22.2031,2.09765 15.4688,-8.37109 27.3477,-22.96875 38.1289,-37.58984 12.9805,-18.25781 23.8008,-38.28906 35.6797,-57.44141 23.5078,-39.21875 47.3008,-78.22656 70.6289,-117.57812 15.2305,-27.17188 27.9219,-56.62109 34.2813,-88.05078 2.2812,-13.01953 4.25,-27.25781 -0.5586,-39.8711 -2.5508,-6.5 -8.3008,-10.73828 -14.7031,-10.26953"
       id="path12"
       style="display:inline" />
    <path
       fill-rule="nonzero"
       fill="#000000"
       fill-opacity="1"
       d="m 2322.7305,111.03906 c -14.2422,3.83203 -24.5899,14.60938 -33.5586,24.74219 -23.2422,27.00781 -36.0625,59.19922 -51.711,89.69922 -22.3398,45.32031 -45.0703,90.50781 -67.1601,135.91015 -13.9024,30.64844 -24.211,62.92969 -26.0899,95.66016 -0.3711,12.17969 0.01,24.98047 6.1993,35.84766 -76.3789,193.52343 -138.3008,391.36328 -179.6602,591.98046 -44.7891,215.8477 -65.7695,434.6328 -63.1211,652.2734 0.9414,81.5586 5.1406,162.961 12.4102,244.0118 6.7617,0.3906 13.4414,0.75 20.1992,1.164 -18.2695,-201.0625 -18.6172,-404.2617 2.1133,-606.8554 19.3086,-190.6329 57.1484,-380.32426 111.2265,-566.94145 29.9922,-103.74219 64.8633,-206.58203 103.7422,-308.19141 8.418,5.66016 20.2188,2.1211 28.168,-3.30078 17.75,-12.00781 29.8125,-29.30078 40.5,-46.34765 12.7305,-21.17969 22.4336,-43.57032 33.6211,-65.36329 21.8906,-44.41796 44.1601,-88.70703 65.8125,-133.20703 13.8398,-30.51953 24.0781,-62.67187 26,-95.25 0.3594,-13.41015 0.09,-27.94922 -8.3438,-39.24218 -4.4375,-5.80078 -12.4492,-8.59766 -20.3476,-6.58985"
       id="path13"
       style="display:inline" />
  </g>
</svg>
