<?xml version="1.0" encoding="UTF-8"?>
<svg xmlns="http://www.w3.org/2000/svg" xmlns:xlink="http://www.w3.org/1999/xlink" width="5250" height="2250" viewBox="0 0 5250 2250">
<path fill-rule="nonzero" fill="rgb(100%, 100%, 100%)" fill-opacity="1" d="M 27.582031 19.609375 L 5228.199219 19.609375 L 5228.199219 2232.542969 L 27.582031 2232.542969 L 27.582031 19.609375 "/>
<path fill-rule="nonzero" fill="rgb(0%, 0%, 0%)" fill-opacity="1" d="M 3605.53125 218.378906 C 3592.570312 219.421875 3581.808594 228 3572.351562 236.199219 C 3547.71875 258.191406 3531.21875 287.199219 3512.558594 314.03125 C 3485.628906 354.070312 3458.390625 393.910156 3431.648438 434.078125 C 3414.480469 461.390625 3400.148438 490.960938 3393.03125 522.570312 C 3390.660156 534.390625 3388.839844 546.96875 3392.371094 558.75 C 3293.808594 733.320312 3207.039062 914.828125 3137.570312 1102.949219 C 3062.601562 1305.28125 3007.710938 1514.988281 2973.46875 1728.039062 C 2960.578125 1807.867188 2950.550781 1888.160156 2943.230469 1968.691406 C 2949.011719 1970.347656 2954.730469 1971.960938 2960.511719 1973.644531 C 2978.460938 1773.832031 3012.28125 1575.316406 3064.230469 1381.378906 C 3112.929688 1198.851562 3177.519531 1020.738281 3255.621094 848.710938 C 3298.980469 753.058594 3346.410156 659.210938 3397.089844 567.320312 C 3403.429688 574.441406 3414.230469 573.210938 3422.019531 569.429688 C 3439.378906 561.050781 3452.71875 546.441406 3464.820312 531.808594 C 3479.390625 513.53125 3491.539062 493.5 3504.878906 474.328125 C 3531.269531 435.078125 3557.980469 396.039062 3584.171875 356.671875 C 3601.261719 329.480469 3615.519531 300.011719 3622.648438 268.558594 C 3625.210938 255.53125 3627.421875 241.28125 3622.03125 228.660156 C 3619.160156 222.148438 3612.699219 217.910156 3605.53125 218.378906 "/>
<path fill-rule="nonzero" fill="rgb(0%, 0%, 0%)" fill-opacity="1" d="M 2637.699219 513.648438 C 2640.628906 515.398438 2643.648438 517.339844 2646.648438 519.230469 C 2643.640625 517.289062 2640.648438 515.410156 2637.699219 513.648438 Z M 2646.648438 519.230469 C 2681.171875 541.46875 2719.078125 575.800781 2754.109375 628.808594 C 2783.101562 672.691406 2808.480469 726.769531 2829.351562 793.109375 C 2847.929688 852.160156 2862.199219 918.511719 2872.71875 992.179688 C 2882.75 1062.351562 2889.078125 1137 2892.828125 1214.859375 C 2900.441406 1372.691406 2897.171875 1542.121094 2894.558594 1686.472656 C 2890.75 1897.195312 2890.109375 2016.164062 2898.539062 2119.148438 L 2936.308594 2112.285156 L 2964.390625 2107.1875 L 2986.640625 2111.625 L 3024.351562 2119.148438 C 3024.621094 2116.097656 3024.859375 2113.121094 3025.121094 2110.101562 L 3054.351562 2119.148438 C 3064.328125 2047.632812 3075.410156 1931.023438 3092.378906 1800.9375 C 3105.25 1702.285156 3121.859375 1598.664062 3147.429688 1505.417969 C 3159.898438 1459.953125 3174.261719 1417.761719 3191.058594 1379.46875 C 3208.691406 1339.273438 3228.53125 1304.414062 3250.839844 1274.820312 C 3275.898438 1241.558594 3303.03125 1216.351562 3331.449219 1197.789062 C 3368.710938 1173.449219 3405.699219 1162.261719 3436.761719 1158.050781 C 3405.769531 1162.25 3368.5 1170.441406 3329.511719 1190.398438 C 3299.75 1205.628906 3270.160156 1227.109375 3241.5 1257.285156 C 3215.949219 1284.191406 3192.140625 1316.953125 3170.019531 1356.097656 C 3148.949219 1393.382812 3130.128906 1435.175781 3113.148438 1480.839844 C 3084.949219 1556.660156 3062.949219 1640.21875 3045.039062 1722.027344 C 3045.460938 1713.433594 3045.789062 1705.917969 3046.238281 1696.890625 C 3053.300781 1553.921875 3063.988281 1389.976562 3086.851562 1237.601562 C 3098.058594 1162.890625 3111.988281 1092.03125 3129.488281 1026.648438 C 3147.859375 958 3169.601562 897.488281 3195.078125 845.339844 C 3223.71875 786.738281 3255.828125 741.289062 3290.519531 706.839844 C 3332.449219 665.191406 3375.261719 642.550781 3413.121094 630.71875 C 3375.261719 642.101562 3331.808594 661.878906 3287.699219 700.109375 C 3251.140625 731.800781 3215.988281 774.488281 3183.300781 831.46875 C 3154.179688 882.199219 3128.339844 941.949219 3105.53125 1010.71875 C 3083.808594 1076.179688 3065.578125 1147.550781 3050.078125 1223.101562 C 3018.429688 1377.277344 2999.328125 1543.570312 2985.53125 1687.082031 C 2976.578125 1780.203125 2969.390625 1862.425781 2963.511719 1931.78125 C 2960.941406 1870.324219 2958.648438 1795.054688 2955.621094 1685.816406 C 2951.628906 1541.78125 2946.601562 1368.835938 2930.648438 1208.648438 C 2922.761719 1129.421875 2912.289062 1053.570312 2898.160156 982.53125 C 2883.308594 907.898438 2864.96875 841.390625 2842.691406 782.828125 C 2817.671875 717.050781 2789 664.820312 2757.789062 623.078125 C 2720.148438 572.75 2681.238281 541.03125 2646.648438 519.230469 Z M 3413.121094 630.71875 C 3416.390625 629.738281 3419.691406 628.71875 3422.871094 627.851562 C 3419.660156 628.71875 3416.398438 629.699219 3413.121094 630.71875 "/>
<path fill-rule="nonzero" fill="rgb(0%, 0%, 0%)" fill-opacity="1" d="M 875.378906 802.21875 C 855.492188 805.578125 833.0625 811.410156 809.234375 821.851562 C 789.851562 830.339844 769.773438 841.78125 749.46875 857.191406 C 714.683594 883.601562 680.714844 920.539062 649.203125 970.769531 C 621.167969 1015.460938 596.226562 1068.820312 574.855469 1130.578125 C 554.507812 1189.378906 537.996094 1254.0625 525.234375 1322.851562 C 498.878906 1464.894531 490.160156 1615.171875 492.898438 1751.078125 C 493.21875 1766.886719 493.734375 1782.234375 494.335938 1797.363281 C 481.144531 1724.347656 470.222656 1648.148438 459.757812 1567.058594 C 446.59375 1465.0625 435.195312 1365.878906 423.316406 1284.128906 C 416.386719 1236.441406 409.695312 1196.621094 402.726562 1161.210938 C 393.550781 1114.558594 385.296875 1082.710938 378.503906 1057.789062 C 385.132812 1082.109375 391.3125 1115.601562 396.210938 1161.910156 C 399.953125 1197.320312 402.714844 1237.769531 404.835938 1285.382812 C 408.480469 1367.394531 409.777344 1466.78125 412.898438 1569.726562 C 416.105469 1675.328125 421.1875 1775.789062 432.164062 1870.839844 C 404.191406 1815.386719 369.164062 1760.40625 329.441406 1706.582031 C 279.410156 1638.789062 225.785156 1577.992188 180.265625 1528.980469 C 119.972656 1464.066406 76.367188 1421.230469 55.21875 1396.617188 C 71.195312 1415.210938 117.828125 1473.347656 165.066406 1537.980469 C 203.589844 1590.683594 248.355469 1655.664062 288.335938 1725.808594 C 329.175781 1797.457031 361.242188 1867.789062 381.898438 1936.222656 C 383.449219 1941.371094 384.890625 1946.414062 386.277344 1951.410156 C 359.34375 1902.6875 322.648438 1856.558594 280.714844 1813.34375 C 235.769531 1767.019531 187.707031 1727.015625 148.488281 1695.945312 C 127.046875 1678.960938 104.875 1662.03125 89.96875 1650.484375 C 68.433594 1633.804688 54.503906 1622.570312 45.253906 1613.621094 C 52.796875 1620.917969 68.320312 1636.855469 85.195312 1654.3125 C 98.242188 1667.808594 116.589844 1686.882812 134.820312 1706.558594 C 167.796875 1742.140625 207.398438 1787.070312 242.398438 1836.320312 C 278.296875 1886.835938 305.84375 1936.878906 322.542969 1986.488281 C 331.941406 2014.40625 337.171875 2040.015625 339.457031 2063.621094 C 342.453125 2094.550781 340.195312 2120.019531 337.332031 2140.195312 L 383.953125 2144.933594 L 430.582031 2149.675781 C 430.753906 2148.472656 430.902344 2147.242188 431.058594 2146.011719 L 453.6875 2147.203125 L 493.121094 2149.28125 C 493.171875 2149.410156 493.21875 2149.546875 493.269531 2149.675781 L 494.433594 2149.351562 L 500.558594 2149.675781 C 500.605469 2149.007812 500.632812 2148.296875 500.675781 2147.621094 L 536.964844 2137.550781 C 537.953125 2141.6875 538.941406 2145.808594 539.921875 2149.675781 L 585.839844 2141.351562 L 587.101562 2141.121094 C 587.824219 2144.027344 588.546875 2146.945312 589.269531 2149.675781 L 635.09375 2140.960938 L 680.910156 2132.25 C 666.28125 2077.128906 643.988281 1982.671875 640.320312 1854.78125 C 637.5625 1758.789062 645.769531 1651.53125 672.191406 1545.753906 C 698.765625 1439.375 741.179688 1344.945312 798.785156 1268.3125 C 831.476562 1224.820312 867.277344 1189.421875 904.652344 1160.96875 C 953.75 1123.609375 1002.449219 1100.671875 1043.519531 1086.769531 C 1002.53125 1100.648438 952.738281 1121.660156 900.414062 1156.71875 C 860.535156 1183.441406 821.046875 1217.078125 783.546875 1259.371094 C 717.339844 1334.039062 664.394531 1427.824219 626.671875 1535.980469 C 598.054688 1618.019531 580.425781 1702.015625 571.1875 1781.789062 C 570.140625 1770.832031 569.144531 1759.6875 568.210938 1748.335938 C 557.296875 1615.488281 556.007812 1468.3125 571.820312 1327.839844 C 579.46875 1259.925781 590.867188 1195.871094 606.222656 1137.421875 C 622.34375 1076.070312 642.347656 1022.679688 665.878906 977.640625 C 692.308594 927.050781 722.152344 888.949219 754.015625 861.210938 C 772.644531 844.980469 791.554688 832.648438 810.25 823.410156 C 833.261719 812.03125 855.441406 805.589844 875.378906 802.21875 Z M 1066.671875 1169 C 1005.460938 1203.550781 928.335938 1256.121094 860.15625 1346.925781 C 809.207031 1414.785156 770.078125 1494.875 742.015625 1587.445312 C 714.265625 1678.984375 699.839844 1774.542969 692.78125 1864.621094 C 683.722656 1980.203125 686.792969 2089.4375 691.054688 2149.675781 L 737.933594 2147.300781 L 760.585938 2146.152344 C 760.746094 2147.316406 760.898438 2148.542969 761.0625 2149.675781 L 807.664062 2144.757812 L 849.265625 2140.367188 C 849.878906 2143.539062 850.523438 2146.652344 851.21875 2149.675781 L 897.320312 2142.105469 L 943.417969 2134.535156 C 940.617188 2122.3125 937.789062 2108.554688 935.554688 2093.164062 L 973 2100.355469 C 981.457031 2068.78125 992.089844 2020.019531 1008.53125 1962.984375 C 1025.179688 1905.25 1047.238281 1841.644531 1079.050781 1780.21875 C 1106.558594 1727.109375 1139.078125 1680.03125 1177.441406 1639.828125 C 1228.800781 1586.011719 1282.699219 1553.140625 1325.671875 1534.945312 C 1282.488281 1553.226562 1225.421875 1580.023438 1163.851562 1629.148438 C 1117.949219 1665.777344 1075.898438 1709.796875 1037.578125 1761.570312 C 1001.5 1810.320312 971.984375 1861.613281 948.128906 1910.472656 C 956.617188 1877.976562 968.300781 1844.289062 983.222656 1809.136719 C 1012.109375 1741.085938 1050.121094 1674.667969 1086.089844 1617.304688 C 1120.371094 1562.628906 1155.898438 1511.359375 1176.25 1484.285156 C 1150.628906 1518.363281 1120.730469 1552.890625 1073.550781 1610.855469 C 1030.058594 1664.277344 981.066406 1726.910156 940.234375 1793.132812 C 904.601562 1850.921875 877.304688 1907.929688 860.925781 1964.8125 C 851.074219 1999.011719 846.035156 2030.449219 844.375 2058.855469 C 841.511719 2026.050781 839.683594 1987.351562 840.734375 1942.847656 C 842.308594 1876.222656 850.316406 1803.351562 867.570312 1730.421875 C 884.859375 1657.332031 909.738281 1591.425781 940.851562 1536.070312 C 982.621094 1461.75 1029.140625 1417.996094 1066.671875 1394.167969 C 1029.039062 1418.058594 977.683594 1456.5625 924.59375 1528.515625 C 885.164062 1581.953125 850.25 1646.632812 822.140625 1720.355469 C 797.429688 1785.160156 780.160156 1851.292969 769.441406 1913.816406 C 768.851562 1897.976562 768.367188 1882.109375 768.132812 1866.367188 C 766.804688 1778.648438 771.011719 1685.597656 787.988281 1595.5625 C 805.113281 1504.722656 833.867188 1424.242188 876.230469 1354.753906 C 933.039062 1261.582031 1005.289062 1203.648438 1066.671875 1169 "/>
<path fill-rule="nonzero" fill="rgb(0%, 0%, 0%)" fill-opacity="1" d="M 1439.871094 693.488281 C 1426.53125 694.25 1415.46875 700.511719 1405.730469 706.480469 C 1380.378906 722.519531 1363.398438 743.660156 1344.199219 763.230469 C 1316.480469 792.421875 1288.449219 821.460938 1260.929688 850.738281 C 1243.269531 870.648438 1228.511719 892.21875 1221.191406 915.261719 C 1218.75 923.878906 1216.878906 933.050781 1220.511719 941.640625 C 1119.078125 1068.898438 1029.789062 1201.230469 958.296875 1338.378906 C 881.140625 1485.886719 824.65625 1638.773438 789.414062 1794.097656 C 776.152344 1852.292969 765.828125 1910.828125 758.296875 1969.539062 C 764.246094 1970.746094 770.128906 1971.925781 776.078125 1973.152344 C 794.550781 1827.480469 829.355469 1682.753906 882.816406 1541.367188 C 932.941406 1408.292969 999.402344 1278.445312 1079.78125 1153.03125 C 1124.398438 1083.300781 1173.210938 1014.878906 1225.371094 947.890625 C 1231.890625 953.070312 1243.011719 952.179688 1251.019531 949.421875 C 1268.890625 943.308594 1282.609375 932.660156 1295.070312 921.988281 C 1310.070312 908.671875 1322.570312 894.058594 1336.289062 880.089844 C 1363.449219 851.480469 1390.929688 823.011719 1417.890625 794.308594 C 1435.480469 774.480469 1450.148438 753.011719 1457.488281 730.070312 C 1460.128906 720.570312 1462.398438 710.191406 1456.851562 700.980469 C 1453.898438 696.238281 1447.261719 693.148438 1439.871094 693.488281 "/>
<path fill-rule="nonzero" fill="rgb(0%, 0%, 0%)" fill-opacity="1" d="M 961.128906 85.929688 C 947.203125 88.441406 936.632812 98.058594 927.414062 107.148438 C 903.503906 131.46875 889.320312 161.699219 872.507812 190.058594 C 848.410156 232.261719 823.953125 274.308594 800.085938 316.621094 C 784.953125 345.269531 773.183594 375.808594 769.503906 407.5 C 768.4375 419.320312 768.078125 431.808594 773.414062 442.921875 C 688.8125 624.761719 617.894531 812.039062 566.585938 1003.769531 C 511.121094 1210.019531 478.394531 1421.164062 468.480469 1633.199219 C 464.710938 1712.652344 464.09375 1792.226562 466.445312 1871.726562 C 472.929688 1872.679688 479.339844 1873.597656 485.824219 1874.574219 C 479.75 1677.347656 491.058594 1479.5625 522.617188 1284.160156 C 552.117188 1100.269531 599.40625 918.878906 662.136719 741.859375 C 696.949219 643.449219 736.398438 546.328125 779.632812 450.738281 C 787.414062 456.960938 798.976562 454.519531 806.9375 449.929688 C 824.703125 439.738281 837.300781 423.941406 848.566406 408.261719 C 862.035156 388.730469 872.652344 367.761719 884.664062 347.511719 C 908.277344 306.140625 932.257812 264.929688 955.640625 223.460938 C 970.703125 194.929688 982.402344 164.511719 986.117188 132.96875 C 987.230469 119.949219 987.804688 105.78125 980.34375 94.070312 C 976.398438 88.050781 968.851562 84.640625 961.128906 85.929688 "/>
<path fill-rule="nonzero" fill="rgb(0%, 0%, 0%)" fill-opacity="1" d="M 4572.359375 544.390625 C 4481.769531 679.269531 4339.761719 899.710938 4244.449219 1193.011719 C 4215.589844 1086.078125 4185.371094 987.109375 4157.839844 901.691406 C 4122.558594 792.191406 4093.378906 709.351562 4076.261719 657.328125 C 4092.730469 707.359375 4118.921875 795.339844 4147.691406 905.558594 C 4173.691406 1005.140625 4201.910156 1123.5 4226.859375 1249.871094 C 4226.679688 1250.507812 4226.480469 1251.128906 4226.289062 1251.765625 C 4181.859375 1403.378906 4156.429688 1553.566406 4147.050781 1701.105469 C 4138.21875 1611.660156 4125.890625 1515.476562 4106.96875 1421.097656 C 4083.210938 1302.605469 4051.140625 1196.738281 4007.980469 1104.621094 C 3949.960938 980.800781 3883.710938 907.269531 3828.949219 858.488281 C 3883.679688 907.25 3946.289062 985.921875 3995.859375 1111.480469 C 4032.738281 1204.890625 4057.449219 1311.199219 4073.359375 1428.511719 C 4089.011719 1544 4094.949219 1661.632812 4097.910156 1766.539062 C 4099.839844 1834.914062 4100.800781 1896.75 4101.648438 1950.109375 C 4094.449219 1924.058594 4085.910156 1896.078125 4075.808594 1866.398438 C 4046.660156 1780.734375 4008.109375 1691.273438 3960.96875 1603.410156 C 3913.839844 1515.578125 3864.199219 1440.582031 3816.761719 1378.855469 C 3769.511719 1317.394531 3730.160156 1276.394531 3703.25 1248.660156 C 3729.859375 1276.082031 3766.921875 1321.347656 3808.410156 1386.519531 C 3850.261719 1452.246094 3892.539062 1531.808594 3930.96875 1622.289062 C 3969.578125 1713.1875 3999.261719 1803.152344 4021.179688 1887.878906 C 4043.058594 1972.457031 4054.101562 2039.421875 4061.679688 2087.265625 L 4095.359375 2080.265625 L 4104.621094 2078.339844 C 4104.710938 2080.449219 4104.78125 2082.894531 4104.871094 2084.921875 L 4139.050781 2082.839844 L 4158.191406 2081.679688 C 4158.671875 2085.480469 4159.148438 2089.320312 4159.640625 2093.007812 L 4193.480469 2087.121094 L 4227.320312 2081.230469 C 4227.050781 2079.238281 4226.789062 2077.007812 4226.519531 2074.984375 L 4244.71875 2073.585938 L 4278.878906 2070.949219 C 4275.441406 2012.5 4268.609375 1903.675781 4272.859375 1770.351562 C 4274.488281 1719.238281 4277.730469 1665.242188 4283.238281 1610.144531 C 4287.128906 1645.460938 4290.429688 1680.117188 4293.078125 1714.070312 C 4303.121094 1842.566406 4302.390625 1936.988281 4300.460938 2005.757812 L 4334.671875 2007.015625 L 4368.878906 2008.273438 C 4368.890625 2007.835938 4368.890625 2007.332031 4368.910156 2006.894531 L 4376.261719 2007.539062 L 4410.390625 2010.542969 C 4411.449219 1994.699219 4412.199219 1978.390625 4412.730469 1961.105469 L 4434.039062 1963.394531 C 4432.25 2021.882812 4432.570312 2070.464844 4433.859375 2105.921875 L 4468.058594 2104.289062 L 4502.261719 2102.65625 C 4499.851562 2036.351562 4495.359375 1924.359375 4500.050781 1783.527344 C 4502.789062 1701.273438 4508.589844 1613.171875 4518.808594 1524.8125 C 4527.761719 1564.375 4535.871094 1607.65625 4543.019531 1653.828125 C 4554.128906 1725.519531 4561.839844 1797.0625 4567.050781 1862.351562 C 4574.078125 1950.402344 4575.621094 2013.730469 4577.628906 2055.007812 L 4608.03125 2053.066406 C 4608.671875 2064.296875 4609.359375 2075.035156 4610.089844 2084.957031 L 4644.199219 2081.652344 L 4657.640625 2080.351562 C 4657.820312 2089.632812 4658.019531 2098.847656 4658.320312 2107.417969 L 4692.519531 2105.871094 L 4726.71875 2104.320312 C 4726.699219 2103.671875 4726.691406 2102.96875 4726.660156 2102.316406 L 4755 2100.527344 C 4752.890625 2056.824219 4751.480469 1990.40625 4764.628906 1899.972656 C 4769.089844 1869.324219 4775.011719 1837.65625 4782.410156 1805.558594 C 4798.238281 1847.183594 4810.441406 1886.773438 4818.28125 1925.328125 C 4823.921875 1953.046875 4826.820312 1977.878906 4827.820312 2000.476562 C 4829.128906 2030.035156 4827.101562 2053.789062 4824.871094 2072.398438 L 4892.691406 2083.070312 C 4895.601562 2058.847656 4896.070312 2028.277344 4891.109375 1992.519531 C 4887.339844 1965.316406 4880.679688 1936.808594 4870.789062 1906.804688 C 4853.359375 1853.910156 4827.878906 1802.226562 4798 1750.59375 C 4797.660156 1750.007812 4797.308594 1749.421875 4796.96875 1748.839844 C 4802.539062 1729.179688 4808.648438 1709.484375 4815.359375 1689.875 C 4826.988281 1655.863281 4839.789062 1623.847656 4853.421875 1594.1875 C 4856.980469 1608.023438 4860.320312 1622.164062 4863.421875 1636.621094 C 4881.699219 1721.769531 4890.289062 1808.714844 4894.148438 1888.324219 C 4897.898438 1965.777344 4897.039062 2035.105469 4897.160156 2077.863281 L 4931.390625 2077.734375 L 4954.878906 2077.652344 C 4955.140625 2079.730469 4955.390625 2081.835938 4955.671875 2083.84375 L 4989.480469 2077.734375 L 5023.300781 2071.628906 C 5017.128906 2026.894531 5010.191406 1964.640625 5011.828125 1869.886719 C 5013.039062 1799.992188 5018.71875 1725.160156 5027.910156 1645.929688 C 5036.878906 1568.535156 5048.488281 1493.265625 5058.929688 1430.679688 C 5071.96875 1352.488281 5085.179688 1281.75 5091.140625 1254.445312 C 5082.921875 1292.09375 5068.851562 1340.507812 5045.808594 1426.964844 C 5029.449219 1488.347656 5010.730469 1561.46875 4994.269531 1638.675781 C 4977.578125 1716.992188 4964.519531 1793.355469 4957.019531 1865.46875 C 4955.789062 1877.289062 4954.75 1888.722656 4953.859375 1899.804688 C 4953.148438 1893.78125 4952.398438 1887.71875 4951.609375 1881.574219 C 4940.988281 1799.605469 4923.589844 1710.585938 4896.140625 1625.117188 C 4888.511719 1601.347656 4880.328125 1578.601562 4871.640625 1556.851562 C 4880.890625 1539.042969 4890.429688 1522.308594 4900.179688 1506.753906 C 4918.011719 1478.320312 4935.730469 1455.097656 4952.75 1436.480469 C 4975.101562 1412.042969 4995.191406 1396.710938 5011.269531 1387.503906 C 4995.199219 1396.703125 4974.261719 1410.203125 4949.621094 1432.335938 C 4930.839844 1449.199219 4910.679688 1470.394531 4889.671875 1497.027344 C 4880.480469 1508.675781 4871.328125 1521.109375 4862.28125 1534.285156 C 4846.371094 1497.316406 4828.859375 1463.445312 4809.839844 1432.644531 C 4807.148438 1428.28125 4804.449219 1424.039062 4801.761719 1419.886719 C 4808.011719 1399.699219 4814.679688 1379.464844 4821.929688 1359.210938 C 4863.46875 1243.140625 4917.238281 1139.789062 4980.671875 1048.019531 C 5059.488281 933.96875 5144.699219 850.488281 5211.058594 795.589844 C 5144.25 849.921875 5056.058594 928.109375 4970.328125 1038.050781 C 4901.5 1126.320312 4840.410156 1227.148438 4790.71875 1343.113281 C 4785.230469 1355.921875 4780 1368.792969 4774.910156 1381.695312 C 4749.640625 1348.519531 4725.160156 1323.632812 4703.578125 1304.210938 C 4722.730469 1195.578125 4748.53125 1096.148438 4779.761719 1006.46875 C 4817.921875 896.929688 4859.601562 815.308594 4892.820312 760.960938 C 4859.398438 815.628906 4814.570312 893.789062 4769.960938 1001.578125 C 4725.058594 1110.058594 4686.539062 1233.808594 4657.75 1373.714844 C 4629.128906 1512.808594 4613.679688 1650.832031 4607.480469 1779.128906 C 4607.480469 1779.183594 4607.480469 1779.234375 4607.480469 1779.289062 C 4598.53125 1735.242188 4588.128906 1689.738281 4576.320312 1644.730469 C 4560.140625 1583.085938 4542.699219 1527.542969 4524.488281 1479.296875 C 4525.941406 1468.433594 4527.441406 1457.574219 4529.03125 1446.742188 C 4534.839844 1407.320312 4541.460938 1369.523438 4548.828125 1333.433594 C 4557.039062 1311.480469 4565.78125 1291.027344 4575.078125 1272.285156 C 4591.171875 1239.871094 4608.050781 1214.28125 4625.320312 1194.421875 C 4646.449219 1170.128906 4666.929688 1155.910156 4684.578125 1147.828125 C 4666.878906 1155.640625 4645.539062 1168.03125 4622.089844 1190.359375 C 4603.320312 1208.238281 4584.199219 1231.578125 4565.070312 1261.800781 C 4575.390625 1220.679688 4586.859375 1182.328125 4599.46875 1147.140625 C 4616.480469 1099.71875 4634.648438 1060.488281 4653.339844 1028.261719 C 4677.871094 985.949219 4701.890625 958.128906 4722.210938 940.039062 C 4701.921875 958.121094 4676.699219 984.351562 4649.441406 1025.070312 C 4628.660156 1056.121094 4607.671875 1094.101562 4587.179688 1140.710938 C 4559.269531 1204.191406 4534.570312 1278.550781 4513.410156 1362.117188 C 4507.050781 1377.019531 4500.871094 1392.5625 4494.871094 1408.695312 C 4490.121094 1398.597656 4485.46875 1389.222656 4480.941406 1380.578125 C 4466.480469 1353.019531 4454.179688 1334.445312 4444.800781 1321.015625 C 4454.128906 1334.375 4465.109375 1354.355469 4476.710938 1383.144531 C 4481.289062 1394.511719 4485.871094 1407.054688 4490.441406 1420.792969 C 4484.160156 1438.226562 4478.070312 1456.285156 4472.191406 1475.015625 C 4446.488281 1556.871094 4426.878906 1643.402344 4412.289062 1721.125 C 4411.421875 1638.773438 4411.171875 1547.765625 4416.550781 1461.507812 C 4422.511719 1366.0625 4434.960938 1281.96875 4457.671875 1210.710938 C 4470.511719 1170.390625 4485.859375 1136.679688 4503.179688 1108.449219 C 4525.910156 1071.390625 4550.488281 1046.359375 4572.320312 1029.691406 C 4550.550781 1046.308594 4524.828125 1069.679688 4499.371094 1105.121094 C 4479.929688 1132.171875 4461.660156 1164.820312 4445.199219 1204.730469 C 4416.03125 1275.464844 4396.238281 1359.941406 4382.550781 1456.960938 C 4369.21875 1551.40625 4362.539062 1652.097656 4357.578125 1739.625 C 4357.199219 1746.324219 4356.929688 1750.960938 4356.558594 1757.503906 C 4354.738281 1740.9375 4352.730469 1723.882812 4350.441406 1706.242188 C 4339.78125 1623.921875 4324.859375 1537.855469 4306.179688 1448.867188 C 4306.488281 1447.207031 4306.789062 1445.539062 4307.109375 1443.878906 C 4328.601562 1332.078125 4359.960938 1233.359375 4401.898438 1152.699219 C 4425.671875 1106.960938 4451.511719 1069.578125 4478.488281 1039.328125 C 4513.910156 999.589844 4549.03125 974.699219 4578.75 959.230469 C 4549.078125 974.679688 4513.089844 997.710938 4475.238281 1035.289062 C 4446.378906 1063.941406 4417.828125 1099.660156 4390.550781 1144.289062 C 4350.75 1209.390625 4317.339844 1287.539062 4290.28125 1376.378906 C 4283.738281 1347.730469 4276.839844 1318.824219 4269.578125 1289.65625 C 4266.71875 1278.179688 4263.800781 1266.898438 4260.890625 1255.566406 C 4336.839844 937.710938 4476.71875 686.789062 4572.359375 544.390625 Z M 4684.578125 1147.828125 C 4685.890625 1147.261719 4687.230469 1146.640625 4688.488281 1146.121094 C 4687.210938 1146.648438 4685.898438 1147.230469 4684.578125 1147.828125 Z M 4703.460938 1304.863281 C 4725.03125 1325.894531 4748.460938 1354.140625 4771.160156 1391.144531 C 4744.078125 1461.078125 4722.570312 1532.242188 4705.878906 1603.753906 C 4693.121094 1583.710938 4682.230469 1566.121094 4673.191406 1550.667969 C 4677.328125 1495.070312 4683.21875 1438.480469 4691.320312 1381.367188 C 4695 1355.382812 4699.058594 1329.878906 4703.460938 1304.863281 Z M 4243.191406 1336.800781 C 4251.289062 1382.046875 4258.628906 1426.46875 4265.058594 1469.910156 C 4241.21875 1570.316406 4226.511719 1672.640625 4218.050781 1765.921875 C 4213.429688 1816.914062 4210.699219 1864.066406 4209.28125 1906.472656 C 4205.328125 1849.996094 4202.941406 1787.773438 4203.710938 1720.71875 C 4205.128906 1596.097656 4217.308594 1468.035156 4243.191406 1336.800781 Z M 4796.5 1437.09375 C 4797.128906 1438.378906 4797.78125 1439.605469 4798.410156 1440.90625 C 4816.261719 1477.535156 4831.570312 1517.835938 4844.421875 1561.523438 C 4823.390625 1594.980469 4803.101562 1632.453125 4784.238281 1673.542969 C 4779.480469 1683.914062 4774.898438 1694.363281 4770.46875 1704.859375 C 4762.390625 1691.835938 4754.289062 1679.039062 4746.328125 1666.621094 C 4757.300781 1592.308594 4773.339844 1515.15625 4796.5 1437.09375 Z M 4672.359375 1561.726562 C 4679.488281 1577.496094 4688.050781 1595.949219 4699.359375 1619.730469 C 4699.980469 1621.039062 4700.699219 1622.542969 4701.328125 1623.871094 C 4691.378906 1668.941406 4683.28125 1714.109375 4676.878906 1759.152344 C 4672.480469 1790.15625 4669.011719 1820.421875 4666.238281 1849.777344 C 4665.710938 1827.535156 4665.300781 1804.703125 4665.21875 1780.855469 C 4664.988281 1710.597656 4667.050781 1637.128906 4672.359375 1561.726562 Z M 4740.78125 1707.527344 C 4745.871094 1718.636719 4750.921875 1729.867188 4755.871094 1741.140625 C 4746.378906 1765.941406 4737.820312 1790.882812 4730.210938 1815.703125 C 4732.691406 1780.636719 4736.148438 1744.476562 4740.78125 1707.527344 "/>
<path fill-rule="nonzero" fill="rgb(0%, 0%, 0%)" fill-opacity="1" d="M 4538 901.5 C 4552.539062 904.210938 4563.050781 910.800781 4572.160156 916.960938 C 4595.75 933.371094 4608.640625 952.378906 4624.441406 970.53125 C 4646.96875 997.460938 4669.898438 1024.328125 4692.191406 1051.300781 C 4706.191406 1069.46875 4716.5 1088.460938 4718.179688 1107.398438 C 4718.480469 1114.429688 4717.988281 1121.800781 4711.570312 1127.851562 C 4788.339844 1242.179688 4850.261719 1358.46875 4891.128906 1475.640625 C 4935.390625 1601.710938 4955.261719 1728.628906 4950.949219 1854.042969 C 4949.390625 1901.042969 4944.488281 1947.835938 4936.449219 1994.316406 C 4929.53125 1994.300781 4922.691406 1994.269531 4915.761719 1994.269531 C 4935.949219 1878.972656 4937.789062 1761.800781 4918.058594 1644.230469 C 4899.699219 1533.605469 4862.359375 1422.867188 4808.378906 1313.324219 C 4778.429688 1252.429688 4743.5 1191.878906 4704.449219 1131.898438 C 4695.789062 1134.859375 4683.730469 1132.398438 4675.628906 1128.988281 C 4657.558594 1121.429688 4645.339844 1111.03125 4634.53125 1100.820312 C 4621.648438 1088.148438 4611.878906 1074.890625 4600.589844 1061.929688 C 4578.511719 1035.53125 4556.03125 1009.199219 4534.199219 982.761719 C 4520.261719 964.671875 4510.011719 945.761719 4508.289062 926.910156 C 4508.019531 919.160156 4508.398438 910.789062 4517.109375 904.570312 C 4521.699219 901.378906 4529.921875 900.058594 4538 901.5 "/>
<path fill-rule="nonzero" fill="rgb(0%, 0%, 0%)" fill-opacity="1" d="M 5085.550781 142.628906 C 5072.25 143.640625 5061.21875 151.960938 5051.519531 159.910156 C 5026.25 181.230469 5009.339844 209.359375 4990.199219 235.378906 C 4962.578125 274.210938 4934.640625 312.839844 4907.21875 351.789062 C 4889.609375 378.269531 4874.910156 406.949219 4867.609375 437.589844 C 4865.171875 449.058594 4863.308594 461.261719 4866.929688 472.679688 C 4765.851562 641.960938 4676.859375 817.96875 4605.609375 1000.378906 C 4528.710938 1196.578125 4472.421875 1399.929688 4437.300781 1606.523438 C 4424.078125 1683.929688 4413.800781 1761.789062 4406.289062 1839.878906 C 4412.21875 1841.484375 4418.078125 1843.046875 4424.011719 1844.679688 C 4442.421875 1650.925781 4477.101562 1458.429688 4530.378906 1270.371094 C 4580.339844 1093.371094 4646.570312 920.671875 4726.679688 753.851562 C 4771.148438 661.101562 4819.789062 570.101562 4871.78125 480.988281 C 4878.269531 487.890625 4889.351562 486.710938 4897.339844 483.03125 C 4915.148438 474.910156 4928.820312 460.738281 4941.238281 446.558594 C 4956.179688 428.828125 4968.640625 409.410156 4982.320312 390.820312 C 5009.390625 352.761719 5036.78125 314.898438 5063.640625 276.730469 C 5081.171875 250.359375 5095.789062 221.789062 5103.109375 191.289062 C 5105.738281 178.648438 5108 164.839844 5102.46875 152.589844 C 5099.53125 146.289062 5092.910156 142.171875 5085.550781 142.628906 "/>
<path fill-rule="nonzero" fill="rgb(0%, 0%, 0%)" fill-opacity="1" d="M 4076.960938 375.871094 C 4090.660156 378.441406 4100.019531 386.839844 4108.089844 394.75 C 4128.910156 415.878906 4139.148438 441.621094 4152.28125 465.890625 C 4170.890625 501.980469 4189.898438 537.941406 4208.269531 574.109375 C 4219.671875 598.558594 4227.429688 624.480469 4226.878906 651.078125 C 4226.359375 661 4225.050781 671.449219 4218.179688 680.539062 C 4279.011719 835.371094 4325.328125 994.261719 4351.28125 1156.21875 C 4379.480469 1330.445312 4384.101562 1507.984375 4365.621094 1685.492188 C 4358.75 1752.007812 4348.679688 1818.523438 4335.640625 1884.871094 C 4328.96875 1885.445312 4322.390625 1885.996094 4315.730469 1886.59375 C 4348.328125 1722 4363.5 1556.347656 4357.941406 1392.003906 C 4352.898438 1237.351562 4329.609375 1084.171875 4290.171875 934.121094 C 4268.300781 850.710938 4241.589844 768.210938 4210.859375 686.871094 C 4202.191406 691.808594 4190.859375 689.371094 4183.460938 685.261719 C 4166.921875 676.148438 4156.351562 662.519531 4147.109375 649.03125 C 4136.160156 632.25 4128.269531 614.371094 4118.890625 597.039062 C 4100.648438 561.671875 4082.019531 526.421875 4064.03125 490.96875 C 4052.679688 466.621094 4044.96875 440.808594 4045.460938 414.328125 C 4046.089844 403.410156 4047.410156 391.550781 4056.511719 382.019531 C 4061.289062 377.121094 4069.351562 374.53125 4076.960938 375.871094 "/>
<path fill-rule="nonzero" fill="rgb(0%, 0%, 0%)" fill-opacity="1" d="M 1905.160156 349.359375 C 1880.460938 393.5 1853.71875 452.621094 1833.058594 533.398438 C 1817.308594 594.988281 1806 665.539062 1800.410156 747.441406 C 1790.488281 892.710938 1799.800781 1053.898438 1820.488281 1230.300781 C 1840.089844 1397.445312 1870.558594 1580.230469 1892.410156 1721.625 C 1900.328125 1772.824219 1906.929688 1817.632812 1912.578125 1858.019531 C 1912.050781 1876.285156 1911.601562 1894.351562 1911.320312 1911.910156 C 1911.230469 1917.8125 1911.191406 1923.496094 1911.121094 1929.292969 C 1906.230469 1893.03125 1900.011719 1854.46875 1892.128906 1813.625 C 1872.671875 1712.738281 1846.171875 1612.363281 1814.371094 1508.253906 C 1779.308594 1393.492188 1736.519531 1270.996094 1704.25 1174.988281 C 1669.140625 1070.570312 1645.460938 994.898438 1629.238281 932.878906 C 1654.410156 1029.101562 1656.371094 1038.390625 1694.800781 1180.519531 C 1721.988281 1281.0625 1756.121094 1405.78125 1783.648438 1524.203125 C 1808.441406 1630.863281 1827.699219 1730.890625 1840.800781 1829.800781 C 1851.859375 1913.34375 1856.929688 1984.230469 1859.160156 2044.6875 C 1833.171875 1944.023438 1790.460938 1803.171875 1735.488281 1671.414062 C 1658.820312 1487.65625 1585.289062 1380.742188 1524.859375 1296.726562 C 1550.289062 1332.070312 1582.769531 1385.332031 1615.828125 1455.109375 C 1649.28125 1525.710938 1679.179688 1604.230469 1706.191406 1691.894531 C 1759.511719 1864.957031 1792.410156 2046.679688 1813.519531 2141.96875 L 1844.859375 2128.546875 L 1860.71875 2121.753906 C 1860.75 2128.546875 1860.800781 2135.417969 1860.800781 2141.882812 L 1893.589844 2141.972656 L 1893.589844 2141.96875 L 1914.710938 2141.96875 C 1914.710938 2141.972656 1914.710938 2141.96875 1914.710938 2141.96875 L 1926.378906 2141.96875 C 1926.378906 2141.5625 1926.378906 2141.121094 1926.378906 2140.707031 L 1941.839844 2139.035156 C 1941.890625 2139.996094 1941.960938 2141.007812 1942.011719 2141.96875 L 1974.71875 2138.746094 L 1977.171875 2138.507812 C 1977.25 2139.648438 1977.320312 2140.855469 1977.410156 2141.972656 L 2010.011719 2137.054688 L 2018.21875 2135.816406 L 2044.289062 2138.550781 L 2076.988281 2141.972656 C 2080.078125 2084.875 2086.921875 2000.152344 2112.558594 1897.453125 C 2131.710938 1820.726562 2159.460938 1742.085938 2196.691406 1668.320312 C 2233.949219 1594.523438 2277.039062 1532.921875 2322.859375 1485.734375 C 2384.25 1422.511719 2441.421875 1394.5 2482.539062 1384.101562 C 2441.460938 1394.488281 2383.140625 1415.003906 2315.691406 1470.734375 C 2265.398438 1512.296875 2215.910156 1568.78125 2170.941406 1640.101562 C 2126.050781 1711.28125 2090.101562 1790.222656 2063.75 1870.035156 C 2053.410156 1901.378906 2044.980469 1931.59375 2038.089844 1960.328125 C 2038.789062 1935.359375 2040.121094 1908.527344 2042.300781 1879.796875 C 2048.671875 1795.816406 2061.671875 1706.371094 2082.058594 1621.351562 C 2102.460938 1536.339844 2128.101562 1464.789062 2156.511719 1411.582031 C 2172.660156 1381.335938 2188.960938 1358.371094 2204.890625 1341.542969 C 2224.441406 1320.894531 2242.421875 1310.574219 2257.289062 1306.109375 C 2242.429688 1310.261719 2223.851562 1318.292969 2202.320312 1336.257812 C 2184.730469 1350.933594 2165.988281 1371.5625 2146.601562 1399.984375 C 2112.449219 1450.058594 2079.71875 1519.421875 2051.578125 1604.542969 C 2023.550781 1689.332031 2002.960938 1780.996094 1990.28125 1868.628906 C 1987.488281 1887.867188 1985.191406 1906.414062 1983.230469 1924.363281 C 1977.550781 1888.652344 1970.621094 1848.878906 1962.679688 1805.539062 C 1960.859375 1738.683594 1960.441406 1668.359375 1962.691406 1596.90625 C 1965.671875 1501.96875 1973.050781 1413.574219 1985.339844 1332.480469 C 2001.75 1224.191406 2024.539062 1145.441406 2044.789062 1093.808594 C 2024.210938 1146.261719 1997.300781 1219.878906 1972.808594 1327.910156 C 1954.609375 1408.207031 1940.328125 1496.28125 1930.039062 1592.53125 C 1929.019531 1602.121094 1928.058594 1611.703125 1927.128906 1621.277344 C 1902.371094 1496.726562 1873.980469 1355.152344 1852.691406 1221.699219 C 1825.261719 1049.71875 1809.421875 891.761719 1813.328125 748.640625 C 1815.53125 667.820312 1823.921875 597.351562 1837.421875 535.398438 C 1855.148438 454.058594 1880.429688 393.570312 1905.160156 349.359375 Z M 2257.289062 1306.105469 C 2258.339844 1305.8125 2259.429688 1305.488281 2260.441406 1305.230469 C 2259.410156 1305.492188 2258.351562 1305.785156 2257.289062 1306.105469 "/>
<path fill-rule="nonzero" fill="rgb(0%, 0%, 0%)" fill-opacity="1" d="M 2548.21875 320.808594 C 2536.679688 321.851562 2527.101562 330.421875 2518.671875 338.609375 C 2496.730469 360.589844 2482.039062 389.578125 2465.410156 416.390625 C 2441.429688 456.410156 2417.160156 496.21875 2393.339844 536.351562 C 2378.050781 563.640625 2365.28125 593.199219 2358.941406 624.78125 C 2356.828125 636.601562 2355.210938 649.171875 2358.359375 660.941406 C 2270.558594 835.390625 2193.269531 1016.769531 2131.398438 1204.761719 C 2064.609375 1406.953125 2015.71875 1616.511719 1985.21875 1829.417969 C 1973.738281 1909.1875 1964.800781 1989.425781 1958.28125 2069.898438 C 1963.429688 2071.554688 1968.53125 2073.164062 1973.671875 2074.847656 C 1989.660156 1875.175781 2019.789062 1676.800781 2066.058594 1482.996094 C 2109.449219 1300.59375 2166.96875 1122.609375 2236.539062 950.699219 C 2275.171875 855.121094 2317.421875 761.328125 2362.558594 669.511719 C 2368.199219 676.621094 2377.828125 675.390625 2384.761719 671.609375 C 2400.230469 663.238281 2412.109375 648.640625 2422.890625 634.019531 C 2435.871094 615.761719 2446.691406 595.730469 2458.570312 576.578125 C 2482.078125 537.359375 2505.871094 498.351562 2529.199219 459 C 2544.429688 431.828125 2557.121094 402.378906 2563.480469 370.949219 C 2565.761719 357.929688 2567.730469 343.691406 2562.921875 331.078125 C 2560.371094 324.578125 2554.621094 320.339844 2548.21875 320.808594 "/>
<path fill-rule="nonzero" fill="rgb(0%, 0%, 0%)" fill-opacity="1" d="M 2322.730469 111.039062 C 2308.488281 114.871094 2298.140625 125.648438 2289.171875 135.78125 C 2265.929688 162.789062 2253.109375 194.980469 2237.460938 225.480469 C 2215.121094 270.800781 2192.390625 315.988281 2170.300781 361.390625 C 2156.398438 392.039062 2146.089844 424.320312 2144.210938 457.050781 C 2143.839844 469.230469 2144.21875 482.03125 2150.410156 492.898438 C 2074.03125 686.421875 2012.109375 884.261719 1970.75 1084.878906 C 1925.960938 1300.726562 1904.980469 1519.511719 1907.628906 1737.152344 C 1908.570312 1818.710938 1912.769531 1900.113281 1920.039062 1981.164062 C 1926.800781 1981.554688 1933.480469 1981.914062 1940.238281 1982.328125 C 1921.96875 1781.265625 1921.621094 1578.066406 1942.351562 1375.472656 C 1961.660156 1184.839844 1999.5 995.148438 2053.578125 808.53125 C 2083.570312 704.789062 2118.441406 601.949219 2157.320312 500.339844 C 2165.738281 506 2177.539062 502.460938 2185.488281 497.039062 C 2203.238281 485.03125 2215.300781 467.738281 2225.988281 450.691406 C 2238.71875 429.511719 2248.421875 407.121094 2259.609375 385.328125 C 2281.5 340.910156 2303.769531 296.621094 2325.421875 252.121094 C 2339.261719 221.601562 2349.5 189.449219 2351.421875 156.871094 C 2351.78125 143.460938 2351.511719 128.921875 2343.078125 117.628906 C 2338.640625 111.828125 2330.628906 109.03125 2322.730469 111.039062 "/>
</svg>
