<?xml version="1.0" encoding="utf-8"?>
<!-- Generator: Adobe Illustrator 27.0.1, SVG Export Plug-In . SVG Version: 6.00 Build 0)  -->
<svg version="1.1" id="Layer_1" xmlns:serif="http://www.serif.com/"
	 xmlns="http://www.w3.org/2000/svg" xmlns:xlink="http://www.w3.org/1999/xlink" x="0px" y="0px" viewBox="0 0 260 260"
	 style="enable-background:new 0 0 260 260;" xml:space="preserve">
<style type="text/css">
	.st0{fill:#E36956;}
	.st1{fill:#FF9E7D;}
	.st2{fill:#FFE478;}
	.st3{fill:#A0C553;}
	.st4{fill:#69AAE8;}
</style>
<g>
	<path d="M198,146c2.2,0,4,1.8,4,4v8c0,2.2-1.8,4-4,4h-40c-2.2,0-4,1.8-4,4v8c0,2.2,1.8,4,4,4h63.5c2.5,0,5.4,1.8,6.5,4l18,36
		c2.2,4.4,0,8-4.9,8H142c-2.2,0-4-1.8-4-4v-8c0-2.2,1.8-4,4-4h78c2.2-0.2,3.2-1.9,2.1-4l-5-10.1c-0.6-1.1-2-1.9-3.2-1.9H142
		c-2.2,0-4-1.8-4-4v-40c0-2.2,1.8-4,4-4H198 M198,144h-56c-3.3,0-6,2.7-6,6v40c0,3.3,2.7,6,6,6h71.9c0.5,0,1.2,0.4,1.4,0.8l5,10.1
		c0.2,0.5,0.2,0.8,0.2,0.9c0,0.1-0.2,0.2-0.6,0.2H142c-3.3,0-6,2.7-6,6v8c0,3.3,2.7,6,6,6h99.1c3.1,0,5.5-1.2,6.9-3.3
		c1.3-2.1,1.3-4.8-0.1-7.6l-18-36c-1.4-2.9-5-5.1-8.2-5.1H158c-1.1,0-2-0.9-2-2v-8c0-1.1,0.9-2,2-2h40c3.3,0,6-2.7,6-6v-8
		C204,146.7,201.3,144,198,144L198,144z"/>
	<path d="M118,178c2.2,0,4,1.8,4,4v8c0,2.2-1.8,4-4,4H46.1c-1.2,0-2.6,0.8-3.2,1.9l-5,10.1c-1.1,2.1-0.1,3.8,2.1,4h74
		c4.4,0,8,3.6,8,8v32c0,4.4-3.6,8-8,8H14c-2.2,0-4-1.8-4-4v-8c0-2.2,1.8-4,4-4h88c2.2,0,4-1.8,4-4v-8c0-2.2-1.8-4-4-4H18.9
		c-4.9,0-7.1-3.6-4.9-8l18-36c1.1-2.2,4-4,6.5-4H118 M118,176H38.5c-3.2,0-6.8,2.2-8.3,5.1l-18,36c-1.4,2.8-1.4,5.5-0.1,7.6
		c1.3,2.1,3.7,3.3,6.9,3.3H102c1.1,0,2,0.9,2,2v8c0,1.1-0.9,2-2,2H14c-3.3,0-6,2.7-6,6v8c0,3.3,2.7,6,6,6h100c5.5,0,10-4.5,10-10
		v-32c0-5.5-4.5-10-10-10H40.1c-0.4,0-0.6-0.2-0.6-0.2c0-0.1,0-0.4,0.2-0.9l5-10.1c0.2-0.4,1-0.8,1.4-0.8H118c3.3,0,6-2.7,6-6v-8
		C124,178.7,121.3,176,118,176L118,176z"/>
	<path d="M198,2c2.2,0,4,1.8,4,4v8c0,2.2-1.8,4-4,4h-40c-2.2,0-4,1.8-4,4v8c0,2.2,1.8,4,4,4h36c4.4,0,8,3.6,8,8v80c0,4.4-3.6,8-8,8
		h-52c-2.2,0-4-1.8-4-4v-8c0-2.2,1.8-4,4-4h40c2.2,0,4-1.8,4-4V54c0-2.2-1.8-4-4-4h-40c-2.2,0-4-1.8-4-4V10c0-4.4,3.6-8,8-8H198
		 M198,0h-52c-5.5,0-10,4.5-10,10v36c0,3.3,2.7,6,6,6h40c1.1,0,2,0.9,2,2v56c0,1.1-0.9,2-2,2h-40c-3.3,0-6,2.7-6,6v8
		c0,3.3,2.7,6,6,6h52c5.5,0,10-4.5,10-10V42c0-5.5-4.5-10-10-10h-36c-1.1,0-2-0.9-2-2v-8c0-1.1,0.9-2,2-2h40c3.3,0,6-2.7,6-6V6
		C204,2.7,201.3,0,198,0L198,0z"/>
	<path d="M118,34c2.2,0,4,1.8,4,4v8c0,2.2-1.8,4-4,4H78c-2.2,0-4,1.8-4,4v56c0,2.2,1.8,4,4,4h40c2.2,0,4,1.8,4,4v8c0,2.2-1.8,4-4,4
		H66c-4.4,0-8-3.6-8-8V42c0-4.4,3.6-8,8-8H118 M118,32H66c-5.5,0-10,4.5-10,10v80c0,5.5,4.5,10,10,10h52c3.3,0,6-2.7,6-6v-8
		c0-3.3-2.7-6-6-6H78c-1.1,0-2-0.9-2-2V54c0-1.1,0.9-2,2-2h40c3.3,0,6-2.7,6-6v-8C124,34.7,121.3,32,118,32L118,32z"/>
	<path class="st0" d="M122,38v8c0,2.2-1.8,4-4,4H78c-1.9,0-3.4,1.3-3.9,3H58V42c0-4.4,3.6-8,8-8h52C120.2,34,122,35.8,122,38z"/>
	<path class="st0" d="M154,22v8c0,2.2,1.8,4,4,4h36c4.4,0,8,3.6,8,8v11h-16.1c-0.4-1.7-2-3-3.9-3h-40c-2.2,0-4-1.8-4-4V10
		c0-4.4,3.6-8,8-8h52c2.2,0,4,1.8,4,4v8c0,2.2-1.8,4-4,4h-40C155.8,18,154,19.8,154,22z"/>
	<path class="st1" d="M74.1,53C74,53.3,74,53.7,74,54v50H58V53H74.1z"/>
	<path class="st1" d="M202,53v51h-16V54c0-0.3,0-0.7-0.1-1H202z"/>
	<path class="st2" d="M202,104v18c0,4.4-3.6,8-8,8h-52c-2.2,0-4-1.8-4-4v-8c0-2.2,1.8-4,4-4h40c2.2,0,4-1.8,4-4v-6H202z"/>
	<path class="st2" d="M122,118v8c0,2.2-1.8,4-4,4H66c-4.4,0-8-3.6-8-8v-18h16v6c0,2.2,1.8,4,4,4h40C120.2,114,122,115.8,122,118z"/>
	<path class="st2" d="M202,150v5h-64v-5c0-2.2,1.8-4,4-4h56C200.2,146,202,147.8,202,150z"/>
	<path class="st3" d="M240,206h-17.9l-5-10.1c-0.6-1.1-2-1.9-3.2-1.9H142c-2.2,0-4-1.8-4-4v-35h64v3c0,2.2-1.8,4-4,4h-40
		c-2.2,0-4,1.8-4,4v8c0,2.2,1.8,4,4,4h63.5c2.5,0,5.4,1.8,6.5,4L240,206z"/>
	<path class="st3" d="M122,182v8c0,2.2-1.8,4-4,4H46.1c-1.2,0-2.6,0.8-3.2,1.9l-5,10.1H20l12-24c1.1-2.2,4-4,6.5-4H118
		C120.2,178,122,179.8,122,182z"/>
	<path class="st4" d="M241.1,226H142c-2.2,0-4-1.8-4-4v-8c0-2.2,1.8-4,4-4h78c2.2-0.2,3.2-1.9,2.1-4v0H240l6,12
		C248.2,222.4,246,226,241.1,226z"/>
	<path class="st4" d="M122,218v32c0,4.4-3.6,8-8,8H14c-2.2,0-4-1.8-4-4v-8c0-2.2,1.8-4,4-4h88c2.2,0,4-1.8,4-4v-8c0-2.2-1.8-4-4-4
		H18.9c-4.9,0-7.1-3.6-4.9-8l6-12h17.9v0c-1.1,2.1-0.1,3.8,2.1,4h74C118.4,210,122,213.6,122,218z"/>
</g>
</svg>
