<?xml version="1.0" encoding="UTF-8" standalone="no"?>
<svg
   viewBox="394.13419 484.70737 250 180"
   width="250"
   height="180"
   version="1.1"
   id="svg8"
   sodipodi:docname="duck.svg"
   inkscape:version="1.4.2 (ebf0e94, 2025-05-08)"
   xmlns:inkscape="http://www.inkscape.org/namespaces/inkscape"
   xmlns:sodipodi="http://sodipodi.sourceforge.net/DTD/sodipodi-0.dtd"
   xmlns="http://www.w3.org/2000/svg"
   xmlns:svg="http://www.w3.org/2000/svg">
  <sodipodi:namedview
     id="namedview1"
     pagecolor="#ffffff"
     bordercolor="#000000"
     borderopacity="0.25"
     inkscape:showpageshadow="2"
     inkscape:pageopacity="0.0"
     inkscape:pagecheckerboard="0"
     inkscape:deskcolor="#d1d1d1"
     inkscape:clip-to-page="true"
     inkscape:zoom="4.4555556"
     inkscape:cx="118.16708"
     inkscape:cy="116.70823"
     inkscape:window-width="2880"
     inkscape:window-height="1848"
     inkscape:window-x="958"
     inkscape:window-y="1480"
     inkscape:window-maximized="1"
     inkscape:current-layer="svg8" />
  <defs
     id="defs8" />
  <g
     transform="translate(-345.36584,-108.29268)"
     id="g8">
    <path
       fill="#eb9347"
       d="m 923.2,818.4 h -32.5 l -2.9,-41.5 -17.6,1.2 2.9,40.3 h -10.4 c -6.3,0 -11.4,5.1 -11.4,11.4 v 0.3 h 11.4 60.6 11.4 v -0.3 c -0.2,-6.3 -5.3,-11.4 -11.5,-11.4 z"
       id="path1" />
    <path
       fill="#624732"
       d="m 950.3,652.7 c -3.5,-2.5 -7.3,-4.7 -11.4,-6.4 -1.5,-0.7 -3.1,-1.2 -4.7,-1.8 -7.2,-3.7 -12.2,-11.2 -12.2,-19.9 0,-12.4 10,-22.4 22.4,-22.4 0.8,0 1.6,0 2.3,0.1 -5.9,-4.8 -13.5,-7.7 -21.8,-7.7 -19.1,0 -34.6,15.5 -34.6,34.6 0,5.8 1.4,11.2 4,16 2.1,4 5,7.6 8.5,10.5 2,1.7 4.3,3.2 6.7,4.4 14.6,11 24,28.4 24,48.1 0,22.5 -12.4,42.1 -30.6,52.4 4,0.8 8.1,1.3 12.4,1.3 33.3,0 60.2,-27 60.2,-60.2 0,-20.2 -9.9,-38.1 -25.2,-49 z"
       id="path2" />
    <path
       fill="#008b45"
       d="m 950.3,652.7 c -3.5,-2.5 -7.3,-4.7 -11.4,-6.4 -1.5,-0.7 -3.1,-1.2 -4.7,-1.8 -7.2,-3.7 -12.2,-11.2 -12.2,-19.9 0,-12.4 10,-22.4 22.4,-22.4 0.8,0 1.6,0 2.3,0.1 -5.9,-4.8 -13.5,-7.7 -21.8,-7.7 -6.2,0 -12,1.6 -17,4.5 -10.5,5.9 -17.5,17.2 -17.5,30.1 0,5.8 1.4,11.2 4,16 1.3,2.5 2.9,4.8 4.7,6.9 1.2,1.3 2.4,2.5 3.7,3.6 2,1.7 4.3,3.2 6.7,4.4 6.3,4.7 11.5,10.6 15.6,17.4 5.8,2.4 12.1,3.7 18.8,3.7 9.2,0 17.7,-2.5 25,-6.9 -4.4,-8.6 -10.8,-16 -18.6,-21.6 z"
       id="path3" />
    <path
       fill="#fecd07"
       d="m 982.6,645.2 -50.6,-20.6 5.8,-14.2 44.3,18.1 c 5.4,2.2 8.1,8.4 5.8,13.9 l -0.3,0.8 c -0.8,1.9 -3.1,2.8 -5,2 z"
       id="path4" />
    <path
       d="m 950.50001,614.79999 a 21.799999,21.799999 0 0 1 -21.8,21.8 21.799999,21.799999 0 0 1 -21.8,-21.8 21.799999,21.799999 0 0 1 21.8,-21.8 21.799999,21.799999 0 0 1 21.8,21.8 z"
       fill="#008b45"
       id="path5" />
    <path
       fill="#a89681"
       d="m 894.5,672.4 c -8.3,0 -16.2,1.8 -23.3,5.1 v 0 l -124.5,54.1 c -3.9,0 -7.2,3.2 -7.2,7.2 0,3.7 2.8,6.8 6.5,7.1 l 131,35.6 c 1.9,0.6 3.8,1.1 5.7,1.6 h 0.1 v 0 c 3.8,0.8 7.7,1.2 11.7,1.2 30.9,0 56,-25.1 56,-56 -0.1,-30.8 -25.1,-55.9 -56,-55.9 z"
       id="path6" />
    <path
       fill="#624732"
       d="m 871.6,672.4 c -5.8,0 -11.3,1.3 -16.3,3.6 v 0 l -86.8,37.7 c -2.8,0 -5,2.2 -5,5 0,2.6 2,4.7 4.5,5 l 91.3,24.8 c 1.3,0.4 2.6,0.8 4,1.1 h 0.1 v 0 c 2.6,0.6 5.3,0.9 8.1,0.9 21.6,0 39,-17.5 39,-39 0,-21.5 -17.4,-39.1 -38.9,-39.1 z"
       id="path7" />
    <path
       d="m 939.69999,608.70001 a 3.4,3.4 0 0 1 -3.4,3.4 3.4,3.4 0 0 1 -3.4,-3.4 3.4,3.4 0 0 1 3.4,-3.4 3.4,3.4 0 0 1 3.4,3.4 z"
       id="path8" />
  </g>
</svg>
