<?xml version="1.0" encoding="UTF-8" standalone="no"?>
<svg
   width="987.65216"
   height="1900.8048"
   viewBox="0 0 987.65217 1900.8049"
   version="1.1"
   id="svg13"
   xmlns="http://www.w3.org/2000/svg"
   xmlns:svg="http://www.w3.org/2000/svg">
  <defs
     id="defs13" />
  <g
     id="g16"
     style="display:inline"
     transform="translate(-2637.6992,-218.34359)">
    <path
       fill-rule="nonzero"
       fill="#000000"
       fill-opacity="1"
       d="m 3605.5313,218.37891 c -12.961,1.04296 -23.7227,9.62109 -33.1797,17.82031 -24.6328,21.99219 -41.1328,51 -59.793,77.83203 -26.9297,40.03906 -54.168,79.87891 -80.9102,120.04687 -17.1679,27.3125 -31.5,56.88282 -38.6171,88.49219 -2.3711,11.82031 -4.1915,24.39844 -0.6602,36.17969 -98.5625,174.57031 -185.332,356.07812 -254.8008,544.1992 -74.9687,202.3321 -129.8594,412.0391 -164.1015,625.0899 -12.8907,79.8281 -22.918,160.1211 -30.2383,240.6523 5.7812,1.6563 11.5,3.2695 17.2812,4.9531 17.9492,-199.8125 51.7696,-398.3281 103.7188,-592.2656 48.6992,-182.5273 113.289,-360.6406 191.3906,-532.66796 43.3594,-95.65235 90.7891,-189.5 141.4687,-281.39063 6.3399,7.1211 17.1407,5.89063 24.9297,2.10938 17.3594,-8.37891 30.6993,-22.98828 42.8008,-37.6211 14.5703,-18.27734 26.7188,-38.30859 40.0586,-57.48047 26.3906,-39.25 53.1016,-78.28906 79.293,-117.65625 17.0898,-27.1914 31.3476,-56.66015 38.4765,-88.11328 2.5625,-13.02734 4.7735,-27.27734 -0.6171,-39.89843 -2.8711,-6.51172 -9.3321,-10.75 -16.5,-10.28125"
       id="path2"
       style="display:inline" />
    <path
       fill-rule="nonzero"
       fill="#000000"
       fill-opacity="1"
       d="m 2637.6992,513.64844 c 2.9297,1.75 5.9492,3.6914 8.9492,5.58203 -3.0078,-1.94141 -6,-3.82031 -8.9492,-5.58203 z m 8.9492,5.58203 c 34.5235,22.23828 72.4297,56.57031 107.461,109.57812 28.9922,43.88282 54.3711,97.96094 75.2422,164.30078 18.5781,59.05079 32.8476,125.40235 43.3672,199.07032 10.0312,70.17191 16.3593,144.82031 20.1093,222.67971 7.6133,157.832 4.3438,327.2617 1.7305,471.6133 -3.8086,210.7226 -4.4492,329.6914 3.9805,432.6757 l 37.7695,-6.8632 28.082,-5.0977 22.25,4.4375 37.711,7.5234 c 0.2695,-3.0507 0.5078,-6.0273 0.7695,-9.0468 l 29.2305,9.0468 c 9.9765,-71.5156 21.0586,-188.125 38.0273,-318.2109 12.8711,-98.6523 29.4805,-202.2734 55.0508,-295.5195 12.4687,-45.4649 26.832,-87.6563 43.6289,-125.9492 17.6328,-40.1954 37.4727,-75.0547 59.7812,-104.6485 25.0586,-33.2617 52.1915,-58.4687 80.6094,-77.0312 37.2617,-24.3399 74.25,-35.5274 105.3125,-39.7383 -30.9922,4.1992 -68.2617,12.3906 -107.25,32.3476 -29.7617,15.2305 -59.3515,36.711 -88.0117,66.8868 -25.5508,26.9062 -49.3594,59.6679 -71.4805,98.8125 -21.0703,37.2851 -39.8906,79.0781 -56.8711,124.7421 -28.1992,75.8204 -50.1992,159.379 -68.1093,241.1875 0.4218,-8.5937 0.75,-16.1093 1.1992,-25.1367 7.0625,-142.9687 17.75,-306.914 40.6133,-459.289 11.207,-74.711 25.1367,-145.5703 42.6367,-210.9532 18.3711,-68.6484 40.1133,-129.16012 65.5898,-181.30856 28.6407,-58.60156 60.75,-104.05078 95.4414,-138.5 41.9297,-41.64843 84.7422,-64.28906 122.6016,-76.12109 -37.8594,11.38281 -81.3125,31.16016 -125.4219,69.39062 -36.5586,31.69141 -71.7109,74.37891 -104.3984,131.35938 -29.1211,50.73047 -54.961,110.48047 -77.7695,179.24995 -21.7227,65.461 -39.9532,136.8321 -55.4532,212.3829 -31.6484,154.1757 -50.75,320.4687 -64.5468,463.9804 -8.9532,93.1211 -16.1407,175.3438 -22.0196,244.6993 -2.5703,-61.4571 -4.8633,-136.7266 -7.8906,-245.9649 -3.9922,-144.0351 -9.0195,-316.9805 -24.9727,-477.168 -7.8867,-79.2265 -18.3593,-155.0781 -32.4882,-226.11715 -14.8516,-74.63281 -33.1914,-141.14063 -55.4688,-199.70313 C 2817.6719,717.05078 2789,664.82031 2757.7891,623.07812 2720.1484,572.75 2681.2383,541.03125 2646.6484,519.23047 Z m 766.4727,111.48828 c 3.2695,-0.98047 6.5703,-2 9.75,-2.86719 -3.2109,0.86719 -6.4727,1.84766 -9.75,2.86719"
       id="path3"
       style="display:inline" />
  </g>
</svg>
