<?xml version="1.0" encoding="UTF-8" standalone="no"?>
<svg
   width="122.3"
   height="84.099998"
   version="1.1"
   id="svg1"
   xml:space="preserve"
   sodipodi:docname="mountain-laptop.svg"
   inkscape:version="1.4.2 (ebf0e94, 2025-05-08)"
   xmlns:inkscape="http://www.inkscape.org/namespaces/inkscape"
   xmlns:sodipodi="http://sodipodi.sourceforge.net/DTD/sodipodi-0.dtd"
   xmlns="http://www.w3.org/2000/svg"
   xmlns:svg="http://www.w3.org/2000/svg"
   xmlns:rdf="http://www.w3.org/1999/02/22-rdf-syntax-ns#"
   xmlns:cc="http://creativecommons.org/ns#"
   xmlns:dc="http://purl.org/dc/elements/1.1/"><sodipodi:namedview
     id="namedview1"
     pagecolor="#ffffff"
     bordercolor="#000000"
     borderopacity="0.25"
     inkscape:showpageshadow="2"
     inkscape:pageopacity="0.0"
     inkscape:pagecheckerboard="true"
     inkscape:deskcolor="#d1d1d1"
     inkscape:zoom="6.9322237"
     inkscape:cx="14.425386"
     inkscape:cy="62.894682"
     inkscape:window-width="2560"
     inkscape:window-height="1368"
     inkscape:window-x="2880"
     inkscape:window-y="520"
     inkscape:window-maximized="1"
     inkscape:current-layer="svg1" /><defs
     id="defs1"><filter
       style="color-interpolation-filters:sRGB"
       id="filter15"
       x="0"
       y="0"
       width="1"
       height="1"><feColorMatrix
         type="hueRotate"
         values="180"
         result="color1"
         id="feColorMatrix14" /><feColorMatrix
         values="-1 0 0 0 1 0 -1 0 0 1 0 0 -1 0 1 0.21 0.72 0.07 1 0 "
         result="fbSourceGraphic"
         id="feColorMatrix15" /><feColorMatrix
         result="fbSourceGraphicAlpha"
         in="fbSourceGraphic"
         values="0 0 0 -1 0 0 0 0 -1 0 0 0 0 -1 0 0 0 0 1 0"
         id="feColorMatrix16" /><feColorMatrix
         id="feColorMatrix17"
         type="hueRotate"
         values="180"
         result="color1"
         in="fbSourceGraphic" /><feColorMatrix
         id="feColorMatrix18"
         values="-1 0 0 0 1 0 -1 0 0 1 0 0 -1 0 1 0.21 0.72 0.07 1 0 "
         result="fbSourceGraphic" /><feColorMatrix
         result="fbSourceGraphicAlpha"
         in="fbSourceGraphic"
         values="0 0 0 -1 0 0 0 0 -1 0 0 0 0 -1 0 0 0 0 1 0"
         id="feColorMatrix19" /><feColorMatrix
         id="feColorMatrix20"
         type="hueRotate"
         values="180"
         result="color1"
         in="fbSourceGraphic" /><feColorMatrix
         id="feColorMatrix21"
         values="-1 0 0 0 1 0 -1 0 0 1 0 0 -1 0 1 0.21 0.72 0.07 1 0 "
         result="color2" /></filter></defs><title
     id="title1">Mountain Icon</title><path
     id="path1"
     inkscape:label="mountain"
     d="M 72.300781 0 L 50.699219 36.099609 L 37.900391 11.300781 L 0 84.099609 L 122.30078 83.800781 L 72.300781 0 z M 36.435547 38.244141 L 84.222656 38.244141 C 85.767908 38.244141 87.019531 39.497842 87.019531 41.042969 L 87.019531 74.207031 L 33.636719 74.207031 L 33.636719 41.042969 C 33.636719 39.497842 34.89042 38.244141 36.435547 38.244141 z M 38.28125 41.724609 C 37.73181 41.724609 37.287109 42.16931 37.287109 42.71875 L 37.287109 69.732422 C 37.287109 70.281861 37.73181 70.726563 38.28125 70.726562 L 82.375 70.726562 C 82.924314 70.726562 83.369141 70.281861 83.369141 69.732422 L 83.369141 42.71875 C 83.369141 42.16931 82.924314 41.724609 82.375 41.724609 L 38.28125 41.724609 z M 39.275391 43.712891 L 81.382812 43.712891 L 81.382812 68.738281 L 39.275391 68.738281 L 39.275391 43.712891 z M 29.513672 76.189453 L 52.785156 76.189453 C 52.784655 76.24851 52.767062 76.306052 52.777344 76.365234 L 53.347656 79.630859 C 53.431163 80.106572 53.842685 80.453125 54.326172 80.453125 L 66.330078 80.453125 C 66.813439 80.453125 67.225087 80.106572 67.308594 79.630859 L 67.878906 76.365234 C 67.889188 76.306052 67.87147 76.24851 67.871094 76.189453 L 91.142578 76.189453 L 91.142578 81.517578 L 89.742188 83.410156 L 30.914062 83.410156 L 29.513672 81.517578 L 29.513672 76.189453 z M 54.765625 76.189453 L 65.892578 76.189453 L 65.494141 78.464844 L 55.162109 78.464844 L 54.765625 76.189453 z " /><metadata
     id="metadata18"><rdf:RDF><cc:Work
         rdf:about=""><dc:title>Mountain Icon</dc:title></cc:Work></rdf:RDF></metadata></svg>
