<?xml version="1.0" encoding="UTF-8" standalone="no"?>
<!-- Generator: Adobe Illustrator 27.0.1, SVG Export Plug-In . SVG Version: 6.00 Build 0)  -->

<svg
   version="1.1"
   id="Layer_1"
   x="0px"
   y="0px"
   viewBox="0 0 678.00018 744"
   xml:space="preserve"
   sodipodi:docname="csss_logo.svg"
   width="678.00018"
   height="744"
   inkscape:version="1.4.2 (ebf0e94, 2025-05-08)"
   xmlns:inkscape="http://www.inkscape.org/namespaces/inkscape"
   xmlns:sodipodi="http://sodipodi.sourceforge.net/DTD/sodipodi-0.dtd"
   xmlns="http://www.w3.org/2000/svg"
   xmlns:svg="http://www.w3.org/2000/svg"><defs
   id="defs4" /><sodipodi:namedview
   id="namedview4"
   pagecolor="#ffffff"
   bordercolor="#000000"
   borderopacity="0.25"
   inkscape:showpageshadow="2"
   inkscape:pageopacity="0.0"
   inkscape:pagecheckerboard="0"
   inkscape:deskcolor="#d1d1d1"
   inkscape:zoom="1.4575"
   inkscape:cx="343.73928"
   inkscape:cy="329.33105"
   inkscape:window-width="2560"
   inkscape:window-height="1368"
   inkscape:window-x="2880"
   inkscape:window-y="40"
   inkscape:window-maximized="1"
   inkscape:current-layer="Layer_1" />
<style
   type="text/css"
   id="style1">
	.st0{fill-rule:evenodd;clip-rule:evenodd;}
</style>
<g
   id="g4"
   transform="translate(-56,-16)">
	<path
   class="st0"
   d="m 248,160 v 208 c 0,8.8 7.2,16 16,16 h 120 c 4.4,0 8,3.6 8,8 v 32 c 0,4.4 -3.6,8 -8,8 H 224 c -13.2,0 -24,-10.8 -24,-24 V 120 c 0,-13.2 10.8,-24 24,-24 h 160 c 4.4,0 8,3.6 8,8 v 32 c 0,4.4 -3.6,8 -8,8 H 264 c -8.8,0 -16,7.2 -16,16 z"
   id="path1" />
	<path
   class="st0"
   d="m 456,72 v 16 c 0,4.4 3.6,8 8,8 h 112 c 13.2,0 24,10.8 24,24 v 288 c 0,13.2 -10.8,24 -24,24 H 416 c -4.4,0 -8,-3.6 -8,-8 v -32 c 0,-4.4 3.6,-8 8,-8 h 120 c 8.8,0 16,-7.2 16,-16 V 160 c 0,-8.8 -7.2,-16 -16,-16 H 416 c -4.4,0 -8,-3.6 -8,-8 V 40 c 0,-13.2 10.8,-24 24,-24 h 160 c 4.4,0 8,3.6 8,8 v 32 c 0,4.4 -3.6,8 -8,8 H 464 c -4.4,0 -8,3.6 -8,8 z"
   id="path2" />
	<path
   class="st0"
   d="M 708,680 H 416 c -4.4,0 -8,-3.6 -8,-8 v -32 c 0,-4.4 3.6,-8 8,-8 h 244 c 0.5,0 1,0 1.5,-0.1 10.9,-0.8 17.2,-10.2 15.2,-22 -0.2,-0.8 -0.3,-1.7 -0.6,-2.5 L 661.6,554 c 0,0 0,-0.1 0,-0.1 0,0 0,-0.1 0,-0.1 -1.5,-5.4 -7.4,-9.8 -13.1,-9.8 H 416 c -4.4,0 -8,-3.6 -8,-8 v -80 c 0,-4.4 3.6,-8 8,-8 h 176 c 4.4,0 8,3.6 8,8 v 24 c 0,4.4 -3.6,8 -8,8 H 452 c -2.2,0 -4,1.8 -4,4 v 8 c 0,2.2 1.8,4 4,4 h 216 c 11,0 22.8,8.6 26.2,19.6 l 6.5,20.4 28,88 3.4,10.7 C 738.6,663 727.9,680 708,680 Z"
   id="path3" />
	<path
   class="st0"
   d="m 123.2,610 c -2,11.7 4.3,21.1 15.2,22 0.5,0 1.1,0.1 1.6,0.1 h 229.2 c 12.6,0 22.8,10.3 22.8,23.4 V 736 c 0,13.2 -10.8,24 -24,24 H 64 c -4.4,0 -8,-3.6 -8,-8 v -32 c 0,-4.4 3.6,-8 8,-8 h 272 c 4.4,0 8,-3.6 8,-8 v -16 c 0,-4.4 -3.6,-8 -8,-8 H 92 C 72.1,680 61.4,663 67.9,642.7 l 3.4,-10.7 28,-88 6.5,-20.4 C 109.3,512.7 121,504 132,504 h 252 c 4.4,0 8,3.6 8,8 v 24 c 0,4.4 -3.6,8 -8,8 H 151.5 c -5.7,0 -11.6,4.3 -13.1,9.8 0,0 0,0.1 0,0.1 0,0 0,0.1 0,0.1 l -14.6,53.4 c -0.2,0.9 -0.4,1.7 -0.6,2.6 z"
   id="path4" />
</g>
</svg>
