<svg xmlns="http://www.w3.org/2000/svg" xml:space="preserve" id="Layer_1" x="0" y="0" version="1.1" viewBox="0 0 678 744"><style id="style1" type="text/css">.st0{fill-rule:evenodd;clip-rule:evenodd}</style><g id="g4" transform="translate(-56 -16)"><path id="path1" d="M248 160v208c0 9 7 16 16 16h120c4 0 8 4 8 8v32c0 4-4 8-8 8H224c-13 0-24-11-24-24V120c0-13 11-24 24-24h160c4 0 8 4 8 8v32c0 4-4 8-8 8H264c-9 0-16 7-16 16z" class="st0"/><path id="path2" d="M456 72v16c0 4 4 8 8 8h112c13 0 24 11 24 24v288c0 13-11 24-24 24H416c-4 0-8-4-8-8v-32c0-4 4-8 8-8h120c9 0 16-7 16-16V160c0-9-7-16-16-16H416c-4 0-8-4-8-8V40c0-13 11-24 24-24h160c4 0 8 4 8 8v32c0 4-4 8-8 8H464c-4 0-8 4-8 8z" class="st0"/><path id="path3" d="M708 680H416c-4 0-8-4-8-8v-32c0-4 4-8 8-8h246c10-1 17-10 15-22l-1-3-14-53c-2-6-8-10-13-10H416c-4 0-8-4-8-8v-80c0-4 4-8 8-8h176c4 0 8 4 8 8v24c0 4-4 8-8 8H452c-2 0-4 2-4 4v8c0 2 2 4 4 4h216c11 0 23 9 26 20l7 20 28 88 3 11c7 20-4 37-24 37Z" class="st0"/><path id="path4" d="M123 610c-2 12 5 21 15 22h231c13 0 23 10 23 24v80c0 13-11 24-24 24H64c-4 0-8-4-8-8v-32c0-4 4-8 8-8h272c4 0 8-4 8-8v-16c0-4-4-8-8-8H92c-20 0-31-17-24-37l3-11 28-88 7-20c3-11 15-20 26-20h252c4 0 8 4 8 8v24c0 4-4 8-8 8H152c-6 0-12 4-14 10l-14 53-1 3z" class="st0"/></g></svg>
