<?xml version="1.0" encoding="utf-8"?>
<!-- Generator: Adobe Illustrator 27.0.1, SVG Export Plug-In . SVG Version: 6.00 Build 0)  -->
<svg version="1.1" id="Layer_1" xmlns:serif="http://www.serif.com/"
	 xmlns="http://www.w3.org/2000/svg" xmlns:xlink="http://www.w3.org/1999/xlink" x="0px" y="0px" viewBox="0 0 256 256"
	 style="enable-background:new 0 0 256 256;" xml:space="preserve">
<g>
	<path d="M239.1,224H140c-2.2,0-4-1.8-4-4v-8c0-2.2,1.8-4,4-4h78c2.2-0.2,3.2-1.9,2.1-4l-5-10.1c-0.6-1.1-2-1.9-3.2-1.9H140
		c-2.2,0-4-1.8-4-4v-40c0-2.2,1.8-4,4-4h56c2.2,0,4,1.8,4,4v8c0,2.2-1.8,4-4,4h-40c-2.2,0-4,1.8-4,4v8c0,2.2,1.8,4,4,4h63.5
		c2.5,0,5.4,1.8,6.5,4l18,36C246.2,220.4,244,224,239.1,224z"/>
	<path d="M40.9,193.9l-5,10.1c-1.1,2.1-0.1,3.8,2.1,4h74c4.4,0,8,3.6,8,8v32c0,4.4-3.6,8-8,8H12c-2.2,0-4-1.8-4-4v-8
		c0-2.2,1.8-4,4-4h88c2.2,0,4-1.8,4-4v-8c0-2.2-1.8-4-4-4H16.9c-4.9,0-7.2-3.6-4.9-8l18-36c1.1-2.2,4-4,6.5-4H116c2.2,0,4,1.8,4,4v8
		c0,2.2-1.8,4-4,4H44.1C42.9,192,41.5,192.8,40.9,193.9"/>
	<path d="M152,20v8c0,2.2,1.8,4,4,4h36c4.4,0,8,3.6,8,8v80c0,4.4-3.6,8-8,8h-52c-2.2,0-4-1.8-4-4v-8c0-2.2,1.8-4,4-4h40
		c2.2,0,4-1.8,4-4V52c0-2.2-1.8-4-4-4h-40c-2.2,0-4-1.8-4-4V8c0-4.4,3.6-8,8-8h52c2.2,0,4,1.8,4,4v8c0,2.2-1.8,4-4,4h-40
		C153.8,16,152,17.8,152,20z"/>
	<path d="M72,52v56c0,2.2,1.8,4,4,4h40c2.2,0,4,1.8,4,4v8c0,2.2-1.8,4-4,4H64c-4.4,0-8-3.6-8-8V40c0-4.4,3.6-8,8-8h52
		c2.2,0,4,1.8,4,4v8c0,2.2-1.8,4-4,4H76C73.8,48,72,49.8,72,52z"/>
</g>
</svg>
