<svg width="1374" height="261" viewBox="0 0 1374 261" fill="none" xmlns="http://www.w3.org/2000/svg">
<g clip-path="url(#clip0_1_355)">
<path d="M222.001 38.0898C246.262 62.5047 259.856 95.542 259.802 129.962C259.747 164.381 246.05 197.376 221.712 221.714C197.373 246.053 164.379 259.75 129.959 259.804C95.5397 259.858 62.5023 246.265 38.0875 222.003L37.9031 221.819C37.7634 221.68 37.6276 221.543 37.4954 221.404C33.3973 217.089 31.1639 211.333 31.2789 205.383C31.3939 199.433 33.848 193.768 38.1099 189.614C42.3717 185.461 48.0982 183.153 54.0491 183.191C60 183.229 65.6964 185.61 69.9047 189.818L70.0882 190.002C85.9566 205.912 107.492 214.873 129.963 214.916C152.434 214.958 174.003 206.079 189.931 190.229C205.86 174.379 214.845 152.854 214.913 130.383C214.981 107.912 206.127 86.3328 190.295 70.3862C190.197 70.2876 190.098 70.1894 190 70.0916C194.259 74.2579 199.99 76.5762 205.948 76.5432C211.906 76.5102 217.611 74.1287 221.825 69.9155C226.038 65.7023 228.419 59.9975 228.452 54.0392C228.485 48.0809 226.167 42.3501 222.001 38.0905V38.0898Z" fill="#FFDF00"/>
<path d="M221.82 37.9075L222.004 38.0915C226.166 42.3518 228.481 48.0814 228.446 54.0375C228.412 59.9936 226.031 65.6959 221.819 69.9076C217.607 74.1192 211.905 76.5007 205.949 76.5353C199.993 76.57 194.263 74.255 190.003 70.0926L189.818 69.9086C173.904 54.0681 152.357 45.1867 129.903 45.2126C107.449 45.2386 85.9226 54.1699 70.0454 70.0472C54.1682 85.9245 45.237 107.451 45.2111 129.905C45.1852 152.359 54.0668 173.906 69.9074 189.82C65.6991 185.612 60.0027 183.232 54.0518 183.193C48.1008 183.155 42.3744 185.463 38.1125 189.616C33.8507 193.77 31.3966 199.435 31.2815 205.385C31.1665 211.335 33.3999 217.091 37.4981 221.406C13.3719 196.964 -0.106243 163.971 0.00532584 129.628C0.116895 95.2846 13.8091 62.3798 38.0936 38.0953C62.3781 13.8108 95.2828 0.118435 129.626 0.00679161C163.969 -0.104852 196.962 13.3732 221.404 37.4994C221.543 37.6315 221.678 37.7679 221.82 37.9075Z" fill="#24A98B"/>
<path d="M189.816 69.9067L190.001 70.0907C205.848 86.0033 214.735 107.553 214.712 130.01C214.689 152.468 205.757 173.999 189.877 189.879C173.997 205.759 152.466 214.69 130.008 214.713C107.551 214.736 86.0013 205.849 70.0888 190.002L69.9054 189.818C54.0764 173.901 45.2048 152.358 45.2357 129.91C45.2666 107.463 54.1974 85.944 70.0701 70.0713C85.9428 54.1986 107.462 45.2678 129.909 45.2369C152.357 45.206 173.9 54.0776 189.816 69.9066V69.9067Z" fill="white" stroke="black" stroke-width="2.24769" stroke-miterlimit="10"/>
<path d="M189.99 69.6904L190.174 69.8743C206.076 85.7756 215.009 107.342 215.009 129.83C215.009 152.318 206.076 173.885 190.174 189.786C174.273 205.687 152.706 214.621 130.218 214.621C107.73 214.621 86.1636 205.687 70.2624 189.786L70.0789 189.602C54.2383 173.688 45.3567 152.141 45.3826 129.687C45.4085 107.233 54.3397 85.7063 70.2169 69.829C86.0942 53.9517 107.621 45.0204 130.075 44.9944C152.529 44.9685 174.076 53.8499 189.99 69.6904Z" fill="black"/>
<path d="M150.347 82.835C155.736 84.9218 160.651 88.0726 164.796 92.0995L154.286 104.407C148.451 99.3292 141.004 96.4873 133.269 96.3868C129.961 96.209 126.678 97.054 123.866 98.8069C122.743 99.58 121.836 100.627 121.231 101.849C120.626 103.071 120.343 104.428 120.409 105.79C120.327 107.639 120.862 109.463 121.93 110.975C123.405 112.647 125.253 113.949 127.323 114.777C131.11 116.428 134.988 117.859 138.938 119.064C148.709 122.199 155.899 126.048 160.51 130.61C165.12 135.172 167.424 141.648 167.421 150.038C167.531 155.655 165.94 161.174 162.858 165.871C159.598 170.612 155.036 174.31 149.722 176.518C143.287 179.192 136.363 180.487 129.396 180.32C122.282 180.453 115.21 179.184 108.586 176.586C102.821 174.274 97.5439 170.896 93.0298 166.63L104.506 154.047C107.9 157.002 111.754 159.384 115.914 161.099C119.987 162.696 124.33 163.494 128.705 163.45C133.406 163.45 137.117 162.413 139.836 160.339C141.166 159.337 142.232 158.027 142.942 156.522C143.653 155.016 143.986 153.36 143.913 151.697C143.988 149.587 143.46 147.5 142.391 145.68C141.053 143.792 139.241 142.289 137.138 141.324C133.663 139.646 130.056 138.259 126.352 137.176C115.749 133.95 108.213 129.986 103.744 125.284C101.508 122.898 99.7645 120.094 98.6137 117.033C97.4629 113.972 96.9273 110.714 97.0374 107.446C96.9384 102.239 98.4871 97.1329 101.463 92.8581C104.572 88.5373 108.838 85.182 113.77 83.1781C119.422 80.843 125.492 79.6903 131.607 79.791C137.987 79.6563 144.338 80.6879 150.347 82.835Z" fill="white"/>
<path d="M348.052 117.487C342.316 117.6 336.622 116.49 331.348 114.232C326.743 112.249 322.786 109.016 319.925 104.898C317.04 100.508 315.542 95.3512 315.627 90.0982H332.208C332.285 93.9149 333.85 97.5506 336.568 100.231C339.311 102.975 343.097 104.347 347.929 104.345C351.495 104.537 355.015 103.473 357.877 101.337C359.076 100.376 360.033 99.1478 360.673 97.751C361.313 96.3542 361.617 94.8271 361.561 93.2918C361.647 91.7662 361.401 90.2401 360.839 88.8192C360.277 87.3983 359.413 86.1165 358.306 85.0626C355.775 82.8942 352.829 81.2645 349.647 80.2728C346.044 79.0448 342.196 77.7348 338.104 76.3429C331.47 74.0517 326.414 71.1039 322.935 67.4997C319.453 63.8974 317.713 59.1076 317.715 53.1304C317.508 48.4969 318.776 43.9172 321.338 40.0506C323.916 36.3398 327.463 33.4084 331.593 31.576C336.371 29.5795 341.498 28.5565 346.676 28.567C351.853 28.5774 356.977 29.6211 361.746 31.637C365.908 33.5029 369.477 36.4771 372.063 40.2344C374.628 44.1408 376.013 48.7033 376.054 53.3764H359.228C359.144 50.3432 357.89 47.4603 355.727 45.3314C354.49 44.1286 353.015 43.1963 351.398 42.5938C349.78 41.9912 348.055 41.7315 346.332 41.8313C343.242 41.6464 340.183 42.5359 337.674 44.3489C336.509 45.2464 335.581 46.4149 334.971 47.7527C334.361 49.0905 334.087 50.5571 334.173 52.025C334.11 53.2882 334.319 54.5501 334.785 55.7259C335.251 56.9016 335.964 57.9639 336.874 58.8414C339.027 60.7267 341.532 62.1669 344.244 63.0787C347.355 64.2262 350.917 65.4544 354.93 66.7633C358.962 68.1382 362.867 69.8643 366.598 71.9219C370.015 73.7933 372.924 76.4704 375.072 79.7208C377.339 83.4717 378.449 87.8078 378.264 92.1866C378.289 96.5989 377.1 100.933 374.826 104.715C372.375 108.708 368.84 111.924 364.632 113.987C359.466 116.467 353.779 117.667 348.052 117.487Z" fill="#0B151C"/>
<path d="M420.881 117.486C415.314 117.57 409.824 116.171 404.976 113.433C400.302 110.766 396.44 106.882 393.799 102.194C390.981 97.1084 389.561 91.3661 389.685 85.5527C389.562 79.7315 391.004 73.9839 393.861 68.9104C396.536 64.2281 400.416 60.3478 405.099 57.6727C409.956 55.0136 415.405 53.6199 420.943 53.6199C426.48 53.6199 431.929 55.0136 436.786 57.6727C441.459 60.3403 445.321 64.2237 447.963 68.9104C450.781 73.9969 452.2 79.7392 452.077 85.5527C452.2 91.366 450.781 97.1081 447.963 102.194C445.309 106.893 441.423 110.779 436.725 113.433C431.893 116.156 426.427 117.554 420.881 117.486ZM420.881 103.853C422.883 103.863 424.866 103.459 426.704 102.666C428.543 101.874 430.198 100.71 431.566 99.2473C434.594 96.1767 436.109 91.6119 436.11 85.553C436.111 79.494 434.596 74.9292 431.566 71.8585C430.198 70.4042 428.547 69.2452 426.715 68.453C424.883 67.6608 422.907 67.2521 420.911 67.2521C418.915 67.2521 416.94 67.6608 415.107 68.453C413.275 69.2452 411.624 70.4042 410.257 71.8585C407.267 74.9297 405.773 79.4945 405.774 85.553C405.774 91.6133 407.268 96.1781 410.257 99.2473C411.61 100.712 413.254 101.878 415.083 102.671C416.912 103.464 418.887 103.867 420.881 103.853Z" fill="#0B151C"/>
<path d="M468.902 116.012V68.2349H460.55V55.0934H468.902V47.9701C468.902 40.6008 470.765 35.3605 474.49 32.2492C478.215 29.1379 483.272 27.5821 489.659 27.5818H496.414V40.9689H492.115C489.413 40.9689 487.489 41.5012 486.343 42.5658C485.197 43.6303 484.624 45.4318 484.623 47.9701V55.0934H497.765V68.2347H484.623V116.012H468.902Z" fill="#0B151C"/>
<path d="M537.31 116.011C530.924 116.011 525.807 114.456 521.958 111.344C518.11 108.233 516.185 102.706 516.186 94.7638V68.2348H505.746V55.0933H516.186L518.028 38.7578H531.907V55.0933H548.365V68.2346H531.907V94.8868C531.907 97.8345 532.541 99.8609 533.811 100.966C535.08 102.071 537.27 102.624 540.381 102.624H547.996V116.011H537.31Z" fill="#0B151C"/>
<path d="M573.787 116.012L555.979 55.0938H571.577L582.139 98.9398L594.421 55.0938H611.861L624.144 98.9398L634.828 55.0938H650.426L632.495 116.012H616.16L603.141 70.446L590.123 116.012H573.787Z" fill="#0B151C"/>
<path d="M678.305 117.486C673.87 117.65 669.457 116.789 665.409 114.968C662.308 113.522 659.702 111.194 657.917 108.275C656.277 105.485 655.428 102.3 655.461 99.0635C655.398 96.4092 655.966 93.778 657.119 91.3864C658.272 88.9948 659.977 86.9114 662.093 85.3077C666.514 81.7883 673.146 80.028 681.989 80.0268H697.464V78.5523C697.464 74.376 696.277 71.3056 693.903 69.341C691.403 67.3326 688.265 66.2868 685.06 66.3932C682.115 66.325 679.213 67.1142 676.708 68.6648C675.54 69.4044 674.541 70.3835 673.779 71.5374C673.017 72.6913 672.508 73.9938 672.287 75.3588H656.935C657.259 71.1528 658.819 67.1363 661.418 63.8137C664.062 60.4903 667.505 57.8916 671.426 56.2608C675.783 54.4493 680.465 53.5508 685.183 53.6207C693.86 53.6207 700.697 55.7902 705.693 60.1291C710.687 64.4703 713.185 70.6114 713.185 78.5525V116.012H699.799L698.325 106.187C696.515 109.471 693.92 112.255 690.771 114.292C687.02 116.56 682.684 117.671 678.305 117.486ZM681.866 105.204C683.838 105.311 685.807 104.969 687.627 104.203C689.446 103.437 691.067 102.267 692.368 100.782C694.943 97.6571 696.582 93.8679 697.095 89.8516H683.709C679.533 89.8516 676.544 90.609 674.743 92.1239C673.895 92.7864 673.21 93.6348 672.742 94.6037C672.273 95.5725 672.033 96.636 672.041 97.7121C671.993 98.7857 672.216 99.854 672.688 100.819C673.16 101.785 673.866 102.617 674.743 103.239C676.847 104.637 679.343 105.326 681.866 105.204Z" fill="#0B151C"/>
<path d="M728.169 116.011V55.093H742.171L743.645 66.5145C745.789 62.6537 748.899 59.4162 752.671 57.1194C756.738 54.7165 761.398 53.504 766.121 53.6199V70.1988H761.699C758.555 70.1471 755.43 70.6888 752.487 71.7957C749.801 72.847 747.564 74.8011 746.163 77.3223C744.647 79.9439 743.889 83.5876 743.89 88.2534V116.011H728.169Z" fill="#0B151C"/>
<path d="M805.301 117.486C799.61 117.595 793.985 116.242 788.966 113.555C784.276 110.994 780.402 107.164 777.79 102.502C775.016 97.4674 773.618 91.7905 773.737 86.0435C773.629 80.1881 775.002 74.4003 777.728 69.2175C780.267 64.4315 784.096 60.453 788.782 57.7338C793.861 54.8972 799.609 53.4767 805.424 53.6208C810.959 53.5103 816.425 54.8661 821.267 57.5506C825.764 60.0832 829.481 63.8001 832.014 68.2973C834.615 72.9252 835.949 78.157 835.883 83.4652C835.883 84.3669 835.863 85.3085 835.822 86.29C835.78 87.2721 835.718 88.2974 835.637 89.3599H789.335C789.382 91.4595 789.846 93.5288 790.7 95.4475C791.554 97.3663 792.78 99.0962 794.308 100.537C797.278 103.232 801.169 104.683 805.178 104.59C808.014 104.688 810.814 103.94 813.223 102.44C815.335 101.073 817.017 99.1356 818.075 96.8522H834.04C832.887 100.712 830.942 104.288 828.329 107.353C825.643 110.525 822.287 113.063 818.504 114.784C814.353 116.639 809.847 117.562 805.301 117.486ZM805.424 66.3933C801.762 66.334 798.181 67.4771 795.23 69.6475C792.127 72.078 790.099 75.627 789.58 79.5343H819.916C819.874 77.7199 819.46 75.9334 818.7 74.2856C817.939 72.6377 816.848 71.1637 815.494 69.9548C812.703 67.5477 809.109 66.2767 805.424 66.3933Z" fill="#0B151C"/>
<path d="M908.099 117.485C902.363 117.598 896.668 116.489 891.394 114.231C886.789 112.248 882.832 109.014 879.972 104.897C877.086 100.507 875.588 95.3498 875.673 90.0967H892.255C892.332 93.9134 893.896 97.5491 896.615 100.229C899.357 102.974 903.144 104.345 907.975 104.344C911.541 104.536 915.062 103.471 917.924 101.335C919.122 100.374 920.08 99.1463 920.719 97.7495C921.359 96.3527 921.663 94.8257 921.608 93.2904C921.694 91.7648 921.447 90.2387 920.885 88.8178C920.323 87.3969 919.459 86.1151 918.353 85.0612C915.822 82.8928 912.876 81.263 909.694 80.2713C906.091 79.0433 902.243 77.7333 898.15 76.3414C891.517 74.0502 886.461 71.1024 882.981 67.4982C879.5 63.8959 877.76 59.1062 877.762 53.1289C877.555 48.4955 878.823 43.9158 881.384 40.0491C883.962 36.3383 887.51 33.4069 891.64 31.5745C896.417 29.578 901.545 28.555 906.722 28.5655C911.9 28.576 917.023 29.6197 921.792 31.6355C925.954 33.5015 929.523 36.4757 932.109 40.233C934.675 44.1393 936.06 48.7018 936.1 53.3749H919.275C919.191 50.3418 917.936 47.4589 915.774 45.33C914.536 44.1272 913.062 43.1949 911.444 42.5923C909.827 41.9897 908.102 41.7301 906.379 41.8298C903.289 41.645 900.229 42.5344 897.72 44.3474C896.555 45.245 895.628 46.4135 895.017 47.7513C894.407 49.0891 894.133 50.5557 894.219 52.0236C894.157 53.2868 894.366 54.5487 894.832 55.7244C895.298 56.9001 896.01 57.9625 896.921 58.8399C899.073 60.7252 901.578 62.1654 904.29 63.0772C907.401 64.2247 910.963 65.4529 914.976 66.7618C919.009 68.1367 922.913 69.8629 926.644 71.9204C930.061 73.7918 932.97 76.4689 935.119 79.7193C937.385 83.4702 938.496 87.8064 938.311 92.1851C938.336 96.5974 937.146 100.932 934.873 104.713C932.421 108.707 928.886 111.922 924.679 113.986C919.512 116.465 913.826 117.665 908.099 117.485Z" fill="#0B151C"/>
<path d="M959.312 143.032L973.436 111.959H969.752L946.047 55.0938H963.118L980.19 97.9571L998 55.0938H1014.7L976.015 143.032L959.312 143.032Z" fill="#0B151C"/>
<path d="M1047.25 117.485C1042.37 117.585 1037.52 116.686 1033 114.845C1029.16 113.277 1025.78 110.763 1023.18 107.537C1020.72 104.421 1019.19 100.676 1018.76 96.729H1034.6C1035.14 99.1777 1036.56 101.342 1038.59 102.809C1041.03 104.573 1044 105.46 1047 105.326C1050.44 105.326 1052.96 104.631 1054.56 103.239C1055.29 102.669 1055.88 101.943 1056.3 101.114C1056.71 100.286 1056.93 99.375 1056.95 98.4488C1057.04 97.3054 1056.75 96.1655 1056.13 95.2015C1055.51 94.2375 1054.59 93.5017 1053.51 93.1055C1050.4 91.924 1047.2 90.9998 1043.93 90.3421C1041.31 89.77 1038.65 89.074 1035.95 88.2542C1033.37 87.4866 1030.87 86.4362 1028.52 85.1221C1026.34 83.9248 1024.48 82.244 1023.05 80.2094C1021.6 78.0093 1020.87 75.4127 1020.96 72.7793C1020.94 70.1672 1021.51 67.5831 1022.62 65.2218C1023.74 62.8604 1025.38 60.7832 1027.41 59.1465C1031.71 55.4617 1037.75 53.6195 1045.53 53.6199C1052.73 53.6199 1058.49 55.2983 1062.79 58.6552C1064.93 60.3392 1066.71 62.4347 1068.03 64.8182C1069.34 67.2017 1070.17 69.825 1070.46 72.5334H1055.6C1054.7 68.0314 1051.3 65.7798 1045.41 65.7786C1043.01 65.6307 1040.63 66.2315 1038.59 67.4977C1037.86 67.9561 1037.26 68.59 1036.84 69.3411C1036.43 70.0922 1036.2 70.9365 1036.2 71.7964C1036.2 73.5985 1037.38 75.0314 1039.76 76.0952C1042.81 77.3752 1045.98 78.3622 1049.21 79.0428C1053.47 80.0257 1057.38 81.1104 1060.94 82.297C1064.2 83.2919 1067.14 85.1113 1069.48 87.5784C1071.61 89.9123 1072.67 93.2489 1072.67 97.5883C1072.79 101.213 1071.76 104.782 1069.73 107.783C1067.51 110.947 1064.45 113.418 1060.88 114.906C1056.57 116.716 1051.92 117.595 1047.25 117.485Z" fill="#0B151C"/>
<path d="M1111.73 116.011C1105.34 116.011 1100.23 114.456 1096.38 111.344C1092.53 108.233 1090.6 102.706 1090.61 94.7638V68.2348H1080.17V55.0933H1090.61L1092.45 38.7578H1106.33V55.0933H1122.78V68.2346H1106.33V94.8868C1106.33 97.8345 1106.96 99.8609 1108.23 100.966C1109.5 102.071 1111.69 102.624 1114.8 102.624H1122.42V116.011H1111.73Z" fill="#0B151C"/>
<path d="M1164.3 117.486C1158.61 117.595 1152.98 116.242 1147.96 113.555C1143.27 110.994 1139.4 107.164 1136.79 102.502C1134.01 97.4674 1132.61 91.7905 1132.73 86.0435C1132.62 80.1882 1134 74.4004 1136.72 69.2175C1139.26 64.4315 1143.09 60.4531 1147.78 57.7338C1152.86 54.897 1158.6 53.4766 1164.42 53.6208C1169.96 53.5103 1175.42 54.8661 1180.26 57.5506C1184.76 60.0832 1188.48 63.8001 1191.01 68.2973C1193.61 72.9255 1194.94 78.1574 1194.88 83.4657C1194.88 84.3674 1194.86 85.309 1194.82 86.2906C1194.78 87.2727 1194.71 88.298 1194.63 89.3605H1148.33C1148.38 91.4601 1148.84 93.5293 1149.7 95.4481C1150.55 97.3668 1151.78 99.0968 1153.3 100.537C1156.27 103.232 1160.17 104.683 1164.17 104.59C1167.01 104.688 1169.81 103.94 1172.22 102.44C1174.33 101.073 1176.01 99.1357 1177.07 96.8522H1193.04C1191.88 100.712 1189.94 104.288 1187.32 107.353C1184.64 110.525 1181.28 113.063 1177.5 114.784C1173.35 116.639 1168.84 117.562 1164.3 117.486ZM1164.42 66.3933C1160.76 66.3341 1157.18 67.4772 1154.23 69.6475C1151.12 72.078 1149.1 75.627 1148.58 79.5343H1178.91C1178.87 77.7199 1178.46 75.9334 1177.7 74.2856C1176.93 72.6377 1175.84 71.1637 1174.49 69.9548C1171.7 67.5478 1168.1 66.2767 1164.42 66.3933Z" fill="#0B151C"/>
<path d="M1208.14 116.012V55.0936H1222.02L1223.37 63.3223C1225.35 60.362 1228.03 57.9361 1231.17 56.2601C1234.63 54.4453 1238.5 53.5371 1242.41 53.6205C1251.82 53.6205 1258.5 57.264 1262.43 64.5509C1264.66 61.1713 1267.73 58.4224 1271.33 56.5675C1275.1 54.5923 1279.3 53.5799 1283.55 53.6205C1291.5 53.6205 1297.6 55.995 1301.85 60.7439C1306.11 65.4935 1308.24 72.4531 1308.24 81.6227V116.013H1292.52V83.0956C1292.52 77.8566 1291.52 73.8446 1289.51 71.0594C1287.5 68.2772 1284.41 66.8853 1280.24 66.8836C1278.28 66.8168 1276.34 67.2033 1274.56 68.013C1272.78 68.8227 1271.22 70.0335 1269.98 71.5505C1267.4 74.6637 1266.11 79.0034 1266.11 84.5695V116.012H1250.39V83.0956C1250.39 77.8566 1249.37 73.8446 1247.32 71.0594C1245.27 68.2772 1242.12 66.8853 1237.87 66.8836C1235.93 66.8259 1234.01 67.2172 1232.25 68.0269C1230.49 68.8366 1228.95 70.0427 1227.73 71.5505C1225.15 74.6637 1223.86 79.0034 1223.86 84.5695V116.012H1208.14Z" fill="#0B151C"/>
<path d="M1348.4 117.485C1343.52 117.585 1338.67 116.686 1334.16 114.845C1330.32 113.277 1326.94 110.763 1324.33 107.537C1321.87 104.421 1320.34 100.676 1319.91 96.729H1335.75C1336.29 99.1777 1337.71 101.342 1339.74 102.809C1342.18 104.573 1345.15 105.46 1348.16 105.326C1351.59 105.326 1354.11 104.63 1355.71 103.239C1356.44 102.669 1357.03 101.943 1357.45 101.114C1357.86 100.286 1358.09 99.375 1358.1 98.4488C1358.19 97.3054 1357.9 96.1656 1357.28 95.2015C1356.66 94.2375 1355.74 93.5017 1354.66 93.1055C1351.55 91.924 1348.35 90.9998 1345.09 90.3421C1342.46 89.77 1339.8 89.074 1337.1 88.2542C1334.52 87.4866 1332.03 86.4362 1329.67 85.1221C1327.5 83.9248 1325.63 82.244 1324.21 80.2094C1322.76 78.0093 1322.03 75.4127 1322.12 72.7793C1322.09 70.1671 1322.66 67.5831 1323.78 65.2218C1324.89 62.8604 1326.53 60.7832 1328.57 59.1465C1332.86 55.4617 1338.9 53.6195 1346.68 53.6199C1353.89 53.6199 1359.64 55.2983 1363.94 58.6552C1366.08 60.3392 1367.86 62.4347 1369.18 64.8182C1370.5 67.2017 1371.32 69.825 1371.61 72.5334H1356.75C1355.85 68.0314 1352.45 65.7798 1346.56 65.7786C1344.16 65.6307 1341.78 66.2315 1339.74 67.4977C1339.02 67.956 1338.42 68.5899 1338 69.3411C1337.58 70.0922 1337.35 70.9365 1337.35 71.7964C1337.35 73.5985 1338.54 75.0314 1340.91 76.0952C1343.96 77.3752 1347.13 78.3622 1350.37 79.0428C1354.62 80.0257 1358.53 81.1104 1362.1 82.297C1365.35 83.2919 1368.29 85.1113 1370.63 87.5784C1372.76 89.9122 1373.82 93.2489 1373.83 97.5883C1373.95 101.213 1372.92 104.782 1370.88 107.782C1368.66 110.947 1365.6 113.418 1362.03 114.906C1357.72 116.716 1353.08 117.595 1348.4 117.485Z" fill="#0B151C"/>
<path d="M334.419 237.229C330.672 237.318 326.956 236.541 323.558 234.96C320.625 233.579 318.149 231.385 316.425 228.639C314.714 225.806 313.843 222.545 313.913 219.236H321.046C321.026 221.374 321.556 223.482 322.585 225.356C323.63 227.24 325.191 228.786 327.084 229.814C329.345 230.99 331.872 231.563 334.419 231.475C337.628 231.679 340.8 230.698 343.334 228.72C344.343 227.881 345.151 226.827 345.698 225.634C346.245 224.442 346.517 223.142 346.495 221.83C346.589 219.9 346.079 217.987 345.037 216.359C344.014 214.939 342.666 213.786 341.105 212.996C339.289 212.064 337.389 211.304 335.431 210.726C333.297 210.078 331.068 209.349 328.744 208.538C325.1 207.461 321.766 205.53 319.018 202.905C316.851 200.502 315.715 197.343 315.858 194.111C315.754 191.274 316.487 188.469 317.966 186.046C319.468 183.658 321.618 181.746 324.166 180.535C327.145 179.146 330.404 178.466 333.69 178.549C336.953 178.471 340.188 179.165 343.132 180.576C345.691 181.824 347.852 183.76 349.372 186.168C350.875 188.605 351.675 191.41 351.683 194.273H344.55C344.534 192.643 344.116 191.042 343.334 189.613C342.485 188.033 341.206 186.727 339.646 185.843C337.747 184.81 335.606 184.306 333.445 184.385C330.717 184.219 328.023 185.055 325.867 186.735C324.886 187.551 324.109 188.583 323.596 189.751C323.082 190.918 322.847 192.189 322.909 193.463C322.841 194.488 322.99 195.516 323.346 196.479C323.703 197.443 324.258 198.32 324.976 199.055C326.657 200.524 328.633 201.616 330.771 202.257C333.256 203.095 336.119 204.054 339.362 205.134C341.898 206.029 344.341 207.169 346.657 208.538C348.742 209.759 350.484 211.488 351.722 213.563C353.025 215.972 353.655 218.688 353.546 221.425C353.547 224.121 352.819 226.768 351.439 229.084C349.913 231.603 347.707 233.639 345.076 234.961C341.763 236.579 338.103 237.358 334.419 237.229Z" fill="#0B151C"/>
<path d="M378.671 236.256C375.553 236.435 372.474 235.486 369.998 233.582C367.891 231.799 366.838 228.583 366.838 223.936V201.81H359.867V196.055H366.838L367.73 186.41H373.646V196.055H385.479V201.81H373.646V223.937C373.646 226.478 374.159 228.193 375.186 229.083C376.211 229.975 378.021 230.421 380.616 230.421H384.831V236.256L378.671 236.256Z" fill="#0B151C"/>
<path d="M408.821 237.228C406.732 237.331 404.645 236.999 402.691 236.252C400.738 235.506 398.961 234.362 397.473 232.892C394.662 230.002 393.258 225.558 393.259 219.559V196.055H400.068V218.83C400.068 227.206 403.498 231.394 410.36 231.393C411.999 231.435 413.627 231.119 415.132 230.468C416.637 229.818 417.982 228.847 419.074 227.624C421.369 225.112 422.517 221.532 422.518 216.885V196.055H429.327V236.256H423.166L422.68 229.042C421.467 231.55 419.534 233.638 417.127 235.04C414.61 236.515 411.737 237.271 408.821 237.228Z" fill="#0B151C"/>
<path d="M458.748 237.228C455.06 237.311 451.423 236.356 448.252 234.473C445.272 232.657 442.858 230.047 441.281 226.935C439.591 223.568 438.743 219.841 438.809 216.075C438.74 212.316 439.603 208.598 441.322 205.254C442.918 202.177 445.329 199.597 448.292 197.797C451.483 195.929 455.132 194.989 458.829 195.082C461.869 195.023 464.877 195.719 467.582 197.109C470.055 198.396 472.108 200.365 473.498 202.782V177.9H480.307V236.256H474.146L473.498 229.61C472.016 231.732 470.112 233.526 467.906 234.879C465.146 236.533 461.964 237.35 458.748 237.228ZM459.477 231.312C461.999 231.36 464.484 230.7 466.649 229.407C468.737 228.129 470.423 226.289 471.513 224.098C472.661 221.607 473.255 218.897 473.255 216.155C473.255 213.413 472.661 210.703 471.513 208.212C470.422 206.021 468.737 204.182 466.649 202.903C464.484 201.611 461.999 200.951 459.477 200.999C456.982 200.958 454.525 201.618 452.385 202.903C450.298 204.181 448.612 206.021 447.522 208.212C446.374 210.703 445.78 213.413 445.78 216.155C445.78 218.897 446.374 221.607 447.522 224.098C448.611 226.29 450.297 228.13 452.385 229.407C454.524 230.693 456.982 231.353 459.477 231.312Z" fill="#0B151C"/>
<path d="M509.485 237.228C505.905 237.295 502.374 236.384 499.273 234.594C496.304 232.843 493.877 230.304 492.262 227.259C490.49 223.831 489.612 220.012 489.709 216.155C489.622 212.317 490.484 208.516 492.221 205.092C493.812 202.019 496.244 199.461 499.232 197.716C502.403 195.916 506.002 195.006 509.647 195.082C513.192 194.991 516.69 195.904 519.738 197.716C522.5 199.393 524.755 201.788 526.263 204.646C527.77 207.492 528.55 210.666 528.532 213.886C528.532 214.481 528.518 215.076 528.492 215.669C528.464 216.265 528.451 216.94 528.451 217.695H496.436C496.487 220.39 497.226 223.027 498.583 225.355C499.714 227.233 501.314 228.784 503.225 229.857C505.136 230.929 507.293 231.487 509.485 231.474C511.979 231.563 514.441 230.884 516.537 229.529C518.422 228.239 519.865 226.399 520.669 224.261H527.396C526.334 228.139 523.98 231.538 520.723 233.897C517.466 236.255 513.501 237.43 509.485 237.229V237.228ZM509.485 200.836C506.353 200.799 503.303 201.845 500.852 203.796C499.567 204.852 498.518 206.166 497.771 207.653C497.024 209.139 496.597 210.766 496.517 212.427H521.805C521.809 210.828 521.48 209.245 520.838 207.779C520.196 206.314 519.255 204.999 518.076 203.918C515.703 201.845 512.635 200.745 509.485 200.836Z" fill="#0B151C"/>
<path d="M537.526 236.256V196.055H543.686L544.092 203.268C545.345 200.776 547.286 198.695 549.685 197.271C552.186 195.793 555.047 195.035 557.952 195.082C560.046 194.983 562.138 195.316 564.098 196.062C566.058 196.809 567.842 197.951 569.34 199.418C572.176 202.31 573.594 206.754 573.594 212.751V236.256H566.786V213.481C566.786 205.106 563.328 200.918 556.412 200.918C554.786 200.882 553.171 201.2 551.681 201.851C550.19 202.502 548.859 203.47 547.78 204.687C545.483 207.2 544.335 210.779 544.335 215.426V236.256H537.526Z" fill="#0B151C"/>
<path d="M599.773 236.256C596.654 236.435 593.576 235.486 591.1 233.582C588.993 231.799 587.939 228.583 587.939 223.936V201.81H580.968V196.055H587.939L588.831 186.41H594.747V196.055H606.58V201.81H594.747V223.937C594.747 226.478 595.26 228.193 596.287 229.083C597.312 229.975 599.122 230.421 601.717 230.421H605.932V236.256L599.773 236.256Z" fill="#0B151C"/>
<path d="M655.211 237.229C651.465 237.317 647.748 236.541 644.35 234.96C641.417 233.578 638.942 231.384 637.218 228.638C635.507 225.805 634.636 222.545 634.706 219.236H641.837C641.818 221.374 642.348 223.481 643.377 225.356C644.422 227.239 645.983 228.785 647.875 229.813C650.137 230.99 652.663 231.562 655.211 231.475C658.42 231.678 661.592 230.698 664.126 228.719C665.135 227.881 665.942 226.826 666.489 225.634C667.036 224.442 667.309 223.142 667.286 221.83C667.38 219.899 666.871 217.987 665.828 216.359C664.806 214.939 663.458 213.785 661.897 212.995C660.08 212.064 658.181 211.304 656.223 210.726C654.088 210.078 651.859 209.348 649.536 208.538C645.892 207.461 642.557 205.529 639.81 202.904C637.642 200.502 636.507 197.343 636.649 194.11C636.546 191.273 637.279 188.469 638.758 186.046C640.259 183.657 642.41 181.746 644.958 180.535C647.936 179.145 651.196 178.466 654.481 178.549C657.744 178.471 660.98 179.165 663.924 180.575C666.483 181.823 668.644 183.76 670.164 186.167C671.667 188.604 672.467 191.409 672.475 194.272H665.342C665.326 192.643 664.908 191.042 664.126 189.612C663.277 188.033 661.999 186.726 660.438 185.843C658.54 184.809 656.398 184.305 654.238 184.384C651.51 184.219 648.815 185.055 646.659 186.735C645.679 187.55 644.901 188.583 644.388 189.75C643.874 190.918 643.639 192.188 643.701 193.462C643.633 194.487 643.782 195.515 644.139 196.479C644.495 197.442 645.05 198.32 645.769 199.054C647.449 200.523 649.425 201.615 651.563 202.256C654.048 203.095 656.912 204.054 660.154 205.133C662.691 206.029 665.134 207.169 667.449 208.538C669.534 209.759 671.276 211.487 672.514 213.563C673.817 215.972 674.447 218.688 674.338 221.425C674.34 224.121 673.612 226.767 672.232 229.084C670.705 231.602 668.5 233.639 665.868 234.96C662.555 236.579 658.896 237.358 655.211 237.229Z" fill="#0B151C"/>
<path d="M701.895 237.229C698.321 237.282 694.797 236.387 691.682 234.635C688.655 232.906 686.17 230.365 684.509 227.3C682.688 223.873 681.781 220.035 681.875 216.156C681.781 212.271 682.703 208.43 684.55 205.011C686.242 201.942 688.753 199.402 691.804 197.676C694.935 195.927 698.471 195.033 702.057 195.083C705.631 195.03 709.154 195.925 712.27 197.676C715.296 199.407 717.779 201.947 719.441 205.011C721.263 208.438 722.17 212.276 722.077 216.156C722.171 220.04 721.248 223.882 719.401 227.3C717.709 230.369 715.198 232.909 712.148 234.635C709.017 236.384 705.481 237.278 701.895 237.229ZM701.895 231.393C704.168 231.406 706.405 230.819 708.379 229.691C710.449 228.482 712.135 226.712 713.241 224.585C714.562 221.977 715.204 219.078 715.106 216.156C715.203 213.238 714.577 210.342 713.282 207.726C712.198 205.596 710.524 203.824 708.46 202.62C706.512 201.499 704.304 200.912 702.057 200.918C699.784 200.905 697.547 201.492 695.573 202.62C693.502 203.829 691.816 205.599 690.709 207.726C689.482 210.367 688.846 213.244 688.846 216.156C688.846 219.067 689.482 221.944 690.709 224.585C691.808 226.704 693.479 228.473 695.533 229.691C697.464 230.815 699.66 231.403 701.895 231.393Z" fill="#0B151C"/>
<path d="M750.039 237.228C746.421 237.284 742.854 236.375 739.705 234.594C736.663 232.851 734.166 230.298 732.491 227.218C730.759 223.787 729.857 219.998 729.857 216.155C729.857 212.312 730.759 208.522 732.491 205.092C734.166 202.013 736.664 199.459 739.705 197.716C742.854 195.935 746.421 195.026 750.039 195.082C754.355 194.944 758.592 196.257 762.074 198.81C765.311 201.245 767.522 204.8 768.275 208.78H761.304C761.068 207.595 760.595 206.471 759.912 205.475C759.23 204.479 758.353 203.632 757.334 202.984C755.134 201.58 752.567 200.861 749.958 200.917C747.635 200.902 745.353 201.531 743.364 202.732C741.376 203.934 739.758 205.662 738.691 207.726C737.464 210.366 736.828 213.243 736.828 216.155C736.828 219.067 737.464 221.944 738.691 224.584C739.804 226.717 741.488 228.499 743.555 229.731C745.494 230.877 747.706 231.479 749.958 231.474C752.567 231.53 755.134 230.811 757.334 229.407C758.36 228.749 759.242 227.888 759.925 226.878C760.607 225.868 761.077 224.729 761.304 223.531H768.275C767.528 227.48 765.33 231.008 762.114 233.419C758.636 236.018 754.379 237.361 750.039 237.228Z" fill="#0B151C"/>
<path d="M781.891 187.14C781.269 187.157 780.649 187.048 780.071 186.818C779.493 186.588 778.967 186.243 778.527 185.802C778.087 185.362 777.741 184.837 777.511 184.259C777.281 183.681 777.172 183.061 777.189 182.439C777.174 181.835 777.285 181.235 777.515 180.676C777.746 180.118 778.09 179.614 778.527 179.197C779.441 178.362 780.633 177.9 781.87 177.9C783.108 177.9 784.3 178.362 785.214 179.197C785.661 179.608 786.015 180.11 786.253 180.669C786.491 181.228 786.606 181.832 786.592 182.439C786.609 183.065 786.496 183.687 786.258 184.267C786.021 184.846 785.665 185.369 785.214 185.803C784.778 186.237 784.259 186.578 783.688 186.808C783.117 187.038 782.506 187.15 781.891 187.14ZM778.487 236.256V196.055H785.295V236.256L778.487 236.256Z" fill="#0B151C"/>
<path d="M815.203 237.228C811.622 237.295 808.092 236.384 804.99 234.595C802.022 232.843 799.595 230.304 797.979 227.259C796.208 223.832 795.33 220.013 795.427 216.156C795.34 212.317 796.203 208.517 797.939 205.093C799.531 202.02 801.962 199.462 804.95 197.717C808.121 195.917 811.72 195.007 815.365 195.083C818.91 194.991 822.409 195.905 825.456 197.717C828.218 199.394 830.473 201.789 831.981 204.647C833.489 207.492 834.268 210.667 834.25 213.887C834.25 214.482 834.237 215.076 834.21 215.67C834.182 216.265 834.169 216.941 834.17 217.696H802.154C802.204 220.391 802.944 223.028 804.301 225.356C805.432 227.233 807.032 228.785 808.943 229.857C810.854 230.93 813.011 231.488 815.203 231.475C817.697 231.564 820.159 230.885 822.254 229.53C824.14 228.24 825.583 226.4 826.387 224.261H833.114C832.052 228.14 829.697 231.539 826.44 233.897C823.183 236.255 819.219 237.431 815.203 237.229V237.228ZM815.203 200.837C812.07 200.8 809.021 201.845 806.57 203.796C805.285 204.853 804.235 206.166 803.489 207.653C802.742 209.14 802.315 210.766 802.235 212.428H827.522C827.526 210.828 827.197 209.245 826.555 207.78C825.913 206.314 824.973 204.999 823.794 203.918C821.42 201.846 818.352 200.745 815.203 200.837Z" fill="#0B151C"/>
<path d="M857.753 236.256C854.634 236.435 851.556 235.486 849.079 233.582C846.973 231.799 845.919 228.583 845.919 223.936V201.81H838.948V196.055H845.919L846.811 186.41H852.727V196.055H864.56V201.81H852.727V223.937C852.727 226.478 853.241 228.193 854.267 229.083C855.293 229.975 857.103 230.421 859.697 230.421H863.912V236.256L857.753 236.256Z" fill="#0B151C"/>
<path d="M877.609 254.087L887.578 232.365H885.228L869.261 196.055H876.636L889.928 227.34L904.031 196.055H911.083L884.741 254.087L877.609 254.087Z" fill="#0B151C"/>
</g>
<defs>
<clipPath id="clip0_1_355">
<rect width="1373.83" height="260.092" fill="white"/>
</clipPath>
</defs>
</svg>
