<svg xmlns="http://www.w3.org/2000/svg" id="svg1" version="1.2" viewBox="0 0 480 600"><style id="style1">.s1{fill:gray;stroke:gray;stroke-miterlimit:100;stroke-width:5}</style><g id="g1" transform="translate(-1.0479593,-17.27523)"><path id="Shape 1" d="M2 791c44 82 123-333 243-331 119 1 221 332 235 335S-2 784 2 791Z" style="fill:#004208;stroke:#004208;stroke-width:5;stroke-miterlimit:100"/><g id="Folder 2" transform="matrix(0.21484421,0,0,0.22008656,132.03515,162.99662)"><g id="Folder 1"><path id="Layer 1" fill-rule="evenodd" d="M748 1221v291H322v-291z" class="s1"/><path id="Shape 2" fill-rule="evenodd" d="M815 1259v336H372v-336z" class="s1"/><path id="Layer 2" fill-rule="evenodd" d="m412 1574-41 20-48-79 41-20z" class="s1"/><path id="Layer 2 copy" fill-rule="evenodd" d="m814 1256-25 31-61-33 25-31z" class="s1"/></g><path id="Shape 4" fill-rule="evenodd" d="M804 1167v132H602v-132z" style="fill:#a6192e;stroke:#a6192e;stroke-width:5;stroke-miterlimit:100"/><path id="SFU" d="M657 1195v14l-11-3-10-2q-6 0-9 2t-3 5q0 3 2 4 2 2 7 3l8 2q11 2 16 6 4 5 4 13 0 11-6 17-7 5-20 5l-13-1-13-4v-14l13 5 11 2q6 0 9-2t3-5q0-4-2-5-2-2-8-3l-7-2q-10-2-15-7-4-4-4-12 0-10 6-16 6-5 19-5l11 1zm19 65v-67h47v13h-29v13h27v13h-27v28zm63-27v-40h18v40q0 9 2 12 3 4 9 4t9-4q3-3 3-12v-40h17v40q0 14-7 21t-22 7q-14 0-22-7-7-7-7-21z" aria-label="SFU" style="fill:#fff"/></g></g></svg>
