<?xml version="1.0" encoding="UTF-8" standalone="no"?>
<svg
   version="1.2"
   viewBox="0 0 1125 2436"
   id="svg1"
   sodipodi:docname="mountain_sm.svg"
   inkscape:version="1.4.2 (ebf0e94, 2025-05-08)"
   xmlns:inkscape="http://www.inkscape.org/namespaces/inkscape"
   xmlns:sodipodi="http://sodipodi.sourceforge.net/DTD/sodipodi-0.dtd"
   xmlns="http://www.w3.org/2000/svg"
   xmlns:svg="http://www.w3.org/2000/svg">
  <defs
     id="defs1" />
  <sodipodi:namedview
     id="namedview1"
     pagecolor="#ffffff"
     bordercolor="#000000"
     borderopacity="0.25"
     inkscape:showpageshadow="2"
     inkscape:pageopacity="0.0"
     inkscape:pagecheckerboard="0"
     inkscape:deskcolor="#d1d1d1"
     inkscape:zoom="0.23120302"
     inkscape:cx="503.88616"
     inkscape:cy="1295.3983"
     inkscape:window-width="1080"
     inkscape:window-height="1837"
     inkscape:window-x="0"
     inkscape:window-y="40"
     inkscape:window-maximized="1"
     inkscape:current-layer="svg1" />
  <style
     id="style1">
		.s0 { fill: #004208;stroke: #004208;stroke-miterlimit:100;stroke-width: 5 } 
		.s1 { fill: #808080;stroke: #808080;stroke-miterlimit:100;stroke-width: 5 } 
		.s2 { fill: #a6192e;stroke: #a6192e;stroke-miterlimit:100;stroke-width: 5 } 
		.s3 { fill: #ffffff } 
	</style>
  <path
     id="Shape 1"
     class="s0"
     d="m -607,3617.5508 c 204.66,374.93 574.11,-1510.05 1131.68,-1503.34 556.33,6.7 1030.9,1510.4 1096.19,1524.22 65.28,13.83 -2245.18,-52.59 -2227.87,-20.88 z" />
  <g
     id="Folder 2"
     transform="translate(0,765.56094)">
    <g
       id="Folder 1">
      <path
         id="Layer 1"
         fill-rule="evenodd"
         class="s1"
         d="m 748.09,1221.29 v 290.23 H 322.15 v -290.23 z" />
      <path
         id="Shape 2"
         fill-rule="evenodd"
         class="s1"
         d="m 814.91,1258.87 v 336.16 H 372.26 v -336.16 z" />
      <path
         id="Layer 2"
         fill-rule="evenodd"
         class="s1"
         d="M 412,1573.7 371.12,1594 323,1515.3 363.88,1495 Z" />
      <path
         id="Layer 2 copy"
         fill-rule="evenodd"
         class="s1"
         d="m 814,1256.16 -24.66,30.84 -61,-32.9 24.65,-30.84 z" />
    </g>
    <path
       id="Shape 4"
       fill-rule="evenodd"
       class="s2"
       d="m 804.47,1167 v 131.54 H 601.94 V 1167 Z" />
    <path
       id="SFU"
       class="s3"
       aria-label="SFU"
       d="m 657,1195.1 v 14.2 q -5.5,-2.5 -10.7,-3.7 -5.3,-1.3 -9.9,-1.3 -6.2,0 -9.2,1.7 -3,1.7 -3,5.3 0,2.7 2,4.2 2,1.5 7.3,2.6 l 7.3,1.5 q 11.2,2.2 15.9,6.8 4.7,4.6 4.7,13 0,11.1 -6.6,16.5 -6.5,5.4 -20,5.4 -6.4,0 -12.8,-1.2 -6.4,-1.2 -12.8,-3.6 v -14.6 q 6.4,3.4 12.4,5.2 6,1.7 11.5,1.7 5.7,0 8.7,-1.9 3,-1.9 3,-5.4 0,-3.1 -2.1,-4.8 -2,-1.7 -8.1,-3.1 l -6.7,-1.5 q -10,-2.1 -14.7,-6.8 -4.6,-4.7 -4.6,-12.7 0,-10 6.5,-15.4 6.4,-5.4 18.5,-5.4 5.5,0 11.4,0.9 5.8,0.8 12,2.4 z m 19.4,64.9 v -67 H 723 v 13.1 h -29.3 v 12.5 h 27.6 v 13 h -27.6 v 28.4 z m 63,-26.8 V 1193 h 17.3 v 40.2 q 0,8.3 2.7,11.9 2.7,3.5 8.8,3.5 6.2,0 8.9,-3.5 2.8,-3.6 2.8,-11.9 V 1193 h 17.2 v 40.2 q 0,14.2 -7.1,21.1 -7.1,7 -21.8,7 -14.5,0 -21.7,-7 -7.1,-6.9 -7.1,-21.1 z" />
  </g>
</svg>
