<?xml version="1.0" encoding="utf-8"?>
<!-- Generator: Adobe Illustrator 27.0.1, SVG Export Plug-In . SVG Version: 6.00 Build 0)  -->
<svg version="1.1" id="Layer_1" xmlns:serif="http://www.serif.com/"
	 xmlns="http://www.w3.org/2000/svg" xmlns:xlink="http://www.w3.org/1999/xlink" x="0px" y="0px" viewBox="0 0 800 800"
	 style="enable-background:new 0 0 800 800;" xml:space="preserve">
<style type="text/css">
	.st0{fill-rule:evenodd;clip-rule:evenodd;}
</style>
<g>
	<path class="st0" d="M248,160v208c0,8.8,7.2,16,16,16h120c4.4,0,8,3.6,8,8v32c0,4.4-3.6,8-8,8H224c-13.2,0-24-10.8-24-24V120
		c0-13.2,10.8-24,24-24h160c4.4,0,8,3.6,8,8v32c0,4.4-3.6,8-8,8H264C255.2,144,248,151.2,248,160z"/>
	<path class="st0" d="M456,72v16c0,4.4,3.6,8,8,8h112c13.2,0,24,10.8,24,24v288c0,13.2-10.8,24-24,24H416c-4.4,0-8-3.6-8-8v-32
		c0-4.4,3.6-8,8-8h120c8.8,0,16-7.2,16-16V160c0-8.8-7.2-16-16-16H416c-4.4,0-8-3.6-8-8V40c0-13.2,10.8-24,24-24h160
		c4.4,0,8,3.6,8,8v32c0,4.4-3.6,8-8,8H464C459.6,64,456,67.6,456,72z"/>
	<path class="st0" d="M708,680H416c-4.4,0-8-3.6-8-8v-32c0-4.4,3.6-8,8-8H660c0.5,0,1,0,1.5-0.1c10.9-0.8,17.2-10.2,15.2-22
		c-0.2-0.8-0.3-1.7-0.6-2.5L661.6,554c0,0,0-0.1,0-0.1c0,0,0-0.1,0-0.1c-1.5-5.4-7.4-9.8-13.1-9.8H416c-4.4,0-8-3.6-8-8v-80
		c0-4.4,3.6-8,8-8h176c4.4,0,8,3.6,8,8v24c0,4.4-3.6,8-8,8H452c-2.2,0-4,1.8-4,4v8c0,2.2,1.8,4,4,4h216c11,0,22.8,8.6,26.2,19.6
		l6.5,20.4l28,88l3.4,10.7C738.6,663,727.9,680,708,680z"/>
	<path class="st0" d="M123.2,610c-2,11.7,4.3,21.1,15.2,22c0.5,0,1.1,0.1,1.6,0.1h229.2c12.6,0,22.8,10.3,22.8,23.4V736
		c0,13.2-10.8,24-24,24H64c-4.4,0-8-3.6-8-8v-32c0-4.4,3.6-8,8-8h272c4.4,0,8-3.6,8-8v-16c0-4.4-3.6-8-8-8H92
		c-19.9,0-30.6-17-24.1-37.3l3.4-10.7l28-88l6.5-20.4c3.5-10.9,15.2-19.6,26.2-19.6h252c4.4,0,8,3.6,8,8v24c0,4.4-3.6,8-8,8H151.5
		c-5.7,0-11.6,4.3-13.1,9.8c0,0,0,0.1,0,0.1c0,0,0,0.1,0,0.1l-14.6,53.4C123.6,608.3,123.4,609.1,123.2,610z"/>
</g>
</svg>
