<svg width="2225" height="399" viewBox="0 0 2225 399" fill="none" xmlns="http://www.w3.org/2000/svg">
<path fill-rule="evenodd" clip-rule="evenodd" d="M0.625 199.978C0.625 90.1309 89.7992 0.970215 199.633 0.970215C309.597 0.970215 398.64 89.9999 398.64 199.978C398.64 309.956 309.597 398.985 199.633 398.985C89.6684 398.985 0.625 309.825 0.625 199.978ZM234.413 121.422H120.919L103.659 149.048H217.154L234.413 121.422ZM293.383 231.793L310.643 259.287L310.512 259.418H343.07L256.903 121.422L187.996 231.793H109.935L127.195 204.167H180.019L197.279 176.542H86.6611L69.4016 204.167H94.7679L60.2488 259.287H203.424L257.034 173.4L276.254 204.167H260.302L243.043 231.793H293.383ZM1370.89 176.557C1379.07 164.217 1394.13 156.553 1411.66 156.553C1444.25 156.553 1462.55 180.195 1462.55 212.15V296.196H1427.76V214.878C1427.76 197.082 1415.43 185.001 1399.33 185.001C1383.23 185.001 1370.89 197.601 1370.89 213.449V296.066H1336.1V159.54H1370.89V176.557ZM1130.72 184.222V159.541H1095.92V296.066H1130.72V223.841C1130.72 205.265 1147.08 185.78 1174.99 190.197V157.072C1153.96 154.604 1138.9 166.425 1130.72 184.222ZM688.257 296.196H653.463V104.593L688.257 93.6809V296.196ZM1248.46 156.813C1208.48 156.813 1176.28 186.69 1176.28 227.998C1176.28 269.306 1208.61 298.924 1248.46 298.924C1288.32 298.924 1320.65 269.047 1320.65 227.998C1320.65 186.95 1288.32 156.813 1248.46 156.813ZM1248.46 267.488C1227.43 267.488 1210.68 251.38 1210.68 228.388C1210.68 205.395 1227.43 188.898 1248.46 188.898C1269.5 188.898 1286.24 204.746 1286.24 228.388C1286.24 252.03 1269.62 267.488 1248.46 267.488ZM703.574 227.739C703.574 186.431 735.382 156.554 774.46 156.554V156.684C808.345 156.684 845.606 181.495 845.606 234.104C845.606 234.919 845.546 235.703 845.484 236.515C845.416 237.387 845.347 238.291 845.347 239.3H740.056C744.729 256.447 760.049 268.008 778.615 268.008C789.261 268.008 799.128 263.852 804.84 255.408H843.399C833.013 281.648 818.991 298.925 777.966 298.925C736.94 298.925 703.574 269.048 703.574 227.739ZM774.46 186.951C758.361 186.951 744.989 197.602 740.315 214.36H807.826C804.84 198.122 790.559 186.951 774.46 186.951ZM1042.94 119.661L1008.79 130.572V260.862C1008.79 281.906 1023.59 296.195 1048.78 296.195H1082.67V265.279H1058.65C1048 265.279 1043.07 260.343 1043.07 251.25V189.157H1082.8V159.54H1043.07V119.531L1042.94 119.661ZM962.316 213.189C956.863 198.511 944.01 189.158 928.69 189.158V189.028C908.048 189.028 891.689 205.525 891.689 228.518C891.689 251.51 913.371 267.618 928.69 267.618C944.01 267.618 956.863 258.395 962.316 243.586H997.63C991.008 276.711 968.029 298.924 928.69 298.924C889.352 298.924 857.285 269.306 857.285 227.998C857.285 186.69 894.805 156.813 928.69 156.813C962.576 156.813 991.008 180.065 997.63 213.189H962.316ZM1968.76 184.222V159.541H1933.97V296.066H1968.76V223.841C1968.76 205.265 1985.12 185.78 2013.03 190.197V157.072C1992 154.604 1976.94 166.425 1968.76 184.222ZM637.75 296.195H498.704V104.592H637.75V138.236H537.003V183.182H618.536V216.306H537.003V263.07H637.75V296.195ZM1728.69 296.196H1767.51L1786.34 255.407H1866.18L1885.66 296.196H1925.64L1827.1 96.4092L1728.56 296.196H1728.69ZM1800.1 226.18L1825.81 170.323L1852.29 226.18H1800.1ZM2141.69 195.523C2141.69 205.655 2156.1 209.422 2173.11 213.839V213.709C2196.35 219.814 2224.26 229.687 2224.26 255.927C2224.26 282.166 2202.97 298.923 2168.18 298.923C2133.38 298.923 2107.68 278.01 2104.69 248.782H2136.37C2138.19 262.941 2155.45 272.554 2168.05 272.554C2180.64 272.554 2189.73 269.046 2189.73 259.174C2189.73 249.575 2176.23 245.994 2160.2 241.743L2158.83 241.378C2135.59 235.402 2107.68 224.621 2107.68 198.381C2107.68 172.141 2126.89 156.553 2160.52 156.553C2194.14 156.553 2219.07 177.207 2222.05 206.434H2190.38C2188.17 192.275 2176.1 182.923 2160 182.923C2150.39 182.923 2141.69 185.391 2141.69 195.523ZM2059.11 119.661L2024.96 130.572V260.862C2024.96 281.906 2039.76 296.195 2064.95 296.195H2098.84V265.279H2074.82C2064.17 265.279 2059.24 260.343 2059.24 251.25V189.157H2098.97V159.54H2059.24V119.531L2059.11 119.661ZM1481.89 159.669H1516.68V296.194H1481.89V159.669ZM1499.16 97.7078C1487.09 97.7078 1476.96 107.84 1476.96 120.181C1476.96 132.521 1487.09 142.653 1499.16 142.653C1511.24 142.653 1521.62 132.521 1521.62 120.181C1521.62 107.84 1511.5 97.7078 1499.16 97.7078ZM1637.04 213.189C1631.59 198.511 1618.74 189.158 1603.42 189.158V189.028C1582.9 189.028 1566.55 205.525 1566.55 228.518C1566.55 251.51 1588.1 267.618 1603.42 267.618C1618.74 267.618 1631.59 258.395 1637.04 243.586H1672.36C1665.87 276.711 1642.76 298.924 1603.42 298.924C1564.08 298.924 1532.01 269.306 1532.01 227.998C1532.01 186.69 1569.53 156.813 1603.42 156.813C1637.3 156.813 1665.74 180.065 1672.36 213.189H1637.04Z" fill="black"/>
</svg>
