<?xml version="1.0" standalone="no"?>
<!DOCTYPE svg PUBLIC "-//W3C//DTD SVG 20010904//EN"
 "http://www.w3.org/TR/2001/REC-SVG-20010904/DTD/svg10.dtd">
<svg version="1.0" xmlns="http://www.w3.org/2000/svg"
 width="2881.000000pt" height="1130.000000pt" viewBox="0 0 2881.000000 1130.000000"
 preserveAspectRatio="xMidYMid meet">

<g transform="translate(0.000000,1130.000000) scale(0.100000,-0.100000)"
fill="#000000" stroke="none">
<path d="M0 5570 l0 -5570 1575 0 1575 0 0 1124 0 1124 523 5 c555 4 634 10
937 62 735 128 1457 459 2036 933 436 357 807 798 1075 1280 l57 103 67 -128
c313 -601 747 -1102 1295 -1493 568 -405 1249 -663 1965 -742 185 -20 713 -17
895 5 298 37 578 99 849 190 140 46 154 49 163 33 32 -58 192 -242 317 -366
449 -447 1016 -711 1656 -771 157 -15 478 -7 625 16 444 68 870 245 1225 510
61 46 142 111 180 146 110 101 106 101 75 -3 -139 -467 -57 -967 223 -1365 79
-113 257 -291 370 -370 223 -157 488 -256 759 -283 82 -8 1310 -10 4543 -8
l4430 3 108 23 c362 77 649 242 887 508 171 191 294 432 356 699 26 112 28
135 29 335 0 189 -3 228 -23 318 -48 214 -129 406 -243 574 -87 129 -295 336
-419 417 -182 120 -405 210 -610 246 -52 9 -177 19 -276 22 l-182 6 77 60
c397 314 777 744 1041 1181 329 542 533 1139 615 1796 22 173 31 647 16 836
-94 1177 -625 2239 -1509 3015 -651 571 -1454 940 -2311 1059 -431 60 -941 52
-1371 -21 -680 -116 -1339 -397 -1887 -805 l-137 -102 -50 42 c-141 118 -359
268 -548 377 -528 302 -1108 483 -1728 539 -76 6 -1244 10 -3422 10 l-3308 0
-2 -2462 -3 -2463 -23 -80 c-75 -262 -265 -499 -498 -621 -167 -88 -308 -119
-504 -111 -161 6 -266 33 -406 102 -248 124 -421 335 -511 622 l-28 88 -3
2463 -2 2462 -1575 0 -1575 0 -2 -879 -3 -880 -86 107 c-672 832 -1630 1399
-2679 1586 -362 64 -207 60 -2517 63 l-2103 3 0 -5570z m4300 4647 c298 -45
546 -107 788 -198 1154 -432 2011 -1448 2241 -2659 44 -235 55 -372 55 -680 0
-324 -10 -434 -64 -702 -103 -502 -325 -997 -632 -1406 -227 -301 -508 -574
-813 -787 -492 -345 -1059 -556 -1660 -620 -113 -12 -315 -15 -1047 -15 l-908
0 0 -1125 0 -1125 -680 0 -680 0 0 4453 c0 2448 3 4550 7 4670 l6 218 1636 -4
c1491 -3 1646 -5 1751 -20z m5340 -1952 c0 -1333 3 -2007 11 -2073 83 -761
612 -1393 1349 -1615 198 -60 287 -72 540 -71 206 0 236 2 351 27 325 69 587
192 835 393 334 270 564 650 661 1089 l27 120 6 2050 c4 1128 7 2051 8 2053 1
1 303 2 670 2 l669 0 6 -217 c4 -120 7 -1530 7 -3135 0 -2794 1 -2919 18
-2975 84 -269 393 -392 643 -257 99 54 171 142 209 253 20 60 20 68 20 3196
l0 3135 674 0 674 0 7 -299 8 -300 86 58 c397 267 834 434 1341 514 116 18
180 21 450 21 337 1 412 -6 677 -60 735 -150 1428 -584 1893 -1187 40 -51 75
-93 79 -95 4 -1 48 47 99 106 504 595 1223 1019 1982 1172 283 57 367 65 720
64 355 0 440 -7 723 -65 1306 -265 2372 -1279 2707 -2574 81 -312 112 -563
112 -910 0 -233 -14 -424 -45 -595 l-12 -65 -2788 -3 -2788 -2 6 -23 c20 -66
84 -215 132 -307 222 -425 570 -763 998 -971 798 -386 1737 -257 2405 331 l79
70 824 -2 825 -3 -65 -120 c-451 -833 -1248 -1468 -2158 -1719 -315 -87 -523
-116 -872 -123 -387 -8 -642 20 -966 103 -611 157 -1143 457 -1596 899 -305
298 -527 604 -711 980 -140 287 -228 543 -290 843 -52 256 -61 366 -70 802 -9
428 -17 518 -65 697 -70 262 -196 511 -365 718 -84 103 -262 270 -371 347
-177 126 -429 242 -641 293 -1010 246 -2029 -367 -2283 -1373 -56 -221 -55
-176 -55 -1882 0 -1043 -4 -1614 -11 -1690 -22 -239 -82 -448 -190 -660 -175
-344 -444 -613 -787 -788 -179 -92 -347 -145 -557 -177 -153 -24 -476 -16
-620 15 -588 126 -1066 519 -1301 1068 -48 112 -99 282 -110 364 -8 58 -3 59
-121 -20 -445 -298 -946 -478 -1482 -532 -153 -15 -524 -13 -676 5 -615 71
-1150 289 -1647 672 -139 108 -417 382 -528 523 -391 492 -630 1075 -695 1694
-13 125 -15 422 -15 2166 l0 2020 675 0 675 0 0 -1975z m8428 -5518 l132 -134
0 -181 0 -182 230 0 c272 0 344 -11 470 -73 111 -54 237 -176 293 -284 103
-198 103 -437 0 -636 -56 -108 -183 -232 -295 -286 -137 -67 -171 -71 -600
-71 l-378 0 0 990 c0 545 4 990 8 990 4 0 67 -60 140 -133z m3230 0 l132 -134
0 -181 0 -182 317 0 318 0 -135 -135 -135 -135 -182 0 -183 0 0 -356 c0 -393
0 -391 64 -430 29 -18 60 -19 436 -22 l405 -3 -3 858 -3 858 136 -135 135
-135 0 -182 0 -183 317 0 318 0 -135 -135 -135 -135 -182 0 -183 0 0 -352 c0
-332 1 -355 20 -385 42 -69 31 -68 472 -71 219 -2 398 0 398 4 0 3 -9 19 -20
34 -61 85 -110 249 -110 365 0 94 27 204 76 302 78 160 214 278 393 341 67 23
91 26 206 26 114 0 140 -4 211 -27 158 -53 312 -182 388 -327 102 -194 102
-436 -1 -633 -57 -109 -183 -232 -295 -286 -153 -74 -72 -71 -1529 -71 -1273
0 -1309 1 -1371 20 -143 44 -250 164 -278 309 -12 64 -14 1651 -2 1651 4 0 67
-60 140 -133z m-1488 -854 c0 -209 5 -377 11 -403 36 -158 169 -282 331 -310
168 -29 345 65 424 225 l29 60 3 393 3 392 139 0 140 0 0 -675 0 -675 -140 0
-140 0 0 67 c0 62 -1 65 -18 50 -32 -29 -167 -87 -237 -102 -151 -32 -301 -13
-443 56 -112 54 -239 178 -295 286 -72 139 -77 177 -77 610 l0 383 135 0 135
0 0 -357z m5440 291 l0 -66 33 22 c187 125 448 144 652 46 180 -86 300 -221
362 -411 25 -77 27 -91 31 -342 l4 -263 591 0 c560 0 594 1 634 19 91 42 100
170 16 227 -26 17 -55 19 -373 24 l-346 5 -65 32 c-80 40 -159 120 -197 200
-24 52 -27 69 -27 168 0 100 2 115 28 167 43 88 107 152 195 195 l76 38 525 3
526 3 -135 -136 -135 -135 -340 0 c-201 0 -355 -4 -377 -10 -45 -13 -85 -58
-94 -107 -8 -44 15 -95 59 -127 27 -20 44 -21 370 -26 l342 -5 67 -32 c312
-147 313 -581 3 -734 l-70 -34 -777 -3 -777 -3 -3 388 -3 388 -32 68 c-57 120
-165 202 -298 226 -154 28 -328 -55 -410 -196 -50 -85 -55 -129 -55 -515 l0
-358 -135 0 -135 0 0 675 0 675 135 0 135 0 0 -66z"/>
<path d="M2260 6695 l0 -2195 860 0 c544 0 897 4 958 11 490 54 959 279 1311
629 795 791 867 2054 166 2925 -82 102 -248 269 -345 346 -281 225 -622 379
-1000 451 -112 21 -138 22 -1032 25 l-918 4 0 -2196z"/>
<path d="M24120 8880 c-405 -49 -778 -201 -1105 -449 -84 -64 -264 -240 -350
-342 -143 -171 -269 -386 -354 -603 -23 -57 -41 -107 -41 -110 0 -3 938 -6
2085 -6 1295 0 2085 4 2085 9 0 19 -53 155 -94 245 -105 224 -248 428 -431
612 -136 137 -218 204 -370 303 -249 162 -520 267 -830 322 -136 24 -466 34
-595 19z"/>
<path d="M18200 1575 l0 -405 203 0 c112 0 230 5 262 11 204 38 352 231 331
433 -18 177 -162 327 -343 356 -32 6 -147 10 -255 10 l-198 0 0 -405z"/>
</g>
</svg>
