<svg xmlns="http://www.w3.org/2000/svg" xml:space="preserve" id="svg1" version="1.1" viewBox="0 0 512 512"><path id="path1" fill="#000" fill-opacity="1" stroke="#000" stroke-dasharray="none" stroke-opacity="1" stroke-width="5.7" d="m257 45-44 88a9 9 0 0 1-13 3l-44-25 28 141a9 9 0 0 1-15 8l-57-61-14 33a9 9 0 0 1-10 5l-73-15 25 77a9 9 0 0 1-4 10L7 323l127 102a9 9 0 0 1 2 10l-15 43h273l-16-43a9 9 0 0 1 3-10l126-102-28-14a9 9 0 0 1-5-10l25-77-73 15a9 9 0 0 1-10-5l-14-33-57 61a9 9 0 0 1-14-8l27-141-44 25a9 9 0 0 1-12-3z" display="inline"/></svg>