<svg xmlns="http://www.w3.org/2000/svg" id="svg3" version="1.2" viewBox="0 0 2928.4 468.8"><style id="style1">.s0{fill:#fff}</style><g id="g1" transform="translate(-108 -201)"><path id="path1" fill-rule="evenodd" d="M585 201 463 351l221 319H108l162-145-12 102 190-7 41-170-123-14-36 132 67-29-16-52 45 5 3 61-136 62 32-227-90 48 50-44z" class="s0"/></g><g id="g2" transform="translate(-34 -201)"><path id="MADNESS" d="M761 644V452h98l69 103 68-103h98v192h-73V503l-69 104h-49l-69-104v141Zm611 0-19-35h-121l-19 35h-78l111-192h92l112 192Zm-80-147-41 76h82zm302-8h-28v117h28q47 1 72-14 25-16 25-44 0-29-24-44-25-15-73-15zm-105 155V452h82q68 0 101 6 34 6 58 21 21 13 31 30t10 39q0 21-10 39-10 17-31 30-24 15-58 21t-101 6zm342 0V452h86l110 132V452h73v192h-87l-109-132v132Zm344 0V452h209v37h-132v36h124v38h-124v44h136v37Zm490-186v41q-25-8-48-11-24-4-45-4-28 0-41 5t-13 15q0 8 9 12 9 5 32 8l33 4q50 6 71 19 22 14 22 38 0 32-30 47-29 16-90 16-28 0-57-4-29-3-58-10v-42q29 10 56 15t52 5q25 0 38-6 14-5 14-15 0-9-9-14t-37-9l-30-4q-45-6-65-20-21-13-21-36 0-29 29-44 29-16 83-16 25 0 51 3 26 2 54 7zm278 0v41q-25-8-48-11-24-4-45-4-28 0-41 5t-13 15q0 8 9 12 9 5 32 8l33 4q50 6 71 19 22 14 22 38 0 32-30 47-29 16-90 16-28 0-57-4-29-3-58-10v-42q29 10 56 15t52 5q25 0 38-6 14-5 14-15 0-9-9-14t-37-9l-30-4q-45-6-65-20-21-13-21-36 0-29 29-44 29-16 83-16 25 0 51 3 26 2 54 7z" aria-label="MADNESS" class="s0"/></g><g id="g3" transform="translate(-261 -205)"><path id="MOUNTAIN" d="M761 438V246h98l69 103 68-103h98v192h-73V297l-69 104h-49l-69-104v141Zm547-160q-35 0-55 17-19 17-19 47t19 47q20 17 55 17t55-17q19-17 19-47t-19-47q-20-17-55-17zm0-36q72 0 113 27 41 26 41 73t-41 73q-41 27-113 27t-113-27q-41-26-41-73t41-73q41-27 113-27zm213 119V246h77v115q0 24 12 34 13 10 40 10 28 0 40-10t12-34V246h77v115q0 41-32 61t-97 20q-65 0-97-20t-32-61zm334 77V246h86l109 132V246h74v192h-87l-109-132v132Zm308-155v-37h277v37h-100v155h-77V283Zm486 155-19-35h-121l-19 35h-78l111-192h92l111 192Zm-80-147-41 76h82zm198 147V246h77v192Zm153 0V246h86l109 132V246h74v192h-87l-109-132v132Z" aria-label="MOUNTAIN" class="s0"/></g></svg>
