<?xml version="1.0" encoding="UTF-8" standalone="no"?>
<svg
   version="1.2"
   viewBox="0 0 2928.3853 468.75"
   id="svg3"
   sodipodi:docname="mm-logotext.svg"
   inkscape:version="1.4.2 (ebf0e94, 2025-05-08)"
   width="2928.3853"
   height="468.75"
   xmlns:inkscape="http://www.inkscape.org/namespaces/inkscape"
   xmlns:sodipodi="http://sodipodi.sourceforge.net/DTD/sodipodi-0.dtd"
   xmlns="http://www.w3.org/2000/svg"
   xmlns:svg="http://www.w3.org/2000/svg">
  <defs
     id="defs3" />
  <sodipodi:namedview
     id="namedview3"
     pagecolor="#585858"
     bordercolor="#000000"
     borderopacity="0.25"
     inkscape:showpageshadow="2"
     inkscape:pageopacity="0.0"
     inkscape:pagecheckerboard="true"
     inkscape:deskcolor="#d1d1d1"
     inkscape:zoom="0.21148529"
     inkscape:cx="1827.5503"
     inkscape:cy="-1014.2549"
     inkscape:window-width="1080"
     inkscape:window-height="1837"
     inkscape:window-x="0"
     inkscape:window-y="40"
     inkscape:window-maximized="1"
     inkscape:current-layer="svg3" />
  <style
     id="style1">
		.s0 { fill: #FFFFFF; } 
	</style>
  <g
     id="g1"
     transform="translate(-107.91,-201.38)">
    <path
       fill-rule="evenodd"
       class="s0"
       d="M 584.84,201.38 463.04,350.57 684.02,670.13 H 107.91 l 161.71,-144.97 -11.19,101.64 189.5,-6.98 40.91,-170.23 -123.04,-13.84 -36.13,132.1 67.47,-28.74 -16.25,-51.65 44.98,4.87 2.81,60.7 -136.03,61.84 32.73,-227.33 -90.02,48.21 49.73,-44.05 z"
       id="path1" />
  </g>
  <g
     id="g2"
     transform="translate(-34.114789,-201.38)">
    <path
       id="MADNESS"
       class="s0"
       aria-label="MADNESS"
       d="M 760.8,644 V 451.7 h 98.4 l 68.4,102.9 68.7,-102.9 h 98.2 V 644 h -73.1 V 503.4 L 952.3,607 H 903.2 L 834.1,503.4 V 644 Z m 611,0 -18.9,-35 h -121 l -19.1,35 h -77.7 l 111.1,-192.3 h 92.2 L 1449.5,644 Z m -79.3,-147.2 -41.2,76.5 h 82.1 z m 301.6,-7.6 h -27.8 v 117.3 h 27.8 q 47.4,0 72.3,-15 25.1,-15.1 25.1,-43.8 0,-28.6 -24.9,-43.6 -24.9,-14.9 -72.5,-14.9 z M 1489,644 V 451.7 h 81.6 q 68.3,0 101.6,6.3 33.6,6.2 57.5,21.2 21.1,13 31.3,30 10.3,17 10.3,38.5 0,21.7 -10.3,38.9 -10.2,17 -31.3,30 -24.1,14.9 -57.9,21.2 -33.7,6.2 -101.2,6.2 z m 342,0 V 451.7 h 86.4 l 109.1,131.9 V 451.7 h 73.3 V 644 h -86.4 L 1904.3,512.1 V 644 Z m 344,0 V 451.7 h 208.8 v 37.5 H 2252.4 V 525 h 123.5 v 37.5 h -123.5 v 44 h 135.8 V 644 Z m 489.8,-186.2 v 40.7 q -24.7,-7.1 -48.3,-10.7 -23.5,-3.6 -44.4,-3.6 -27.7,0 -41,4.9 -13.2,4.9 -13.2,15.2 0,7.7 8.8,12.1 9.1,4.2 32.6,7.3 l 32.9,4.3 q 50.1,6.4 71.2,19.5 21.1,13.2 21.1,37.4 0,31.8 -29.6,47.4 -29.3,15.4 -89.8,15.4 -28.5,0 -57.3,-3.4 -28.7,-3.5 -57.4,-10.3 v -41.9 q 28.7,9.8 55.4,14.8 27,4.9 51.9,4.9 25.3,0 38.8,-5.4 13.4,-5.4 13.4,-15.5 0,-9 -9.2,-13.9 -9.1,-4.9 -36.4,-8.7 l -29.9,-4.3 q -45,-6.2 -65.9,-19.7 -20.7,-13.5 -20.7,-36.4 0,-28.7 28.9,-44.2 28.9,-15.5 83.2,-15.5 24.7,0 50.8,2.5 26.1,2.3 54.1,7.1 z m 278,0 v 40.7 q -24.7,-7.1 -48.3,-10.7 -23.5,-3.6 -44.4,-3.6 -27.7,0 -41,4.9 -13.2,4.9 -13.2,15.2 0,7.7 8.8,12.1 9.1,4.2 32.6,7.3 l 32.9,4.3 q 50.1,6.4 71.2,19.5 21.1,13.2 21.1,37.4 0,31.8 -29.6,47.4 -29.3,15.4 -89.8,15.4 -28.5,0 -57.3,-3.4 -28.7,-3.5 -57.4,-10.3 v -41.9 q 28.7,9.8 55.4,14.8 27,4.9 51.9,4.9 25.3,0 38.8,-5.4 13.4,-5.4 13.4,-15.5 0,-9 -9.2,-13.9 -9.1,-4.9 -36.4,-8.7 l -29.9,-4.3 q -45,-6.2 -65.9,-19.7 -20.7,-13.5 -20.7,-36.4 0,-28.7 28.9,-44.2 28.9,-15.5 83.2,-15.5 24.7,0 50.8,2.5 26.1,2.3 54.1,7.1 z" />
  </g>
  <g
     id="g3"
     transform="translate(-261.47462,-204.72353)">
    <path
       id="MOUNTAIN"
       class="s0"
       aria-label="MOUNTAIN"
       d="M 760.8,438 V 245.7 h 98.4 l 68.4,102.9 68.7,-102.9 h 98.2 V 438 h -73.1 V 297.4 L 952.3,401 H 903.2 L 834.1,297.4 V 438 Z m 547.1,-159.8 q -35.4,0 -54.9,16.7 -19.5,16.8 -19.5,47.2 0,30.2 19.5,47 19.5,16.7 54.9,16.7 35.5,0 55,-16.7 19.5,-16.8 19.5,-47 0,-30.4 -19.5,-47.2 -19.5,-16.7 -55,-16.7 z m 0,-36 q 72.3,0 113.3,26.6 41,26.5 41,73.3 0,46.6 -41,73.1 -41,26.5 -113.3,26.5 -72.2,0 -113.4,-26.5 -41,-26.5 -41,-73.1 0,-46.8 41,-73.3 41.2,-26.6 113.4,-26.6 z M 1520.8,361 V 245.7 h 77.4 V 361 q 0,23.8 12,34.1 12.3,10.2 39.8,10.2 27.7,0 39.8,-10.2 12.3,-10.3 12.3,-34.1 V 245.7 h 77.3 V 361 q 0,40.8 -31.9,60.8 -32,19.9 -97.5,19.9 -65.3,0 -97.2,-19.9 -32,-20 -32,-60.8 z m 334,77 V 245.7 h 86.4 l 109.1,131.9 V 245.7 h 73.4 V 438 h -86.4 L 1928.2,306.1 V 438 Z M 2163,283.2 v -37.5 h 276.5 v 37.5 H 2340 V 438 h -77.3 V 283.2 Z m 485.7,154.8 -18.9,-35 h -121 l -19.1,35 H 2412 l 111.1,-192.3 h 92.2 L 2726.4,438 Z m -79.3,-147.2 -41.2,76.5 h 82.1 z M 2766.9,438 V 245.7 h 77.3 V 438 Z m 153,0 V 245.7 h 86.4 l 109.1,131.9 V 245.7 h 73.4 V 438 h -86.4 L 2993.3,306.1 V 438 Z" />
  </g>
</svg>
