<svg version="1.2" xmlns="http://www.w3.org/2000/svg" viewBox="0 0 1920 1080">
	<style>
		.s0 { fill: #004208;stroke: #004208;stroke-miterlimit:100;stroke-width: 5 } 
		.s1 { fill: #808080;stroke: #808080;stroke-miterlimit:100;stroke-width: 5 } 
		.s2 { fill: #a6192e;stroke: #a6192e;stroke-miterlimit:100;stroke-width: 5 } 
		.s3 { fill: #ffffff } 
	</style>
	<path id="Shape 1" class="s0" d="m-159 1170c98.02 179.57 274.96-723.22 542-720 266.44 3.21 493.73 723.38 525 730 31.27 6.62-1075.29-25.19-1067-10z"/>
	<g id="Folder 2">
		<g id="Folder 1">
			<path id="Layer 1" fill-rule="evenodd" class="s1" d="m490 389v139h-204v-139z"/>
			<path id="Shape 2" fill-rule="evenodd" class="s1" d="m522 407v161h-212v-161z"/>
			<path id="Layer 2" fill-rule="evenodd" class="s1" d="m323.98 558.35l-17.15 9.45-20.2-36.65 17.16-9.45z"/>
			<path id="Layer 2 copy" fill-rule="evenodd" class="s1" d="m521.1 404.18l-11.68 13.34-28.88-14.23 11.67-13.35z"/>
		</g>
		<path id="Shape 4" fill-rule="evenodd" class="s2" d="m517 363v63h-97v-63z"/>
		<path id="SFU" class="s3" aria-label="SFU"  d="m446.4 376.9v6.8q-2.7-1.2-5.2-1.8-2.5-0.6-4.7-0.6-3 0-4.4 0.9-1.4 0.8-1.4 2.5 0 1.3 0.9 2 1 0.7 3.5 1.2l3.5 0.7q5.4 1.1 7.6 3.3 2.3 2.2 2.3 6.2 0 5.3-3.2 7.9-3.1 2.6-9.6 2.6-3 0-6.1-0.6-3.1-0.5-6.2-1.7v-7q3.1 1.7 6 2.5 2.8 0.8 5.5 0.8 2.7 0 4.2-0.9 1.4-0.9 1.4-2.6 0-1.5-1-2.3-1-0.8-3.9-1.4l-3.2-0.7q-4.8-1.1-7-3.3-2.2-2.3-2.2-6.1 0-4.8 3.1-7.4 3-2.6 8.8-2.6 2.7 0 5.5 0.5 2.8 0.3 5.8 1.1zm9.6 31.1v-32.1h22.4v6.3h-14.1v5.9h13.2v6.3h-13.2v13.6zm30-12.8v-19.3h8.3v19.3q0 3.9 1.3 5.6 1.3 1.7 4.2 1.7 3 0 4.3-1.7 1.3-1.7 1.3-5.6v-19.3h8.3v19.3q0 6.8-3.5 10.1-3.4 3.3-10.4 3.3-7 0-10.4-3.3-3.4-3.3-3.4-10.1z"/>
	</g>
</svg>
